<svg width="36" height="36" viewBox="0 0 36 36" fill="none" xmlns="http://www.w3.org/2000/svg">
<path fill-rule="evenodd" clip-rule="evenodd" d="M13.1463 11.1309C12.6947 11.1677 12.3182 11.263 12.0166 11.4167C11.4709 11.6947 11.0273 12.1384 10.7492 12.684C10.5956 12.9856 10.5003 13.3622 10.4634 13.8137V19.5209C10.5003 19.9724 10.5956 20.3489 10.7492 20.6505C11.0273 21.1962 11.4709 21.6398 12.0166 21.9179C12.3182 22.0716 12.6947 22.1668 13.1463 22.2037H22.8533C23.3049 22.1668 23.6814 22.0716 23.983 21.9179C24.5287 21.6398 24.9723 21.1962 25.2504 20.6505C25.4041 20.3489 25.4994 19.9724 25.5362 19.5209V13.8137C25.4994 13.3622 25.4041 12.9856 25.2504 12.684C24.9723 12.1384 24.5287 11.6947 23.983 11.4167C23.6814 11.263 23.3049 11.1677 22.8533 11.1309H13.1463ZM12.8338 13.0205C12.6268 13.126 12.4585 13.2943 12.353 13.5012C12.3069 13.5918 12.275 13.7448 12.2574 13.9603V19.3743C12.275 19.5897 12.3069 19.7428 12.353 19.8334C12.4585 20.0403 12.6268 20.2086 12.8338 20.314C12.9243 20.3602 13.0774 20.3921 13.2928 20.4097H22.7067C22.9223 20.3921 23.0753 20.3602 23.1658 20.314C23.3728 20.2086 23.5411 20.0403 23.6465 19.8334C23.6927 19.7428 23.7246 19.5897 23.7422 19.3743V13.9603C23.7246 13.7448 23.6927 13.5918 23.6465 13.5012C23.5411 13.2943 23.3728 13.126 23.1658 13.0205C23.0753 12.9744 22.9223 12.9425 22.7067 12.9249H13.2928C13.0774 12.9425 12.9243 12.9744 12.8338 13.0205Z" fill="black"/>
<path fill-rule="evenodd" clip-rule="evenodd" d="M15.0477 24.9006C15.1934 24.9006 15.3309 24.866 15.4527 24.8046C16.2517 24.4241 17.1007 24.2339 17.9998 24.2339C18.8989 24.2339 19.7479 24.4241 20.547 24.8046C20.6687 24.866 20.8063 24.9006 20.9519 24.9006C21.449 24.9006 21.8519 24.4977 21.8519 24.0006C21.8519 23.6355 21.6344 23.3211 21.322 23.18C20.2779 22.6826 19.1705 22.4339 17.9998 22.4339C16.8291 22.4339 15.7217 22.6826 14.6776 23.18C14.3651 23.3211 14.1477 23.6355 14.1477 24.0006C14.1477 24.4977 14.5506 24.9006 15.0477 24.9006Z" fill="black"/>
</svg>
