<svg width="36" height="36" viewBox="0 0 36 36" fill="none" xmlns="http://www.w3.org/2000/svg">
<path fill-rule="evenodd" clip-rule="evenodd" d="M20.2536 9.48828C20.862 9.48828 21.3082 9.49578 21.5922 9.51078C22.1917 9.54245 22.6287 9.62926 22.9032 9.77122C23.3672 10.0125 23.7456 10.3909 23.9878 10.8569C24.1218 11.1158 24.2044 11.4245 24.2357 11.7831C24.2513 11.9629 24.259 12.2849 24.2586 12.7491V12.897V23.1008V23.2487C24.259 23.7149 24.2514 24.0386 24.2358 24.2198C24.2045 24.5823 24.1215 24.8938 23.9868 25.1541C23.7456 25.6182 23.3672 25.9966 22.9012 26.2388C22.6421 26.3729 22.3313 26.4555 21.9688 26.4868C21.7876 26.5024 21.4639 26.51 20.9977 26.5096L20.8499 26.5095H15.1461L14.9982 26.5096C14.5339 26.51 14.2119 26.5023 14.0322 26.4867C13.6736 26.4554 13.3641 26.3724 13.1039 26.2378C12.6399 25.9966 12.2615 25.6182 12.0192 25.1522C11.8801 24.8832 11.7943 24.5568 11.762 24.173C11.7455 23.9778 11.7373 23.6204 11.7373 23.1008V12.897C11.7373 12.3789 11.7456 12.0231 11.7621 11.8295C11.7944 11.45 11.8805 11.1252 12.0203 10.8549C12.2615 10.3909 12.6399 10.0125 13.1059 9.77021C13.379 9.62895 13.8133 9.54248 14.4088 9.5108C14.6911 9.49579 15.1356 9.48828 15.7423 9.48828H20.2536ZM13.8169 11.7892C13.8661 11.6944 13.9434 11.6171 14.0362 11.5688C14.0813 11.5455 14.3235 11.5295 14.7627 11.5209C14.7904 11.7024 14.8388 11.8643 14.9077 12.0066C15.074 12.3591 15.3576 12.6427 15.7101 12.809C15.8965 12.8994 16.1147 12.9544 16.3646 12.9741L19.6239 12.9742C19.8774 12.9547 20.0975 12.8999 20.284 12.8099C20.6378 12.6434 20.9225 12.3587 21.089 12.0049C21.1575 11.8629 21.2056 11.7015 21.2333 11.5206C21.6792 11.5291 21.9244 11.5448 21.9689 11.5678C22.0637 11.6171 22.141 11.6944 22.1893 11.7872C22.2194 11.8454 22.2341 12.1654 22.2336 12.7474V23.2504C22.2341 23.8399 22.2197 24.163 22.1903 24.2199C22.141 24.3146 22.0637 24.3919 21.9709 24.4402C21.9127 24.4703 21.5889 24.4851 20.9994 24.4846L20.8499 24.4845H15.1461L14.9965 24.4846C14.4145 24.4851 14.095 24.4706 14.0382 24.4412C13.9434 24.3919 13.8661 24.3146 13.8179 24.2218C13.7808 24.1502 13.7623 23.7765 13.7623 23.1008V12.897C13.7623 12.2288 13.7805 11.8595 13.8169 11.7892Z" fill="black"/>
</svg>
