<svg width="16" height="16" viewBox="0 0 16 16" fill="none" xmlns="http://www.w3.org/2000/svg">
<g clip-path="url(#clip0_40000029_7276)">
<path d="M1.27246 8.15803C1.58131 8.15803 1.86515 8.0537 2.08888 7.87926L2.09007 7.8807L6.69367 4.40458V14.226C6.69367 14.9295 7.2791 15.5 8.00128 15.5C8.72347 15.5 9.3089 14.9295 9.3089 14.226V4.43629L13.9171 7.88303C14.1401 8.0552 14.4221 8.15803 14.7287 8.15803C15.4509 8.15803 16.0363 7.58764 16.0363 6.88401C16.0363 6.46077 15.8244 6.08573 15.4984 5.85404L8.78585 0.776662C8.30801 0.406623 7.63097 0.407909 7.15462 0.779761L0.513205 5.84664C0.181243 6.07769 -0.0351562 6.45623 -0.0351562 6.88401C-0.0351562 7.58764 0.550284 8.15803 1.27246 8.15803Z" fill="black"/>
</g>
<defs>
<clipPath id="clip0_40000029_7276">
<rect width="16" height="16" fill="white"/>
</clipPath>
</defs>
</svg>
