<svg width="28" height="28" viewBox="0 0 28 28" fill="none" xmlns="http://www.w3.org/2000/svg">
<g clip-path="url(#clip0_40000029_7182)">
<path d="M14 0C6.26526 0 0 6.26801 0 14C0 21.7321 6.26526 28 14 28C19.8566 28 24.8822 24.4099 26.9733 19.3084C26.7682 19.5102 26.548 19.6941 26.3317 19.8567C25.5666 20.4321 24.5523 20.8683 23.4967 20.51C22.5426 20.1862 21.9382 19.4092 21.5717 18.5967C21.41 18.2384 21.2799 17.8547 21.1867 17.4534C20.7006 18.4006 20.1298 19.3352 19.4483 20.055C18.674 20.8727 17.6478 21.5193 16.3567 21.3967C15.2941 21.2958 14.4493 20.8379 13.8717 20.09C13.6432 19.7943 13.464 19.4655 13.335 19.1217C13.0446 19.552 12.7218 19.9605 12.355 20.3C11.6475 20.9549 10.7542 21.4081 9.66 21.3734C7.59211 21.3734 6.40043 19.6997 6.02 17.815C5.63493 15.9072 5.96227 13.467 7.07 11.0483C8.48512 7.95858 10.5405 5.59561 11.5617 4.83C12.0052 4.49748 12.6407 4.59664 12.9733 5.04C13.3059 5.48336 13.2186 6.1075 12.775 6.44C12.0768 6.96353 10.1974 9.03369 8.89 11.8883C7.91726 14.0121 7.69659 16.0143 7.98 17.4184C8.26698 18.8401 8.9562 19.3667 9.67167 19.3667C9.68399 19.3667 9.70604 19.3667 9.71833 19.3667C10.1722 19.3834 10.5724 19.2165 10.99 18.83C11.4288 18.4239 11.8447 17.8055 12.25 17.0217C12.6449 16.258 12.9996 15.4029 13.3583 14.5367L13.37 14.49C13.5759 13.9929 13.7922 13.4897 14.0117 13.0083C14.1637 12.6659 14.3242 12.3253 14.5017 12.005C14.8232 11.4244 15.0883 10.9852 15.2717 10.6867C15.3625 10.5388 15.4328 10.4253 15.4933 10.3367C15.5218 10.295 15.5622 10.2421 15.5983 10.1967C15.6134 10.1776 15.6441 10.1269 15.6917 10.08C15.7124 10.0595 15.7656 10.0153 15.8433 9.96333C15.8823 9.93729 15.9537 9.89525 16.0533 9.85833C16.1449 9.82445 16.3458 9.76729 16.59 9.81167C16.8771 9.86384 17.1115 10.0313 17.255 10.255C17.3762 10.444 17.4067 10.6242 17.4067 10.71C17.4212 10.875 17.3833 11.0048 17.3833 11.0367C17.3625 11.1241 17.325 11.1912 17.325 11.2117C17.3007 11.2694 17.2656 11.3208 17.2433 11.3633C17.1945 11.4566 17.1325 11.5885 17.045 11.7367C16.8714 12.031 16.6012 12.4531 16.24 13.0083C16.1034 13.2575 15.9678 13.5375 15.8317 13.8367C15.2761 15.093 14.9829 16.4218 15.0383 17.4767C15.072 18.1195 15.2321 18.5722 15.4583 18.865C15.6627 19.1296 15.9765 19.3479 16.5433 19.4017C16.9833 19.4435 17.4572 19.2534 18.0017 18.6784C18.5543 18.0947 19.0641 17.2219 19.565 16.205C19.9097 15.5051 20.2175 14.7923 20.5217 14.0934C20.6603 13.7745 20.8032 13.4578 20.9417 13.1483C21.3495 12.2367 21.8097 11.2773 22.3417 10.71C22.7164 10.3104 23.3359 10.2837 23.7417 10.6517C24.1474 11.0196 24.1848 11.6515 23.8233 12.0633C23.5956 12.3228 23.3625 12.8146 23.1933 13.5217C23.0291 14.2084 22.9475 15.0022 22.9833 15.7734C23.0195 16.5511 23.1697 17.2506 23.4033 17.7684C23.639 18.2903 23.8308 18.5352 24.15 18.6084C25.0439 18.813 26.3086 17.4858 26.775 16.8934C27.3898 16.1125 28 14.9875 28 13.4633C27.7177 5.98012 21.555 0 14 0Z" fill="black"/>
</g>
<defs>
<clipPath id="clip0_40000029_7182">
<rect width="28" height="28" fill="white"/>
</clipPath>
</defs>
</svg>
