<svg width="16" height="16" viewBox="0 0 16 16" fill="none" xmlns="http://www.w3.org/2000/svg">
<path fill-rule="evenodd" clip-rule="evenodd" d="M2 2H14V14H2V2ZM1 2C1 1.44772 1.44772 1 2 1H14C14.5523 1 15 1.44772 15 2V14C15 14.5523 14.5523 15 14 15H2C1.44772 15 1 14.5523 1 14V2ZM7.5 13.5H8.5V11.5H10C10.2761 11.5 10.5 11.2761 10.5 11V10C10.5 9.72386 10.2761 9.5 10 9.5H8.5L8.5 6.5H11.5C11.7761 6.5 12 6.27614 12 6V5C12 4.72386 11.7761 4.5 11.5 4.5H8.5V2.5H7.5V4.5H4.5C4.22386 4.5 4 4.72386 4 5V6C4 6.27614 4.22386 6.5 4.5 6.5H7.5L7.5 9.5H6C5.72386 9.5 5.5 9.72386 5.5 10V11C5.5 11.2761 5.72386 11.5 6 11.5H7.5V13.5Z" fill="black"/>
</svg>
