<svg width="32" height="32" viewBox="0 0 32 32" fill="none" xmlns="http://www.w3.org/2000/svg">
<path d="M15.5 9.2C15.5 9.08954 15.5895 9 15.7 9H16.3C16.4105 9 16.5 9.08954 16.5 9.2V12H22.5C22.7761 12 23 12.2239 23 12.5V14.5C23 14.7761 22.7761 15 22.5 15H16.5V17.5H20.5C20.7761 17.5 21 17.7239 21 18V20C21 20.2761 20.7761 20.5 20.5 20.5H16.5V22.8C16.5 22.9105 16.4105 23 16.3 23H15.7C15.5895 23 15.5 22.9105 15.5 22.8V20.5H11.5C11.2239 20.5 11 20.2761 11 20V18C11 17.7239 11.2239 17.5 11.5 17.5H15.5V15H9.5C9.22386 15 9 14.7761 9 14.5V12.5C9 12.2239 9.22386 12 9.5 12H15.5V9.2Z" fill="black" fill-opacity="0.9"/>
</svg>
