<svg width="16" height="16" viewBox="0 0 16 16" fill="none" xmlns="http://www.w3.org/2000/svg">
<path fill-rule="evenodd" clip-rule="evenodd" d="M2 2H14V14H2V2ZM1 2C1 1.44772 1.44772 1 2 1H14C14.5523 1 15 1.44772 15 2V14C15 14.5523 14.5523 15 14 15H2C1.44772 15 1 14.5523 1 14V2ZM6 4C6.27614 4 6.5 4.22386 6.5 4.5L6.5 11.5C6.5 11.7761 6.27614 12 6 12H5C4.72386 12 4.5 11.7761 4.5 11.5L4.5 4.5C4.5 4.22386 4.72386 4 5 4H6ZM11.5 11.5C11.5 11.7761 11.2761 12 11 12H10C9.72386 12 9.5 11.7761 9.5 11.5V7.5C9.5 7.22386 9.72386 7 10 7H11C11.2761 7 11.5 7.22386 11.5 7.5V11.5Z" fill="black"/>
</svg>
