<svg width="32" height="32" viewBox="0 0 32 32" fill="none" xmlns="http://www.w3.org/2000/svg">
<path d="M22.7957 23C22.9062 23 22.9957 22.9105 22.9957 22.8L22.9957 9.2C22.9957 9.08954 22.9062 9 22.7957 9L22.1957 9C22.0853 9 21.9957 9.08954 21.9957 9.2L21.9957 22.8C21.9957 22.9105 22.0853 23 22.1957 23L22.7957 23Z" fill="black"/>
<path d="M17.4986 12.0648C17.7748 12.0648 17.9986 12.2887 17.9986 12.5648L17.9986 19.5648C17.9986 19.841 17.7748 20.0648 17.4986 20.0648L14.4986 20.0648C14.2225 20.0648 13.9986 19.841 13.9986 19.5648L13.9986 12.5648C13.9986 12.2887 14.2225 12.0648 14.4986 12.0648L17.4986 12.0648Z" fill="black"/>
<path d="M10.0001 22.8C10.0001 22.9105 9.91051 23 9.80005 23L9.20005 23C9.0896 23 9.00005 22.9105 9.00005 22.8L9.00005 9.2C9.00005 9.08954 9.0896 9 9.20005 9L9.80005 9C9.91051 9 10.0001 9.08954 10.0001 9.2L10.0001 22.8Z" fill="black"/>
</svg>
