<svg width="32" height="32" viewBox="0 0 32 32" fill="none" xmlns="http://www.w3.org/2000/svg">
<path d="M9.2 9C9.08954 9 9 9.08954 9 9.2V22.8C9 22.9105 9.08954 23 9.2 23H9.8C9.91046 23 10 22.9105 10 22.8V9.2C10 9.08954 9.91046 9 9.8 9H9.2Z" fill="black" fill-opacity="0.9"/>
<path d="M12 12.5C12 12.2239 12.2239 12 12.5 12H22.5C22.7761 12 23 12.2239 23 12.5V14.5C23 14.7761 22.7761 15 22.5 15H12.5C12.2239 15 12 14.7761 12 14.5V12.5Z" fill="black" fill-opacity="0.9"/>
<path d="M12 17.5C12 17.2239 12.2239 17 12.5 17H17.5C17.7761 17 18 17.2239 18 17.5V19.5C18 19.7761 17.7761 20 17.5 20H12.5C12.2239 20 12 19.7761 12 19.5V17.5Z" fill="black" fill-opacity="0.9"/>
</svg>
