<svg width="32" height="32" viewBox="0 0 32 32" fill="none" xmlns="http://www.w3.org/2000/svg">
<path d="M9 10.05C9 10.1605 9.08954 10.25 9.2 10.25L22.8 10.25C22.9105 10.25 23 10.1605 23 10.05V9.45C23 9.33954 22.9105 9.25 22.8 9.25H9.2C9.08954 9.25 9 9.33954 9 9.45V10.05Z" fill="black" fill-opacity="0.9"/>
<path d="M12 22.75C11.7239 22.75 11.5 22.5261 11.5 22.25L11.5 12.25C11.5 11.9739 11.7239 11.75 12 11.75H14C14.2761 11.75 14.5 11.9739 14.5 12.25L14.5 22.25C14.5 22.5261 14.2761 22.75 14 22.75H12Z" fill="black" fill-opacity="0.9"/>
<path d="M18 17.75C17.7239 17.75 17.5 17.5261 17.5 17.25V12.25C17.5 11.9739 17.7239 11.75 18 11.75H20C20.2761 11.75 20.5 11.9739 20.5 12.25V17.25C20.5 17.5261 20.2761 17.75 20 17.75H18Z" fill="black" fill-opacity="0.9"/>
</svg>
