<svg width="16" height="16" viewBox="0 0 16 16" fill="none" xmlns="http://www.w3.org/2000/svg">
<path fill-rule="evenodd" clip-rule="evenodd" d="M1 3C1 2.17157 1.67157 1.5 2.5 1.5H13.4973C14.3258 1.5 14.9973 2.17157 14.9973 3V7.99996V12.8999C14.9973 13.7284 14.3258 14.3999 13.4974 14.3999L5.86282 14.4H2.5C1.67157 14.4 1 13.7284 1 12.9V8.00004V3ZM2.5 2.5C2.22386 2.5 2 2.72386 2 3V7.50004H5.86281L13.9973 7.49996V3C13.9973 2.72386 13.7735 2.5 13.4973 2.5H2.5ZM13.9973 8.49996L6.36281 8.50004V13.4L13.4974 13.3999C13.7735 13.3999 13.9973 13.1761 13.9973 12.8999V8.49996ZM5.36281 13.4V8.50004H2V12.9C2 13.1762 2.22386 13.4 2.5 13.4H5.36281Z" fill="black"/>
</svg>
