<svg width="16" height="16" viewBox="0 0 16 16" fill="none" xmlns="http://www.w3.org/2000/svg">
<path d="M15 1.2C15 1.08954 14.9105 1 14.8 1H1.2C1.08954 1 1 1.08954 1 1.2V1.8C1 1.91046 1.08954 2 1.2 2L14.8 2C14.9105 2 15 1.91046 15 1.8V1.2Z" fill="black"/>
<path d="M4.06482 6.49708C4.06482 6.22094 4.28868 5.99708 4.56482 5.99708H11.5648C11.841 5.99708 12.0648 6.22094 12.0648 6.49708V9.49708C12.0648 9.77322 11.841 9.99708 11.5648 9.99708H4.56482C4.28867 9.99708 4.06482 9.77322 4.06482 9.49708V6.49708Z" fill="black"/>
<path d="M14.8 13.9957C14.9105 13.9957 15 14.0852 15 14.1957V14.7957C15 14.9061 14.9105 14.9957 14.8 14.9957L1.2 14.9957C1.08954 14.9957 1 14.9061 1 14.7957V14.1957C1 14.0852 1.08954 13.9957 1.2 13.9957L14.8 13.9957Z" fill="black"/>
</svg>
