<svg width="16" height="16" viewBox="0 0 16 16" fill="none" xmlns="http://www.w3.org/2000/svg">
<path fill-rule="evenodd" clip-rule="evenodd" d="M14 2H2V14H14V2ZM2 1H1V2V14V15H2H14H15V14V2V1H14H2ZM6.5 11.5C6.5 11.7761 6.27614 12 6 12H5C4.72386 12 4.5 11.7761 4.5 11.5V8.5H2.5L2.5 7.5H4.5V4.5C4.5 4.22386 4.72386 4 5 4H6C6.27614 4 6.5 4.22386 6.5 4.5V7.5H9.5V6C9.5 5.72386 9.72386 5.5 10 5.5H11C11.2761 5.5 11.5 5.72386 11.5 6V7.5H13.5V8.5H11.5V10C11.5 10.2761 11.2761 10.5 11 10.5H10C9.72386 10.5 9.5 10.2761 9.5 10V8.5H6.5V11.5Z" fill="black"/>
</svg>
