<svg width="16" height="16" viewBox="0 0 16 16" fill="none" xmlns="http://www.w3.org/2000/svg">
<path d="M1 2C1 1.72386 1.22386 1.5 1.5 1.5H4C4.55228 1.5 5 1.94772 5 2.5V13.5C5 14.0522 4.55231 14.5 4 14.5H1.5C1.22386 14.5 1 14.2761 1 14C1 13.7239 1.22386 13.5 1.5 13.5H4V2.5H1.5C1.22386 2.5 1 2.27614 1 2Z" fill="black"/>
<path d="M11 2.5C11 1.94769 11.4478 1.5 12 1.5H14.5C14.7761 1.5 15 1.72386 15 2C15 2.27614 14.7761 2.5 14.5 2.5H12V13.5H14.5C14.7761 13.5 15 13.7239 15 14C15 14.2761 14.7761 14.5 14.5 14.5H12C11.4478 14.5 11 14.0522 11 13.5V2.5Z" fill="black"/>
<path d="M8 5C7.72386 5 7.5 5.22386 7.5 5.5V10.5C7.5 10.7761 7.72386 11 8 11C8.27614 11 8.5 10.7761 8.5 10.5V5.5C8.5 5.22386 8.27614 5 8 5Z" fill="black"/>
</svg>
