<svg width="16" height="16" viewBox="0 0 16 16" fill="none" xmlns="http://www.w3.org/2000/svg">
<path d="M14.5 1.5C14.5 1.22386 14.2761 1 14 1C13.7239 1 13.5 1.22386 13.5 1.5V4L2.5 4V1.5C2.5 1.22386 2.27614 1 2 1C1.72386 1 1.5 1.22386 1.5 1.5L1.5 4C1.5 4.55231 1.94778 5 2.5 5L13.5 5C14.0523 5 14.5 4.55228 14.5 4V1.5Z" fill="black"/>
<path d="M14.5 12C14.5 11.4478 14.0523 11 13.5 11L2.5 11C1.94776 11 1.5 11.4478 1.5 12L1.5 14.5C1.5 14.7761 1.72386 15 2 15C2.27614 15 2.5 14.7761 2.5 14.5V12L13.5 12V14.5C13.5 14.7761 13.7239 15 14 15C14.2761 15 14.5 14.7761 14.5 14.5V12Z" fill="black"/>
<path d="M11 8C11 7.72386 10.7761 7.5 10.5 7.5L5.5 7.5C5.22386 7.5 5 7.72386 5 8C5 8.27614 5.22386 8.5 5.5 8.5H10.5C10.7761 8.5 11 8.27614 11 8Z" fill="black"/>
</svg>
