<svg width="16" height="16" viewBox="0 0 16 16" fill="none" xmlns="http://www.w3.org/2000/svg">
<path fill-rule="evenodd" clip-rule="evenodd" d="M14.5 1.5C14.5 1.77614 14.2761 2 14 2L2 2C1.72386 2 1.5 1.77614 1.5 1.5C1.5 1.22386 1.72386 0.999999 2 0.999999L14 1C14.2761 1 14.5 1.22386 14.5 1.5ZM14.5 14.5C14.5 14.7761 14.2761 15 14 15L2 15C1.72386 15 1.5 14.7761 1.5 14.5C1.5 14.2239 1.72386 14 2 14L14 14C14.2761 14 14.5 14.2239 14.5 14.5ZM11 5L11 11L5 11L5 5L11 5ZM11 4C11.5523 4 12 4.44772 12 5L12 11C12 11.5523 11.5523 12 11 12L5 12C4.44772 12 4 11.5523 4 11L4 5C4 4.44772 4.44772 4 5 4L11 4Z" fill="black" fill-opacity="0.9"/>
</svg>
