<svg width="28" height="28" viewBox="0 0 28 28" fill="none" xmlns="http://www.w3.org/2000/svg">
<path d="M11.7433 12.7576V19.7276C11.7433 20.2799 12.191 20.7276 12.7433 20.7276H19.7138C20.2661 20.7276 20.7138 20.2799 20.7138 19.7276V12.7576C20.7138 12.2053 20.2661 11.7576 19.7138 11.7576H12.7433C12.191 11.7576 11.7433 12.2053 11.7433 12.7576Z" fill="black"/>
<path d="M7.28625 8.27258V15.2426C7.28625 15.7949 7.73397 16.2426 8.28625 16.2426H15.2568C15.809 16.2426 16.2568 15.7949 16.2568 15.2426V8.27258C16.2568 7.7203 15.809 7.27258 15.2568 7.27258H8.28625C7.73397 7.27258 7.28625 7.7203 7.28625 8.27258Z" fill="black"/>
</svg>
