<svg width="16" height="16" viewBox="0 0 16 16" fill="none" xmlns="http://www.w3.org/2000/svg">
<path fill-rule="evenodd" clip-rule="evenodd" d="M5.08412 7.99996C5.08412 6.38946 6.38969 5.08389 8.00019 5.08389C9.61069 5.08389 10.9163 6.38946 10.9163 7.99996C10.9163 9.61046 9.61069 10.916 8.00019 10.916C6.38969 10.916 5.08412 9.61046 5.08412 7.99996ZM8.00019 9.86757C6.96875 9.86757 6.13259 9.03141 6.13259 7.99996C6.13259 6.96852 6.96875 6.13236 8.00019 6.13236C9.03164 6.13236 9.8678 6.96852 9.8678 7.99996C9.8678 9.03141 9.03164 9.86757 8.00019 9.86757Z" fill="black"/>
<path fill-rule="evenodd" clip-rule="evenodd" d="M1.09009 7.99996C1.09009 4.18368 4.1838 1.08997 8.00009 1.08997C11.8164 1.08997 14.9101 4.18368 14.9101 7.99996C14.9101 11.8162 11.8164 14.91 8.00009 14.91H1.09009V7.99996ZM8.00009 13.8615H2.13855V7.99996C2.13855 4.76273 4.76285 2.13843 8.00009 2.13843C11.2373 2.13843 13.8616 4.76273 13.8616 7.99996C13.8616 11.2372 11.2373 13.8615 8.00009 13.8615Z" fill="black"/>
</svg>
