<svg width="28" height="28" viewBox="0 0 28 28" fill="none" xmlns="http://www.w3.org/2000/svg">
<path fill-rule="evenodd" clip-rule="evenodd" d="M15.6066 11.8786C16.7782 13.0502 16.7782 14.9496 15.6066 16.1212C14.435 17.2928 12.5355 17.2928 11.364 16.1212C10.1924 14.9496 10.1924 13.0502 11.364 11.8786C12.5355 10.707 14.435 10.707 15.6066 11.8786ZM14.7581 12.7271C15.461 13.4301 15.461 14.5697 14.7581 15.2727C14.0551 15.9756 12.9154 15.9756 12.2125 15.2727C11.5096 14.5697 11.5096 13.4301 12.2125 12.7271C12.9154 12.0242 14.0551 12.0242 14.7581 12.7271Z" fill="black"/>
<path fill-rule="evenodd" clip-rule="evenodd" d="M5.70708 14.7071C5.31655 14.3166 5.31655 13.6834 5.70708 13.2929L12.7781 6.22185C13.1687 5.83132 13.8018 5.83132 14.1924 6.22185L21.2634 13.2929C21.654 13.6834 21.654 14.3166 21.2634 14.7071L14.1924 21.7782C13.8018 22.1687 13.1687 22.1687 12.7781 21.7782L5.70708 14.7071ZM13.4853 20.7882L6.69703 14L13.4853 7.2118L20.2735 14L13.4853 20.7882Z" fill="black"/>
</svg>
