<svg width="28" height="28" viewBox="0 0 28 28" fill="none" xmlns="http://www.w3.org/2000/svg">
<path fill-rule="evenodd" clip-rule="evenodd" d="M19.5215 11.0353C20.9022 11.0353 22.0215 9.91599 22.0215 8.53528C22.0215 7.15457 20.9022 6.03528 19.5215 6.03528C18.3641 6.03528 17.3904 6.82175 17.1057 7.88941V7.88535H16.5864C11.8368 7.88535 7.98643 11.7357 7.98643 16.4854V17.0297C6.84599 17.2618 5.98779 18.2704 5.98779 19.4794C5.98779 20.8601 7.10708 21.9794 8.48779 21.9794C9.86851 21.9794 10.9878 20.8601 10.9878 19.4794C10.9878 18.3411 10.2271 17.3806 9.18643 17.0783V16.4854C9.18643 12.3984 12.4995 9.08535 16.5864 9.08535H17.0822C17.3328 10.2014 18.3298 11.0353 19.5215 11.0353ZM19.5215 9.83528C20.2395 9.83528 20.8215 9.25325 20.8215 8.53528C20.8215 7.81731 20.2395 7.23528 19.5215 7.23528C18.8035 7.23528 18.2215 7.81731 18.2215 8.53528C18.2215 9.25325 18.8035 9.83528 19.5215 9.83528ZM8.48779 20.7794C9.20576 20.7794 9.78779 20.1973 9.78779 19.4794C9.78779 18.7614 9.20576 18.1794 8.48779 18.1794C7.76982 18.1794 7.18779 18.7614 7.18779 19.4794C7.18779 20.1973 7.76982 20.7794 8.48779 20.7794Z" fill="black"/>
</svg>
