<svg width="16" height="16" viewBox="0 0 16 16" fill="none" xmlns="http://www.w3.org/2000/svg">
<path fill-rule="evenodd" clip-rule="evenodd" d="M1.5 13.5C1.5 13.7761 1.72386 14 2 14C2.27614 14 2.5 13.7761 2.5 13.5L2.5 2.5C2.5 2.22386 2.27614 2 2 2C1.72386 2 1.5 2.22386 1.5 2.5L1.5 13.5ZM13.5 13.5C13.5 13.7761 13.7239 14 14 14C14.2761 14 14.5 13.7761 14.5 13.5L14.5 2.5C14.5 2.22386 14.2761 2 14 2C13.7239 2 13.5 2.22386 13.5 2.5L13.5 13.5Z" fill="black" fill-opacity="0.9"/>
<path d="M5.55273 11.5L3.63867 4.5H4.5L5.96289 10.2012H6.03125L7.52148 4.5H8.47852L9.96875 10.2012H10.0371L11.5 4.5H12.3613L10.4473 11.5H9.57227L8.02734 5.92187H7.97266L6.42773 11.5H5.55273Z" fill="black"/>
</svg>
