<svg width="16" height="16" viewBox="0 0 16 16" fill="none" xmlns="http://www.w3.org/2000/svg">
<path fill-rule="evenodd" clip-rule="evenodd" d="M5.23592 13.3261C5.11372 13.2246 4.99805 13.1155 4.89001 12.9991C4.0934 12.1412 3.74042 10.9151 4.21263 9.49838L4.21728 9.48445L4.22273 9.47082C4.92881 7.70546 6.81996 3.57225 7.383 2.3468C7.62548 1.81906 8.3744 1.81905 8.61689 2.34679C9.17995 3.57224 11.0712 7.70546 11.7773 9.47081L11.7868 9.49455L11.7938 9.51913C12.2029 10.9511 11.9793 12.0958 11.3258 12.9125C10.6007 13.8719 9.30025 14.3105 7.9999 14.3105C6.98829 14.3105 5.97667 13.9566 5.23592 13.3261ZM5.59856 8.77047C6.3123 7.10601 7.39245 4.72854 7.99995 3.40064C8.60749 4.72853 9.68769 7.10601 10.4015 8.77047H5.59856Z" fill="black"/>
</svg>
