<svg width="16" height="16" viewBox="0 0 16 16" fill="none" xmlns="http://www.w3.org/2000/svg">
<path fill-rule="evenodd" clip-rule="evenodd" d="M2.39404 13.4999C2.1179 13.4999 1.89404 13.7238 1.89404 13.9999C1.89404 14.2761 2.1179 14.4999 2.39404 14.4999L13.394 14.4999C13.6702 14.4999 13.894 14.2761 13.894 13.9999C13.894 13.7238 13.6702 13.4999 13.394 13.4999L2.39404 13.4999ZM2.39404 1.49994C2.1179 1.49994 1.89404 1.72379 1.89404 1.99994C1.89404 2.27608 2.1179 2.49994 2.39404 2.49994L13.394 2.49994C13.6702 2.49994 13.894 2.27608 13.894 1.99994C13.894 1.7238 13.6702 1.49994 13.394 1.49994L2.39404 1.49994Z" fill="black" fill-opacity="0.9"/>
<path d="M5.25 11.9999V3.99994H6.10894V7.56244H9.89106V3.99994H10.75V11.9999H9.89106V8.42181H6.10894V11.9999H5.25Z" fill="black"/>
</svg>
