<svg width="16" height="16" viewBox="0 0 16 16" fill="none" xmlns="http://www.w3.org/2000/svg">
<path fill-rule="evenodd" clip-rule="evenodd" d="M8.45011 1.06664C8.45011 0.81811 8.24864 0.616638 8.00011 0.616638C7.75158 0.616638 7.55011 0.81811 7.55011 1.06664L7.55011 4.7805L6.18497 3.41537C6.00924 3.23963 5.72431 3.23963 5.54858 3.41537C5.37284 3.5911 5.37284 3.87603 5.54858 4.05176L7.68191 6.1851C7.85765 6.36083 8.14257 6.36083 8.31831 6.1851L10.4516 4.05176C10.6274 3.87603 10.6274 3.5911 10.4516 3.41537C10.2759 3.23963 9.99098 3.23963 9.81525 3.41537L8.45011 4.7805L8.45011 1.06664ZM8.31831 9.81537C8.23392 9.73098 8.11946 9.68357 8.00011 9.68357C7.88076 9.68357 7.7663 9.73098 7.68191 9.81537L5.54858 11.9487C5.37284 12.1244 5.37284 12.4094 5.54858 12.5851C5.72431 12.7608 6.00924 12.7608 6.18497 12.5851L7.55011 11.22L7.55011 14.9333C7.55011 15.1818 7.75158 15.3833 8.00011 15.3833C8.24864 15.3833 8.45011 15.1818 8.45011 14.9333V11.22L9.81524 12.5851C9.99098 12.7608 10.2759 12.7608 10.4516 12.5851C10.6274 12.4094 10.6274 12.1244 10.4516 11.9487L8.31831 9.81537ZM1.59991 7.50017C1.32377 7.50017 1.09991 7.72402 1.09991 8.00017C1.09991 8.27631 1.32377 8.50017 1.59991 8.50017L14.3999 8.50017C14.6761 8.50017 14.8999 8.27631 14.8999 8.00017C14.8999 7.72402 14.6761 7.50017 14.3999 7.50017L1.59991 7.50017Z" fill="black"/>
</svg>
