<svg width="16" height="16" viewBox="0 0 16 16" fill="none" xmlns="http://www.w3.org/2000/svg">
<path fill-rule="evenodd" clip-rule="evenodd" d="M2.5 8C2.5 4.96243 4.96243 2.5 8 2.5C11.0376 2.5 13.5 4.96243 13.5 8C13.5 11.0376 11.0376 13.5 8 13.5C4.96243 13.5 2.5 11.0376 2.5 8ZM1.5 8C1.5 4.41015 4.41015 1.5 8 1.5C11.5899 1.5 14.5 4.41015 14.5 8C14.5 11.5899 11.5899 14.5 8 14.5C4.41015 14.5 1.5 11.5899 1.5 8ZM6.36276 12.1929L6.62368 11.2192C7.89967 11.7642 9.43364 11.5162 10.4748 10.475C11.5163 9.43348 11.7642 7.89893 11.2185 6.62271L12.1923 6.36178C12.8219 7.97531 12.4851 9.8789 11.1819 11.1821C9.87906 12.4849 7.97605 12.8219 6.36276 12.1929Z" fill="black"/>
</svg>
