<svg width="16" height="16" viewBox="0 0 16 16" fill="none" xmlns="http://www.w3.org/2000/svg">
<path fill-rule="evenodd" clip-rule="evenodd" d="M13.5 8C13.5 4.96243 11.0376 2.5 8 2.5C4.96243 2.5 2.5 4.96243 2.5 8C2.5 11.0376 4.96243 13.5 8 13.5C11.0376 13.5 13.5 11.0376 13.5 8ZM14.5 8C14.5 4.41015 11.5898 1.5 8 1.5C4.41015 1.5 1.5 4.41015 1.5 8C1.5 11.5899 4.41015 14.5 8 14.5C11.5898 14.5 14.5 11.5899 14.5 8ZM9.63724 12.1928L9.37632 11.219C8.10033 11.7641 6.56636 11.516 5.52517 10.4748C4.48368 9.43336 4.23578 7.8988 4.78146 6.62259L3.80765 6.36166C3.17809 7.97519 3.51489 9.87878 4.81806 11.182C6.12093 12.4848 8.02395 12.8218 9.63724 12.1928Z" fill="black"/>
</svg>
