<svg width="16" height="16" viewBox="0 0 16 16" fill="none" xmlns="http://www.w3.org/2000/svg">
<path fill-rule="evenodd" clip-rule="evenodd" d="M2.5 8C2.5 4.96243 4.96243 2.5 8 2.5C11.0376 2.5 13.5 4.96243 13.5 8C13.5 11.0376 11.0376 13.5 8 13.5C4.96243 13.5 2.5 11.0376 2.5 8ZM1.5 8C1.5 4.41015 4.41015 1.5 8 1.5C11.5899 1.5 14.5 4.41015 14.5 8C14.5 11.5899 11.5898 14.5 8 14.5C4.41015 14.5 1.5 11.5899 1.5 8ZM3.87754 9.8071L4.75059 9.30305C5.26745 10.5907 6.52753 11.5 7.99999 11.5C9.47288 11.5 10.7333 10.5902 11.2498 9.30193L12.1229 9.806C11.4272 11.3921 9.84295 12.5 7.99999 12.5C6.15745 12.5 4.57356 11.3926 3.87754 9.8071Z" fill="black"/>
</svg>
