<svg width="16" height="16" viewBox="0 0 16 16" fill="none" xmlns="http://www.w3.org/2000/svg">
<path fill-rule="evenodd" clip-rule="evenodd" d="M13.5 8C13.5 11.0376 11.0376 13.5 8 13.5C4.96243 13.5 2.5 11.0376 2.5 8C2.5 4.96243 4.96243 2.5 8 2.5C11.0376 2.5 13.5 4.96243 13.5 8ZM14.5 8C14.5 11.5899 11.5899 14.5 8 14.5C4.41015 14.5 1.5 11.5899 1.5 8C1.5 4.41015 4.41015 1.5 8 1.5C11.5899 1.5 14.5 4.41015 14.5 8ZM12.1225 6.1929L11.2494 6.69695C10.7326 5.40927 9.47247 4.5 8.00001 4.5C6.52712 4.5 5.26673 5.4098 4.75016 6.69807L3.87708 6.194C4.57284 4.60789 6.15704 3.5 8.00001 3.5C9.84255 3.5 11.4264 4.60738 12.1225 6.1929Z" fill="black"/>
</svg>
