<svg width="16" height="16" viewBox="0 0 16 16" fill="none" xmlns="http://www.w3.org/2000/svg">
<path fill-rule="evenodd" clip-rule="evenodd" d="M8 2.5C11.0376 2.5 13.5 4.96243 13.5 8C13.5 11.0376 11.0376 13.5 8 13.5C4.96243 13.5 2.5 11.0376 2.5 8C2.5 4.96243 4.96243 2.5 8 2.5ZM8 1.5C11.5899 1.5 14.5 4.41015 14.5 8C14.5 11.5899 11.5899 14.5 8 14.5C4.41015 14.5 1.5 11.5899 1.5 8C1.5 4.41015 4.41015 1.5 8 1.5ZM6.1929 3.87754L6.69695 4.75059C5.40927 5.26745 4.5 6.52753 4.5 7.99999C4.5 9.47288 5.4098 10.7333 6.69807 11.2498L6.194 12.1229C4.60789 11.4272 3.5 9.84295 3.5 7.99999C3.5 6.15745 4.60738 4.57356 6.1929 3.87754Z" fill="black"/>
</svg>
