<svg width="16" height="16" viewBox="0 0 16 16" fill="none" xmlns="http://www.w3.org/2000/svg">
<path fill-rule="evenodd" clip-rule="evenodd" d="M11.4396 3.56769C11.6465 3.56748 11.8322 3.6947 11.9066 3.88772L14.9663 11.8185C15.0657 12.0761 14.9374 12.3656 14.6798 12.465C14.4222 12.5644 14.1327 12.4361 14.0333 12.1784L13.0358 9.59278H9.85715L8.86609 12.1775C8.76722 12.4353 8.47806 12.5642 8.22022 12.4653C7.96238 12.3665 7.83351 12.0773 7.93237 11.8195L10.9733 3.88868C11.0474 3.69551 11.2328 3.5679 11.4396 3.56769ZM11.4416 5.46053L12.7079 8.74278H10.1831L11.4416 5.46053ZM3.79025 5.95838C2.22624 5.95838 1.03564 7.36787 1.03564 9.20189C1.03564 11.1312 2.32156 12.4454 3.79025 12.4454C4.56436 12.4454 5.36683 12.1264 5.91905 11.5244V11.9856C5.91905 12.2341 6.12053 12.4356 6.36905 12.4356C6.61758 12.4356 6.81905 12.2341 6.81905 11.9856V6.44738C6.81905 6.19885 6.61758 5.99738 6.36905 5.99738C6.12053 5.99738 5.91905 6.19885 5.91905 6.44738V6.90343C5.39627 6.32395 4.63054 5.95838 3.79025 5.95838ZM5.91905 10.3723V7.91745C5.53905 7.24984 4.76894 6.76911 3.96926 6.76911C3.0371 6.76911 2.01352 7.63487 2.01352 9.20171C2.01352 10.6732 2.94178 11.6343 3.96926 11.6343C4.79545 11.6343 5.54682 11.0229 5.91905 10.3723Z" fill="black"/>
</svg>
