<svg width="16" height="16" viewBox="0 0 16 16" fill="none" xmlns="http://www.w3.org/2000/svg">
<path fill-rule="evenodd" clip-rule="evenodd" d="M4.27741 3.92401C4.48669 3.92401 4.67383 4.05435 4.7464 4.25065L7.50475 11.7126C7.6005 11.9716 7.46814 12.2592 7.20913 12.355C6.95012 12.4507 6.66253 12.3184 6.56678 12.0594L5.67226 9.63946H2.88256L1.98804 12.0594C1.8923 12.3184 1.60471 12.4507 1.34569 12.355C1.08668 12.2592 0.954328 11.9716 1.05007 11.7126L3.80843 4.25065C3.88099 4.05435 4.06813 3.92401 4.27741 3.92401ZM4.27741 5.86608L5.35806 8.78946H3.19677L4.27741 5.86608ZM11.7415 3.92401C11.9508 3.92401 12.1379 4.05435 12.2105 4.25065L14.9688 11.7126C15.0646 11.9716 14.9322 12.2592 14.6732 12.355C14.4142 12.4507 14.1266 12.3184 14.0309 12.0593L13.1364 9.63946H10.3467L9.45214 12.0593C9.35639 12.3184 9.0688 12.4507 8.80979 12.355C8.55078 12.2592 8.41842 11.9716 8.51417 11.7126L11.2725 4.25065C11.3451 4.05435 11.5322 3.92401 11.7415 3.92401ZM11.7415 5.86608L12.8222 8.78946H10.6609L11.7415 5.86608Z" fill="black"/>
</svg>
