<svg width="16" height="16" viewBox="0 0 16 16" fill="none" xmlns="http://www.w3.org/2000/svg">
<path fill-rule="evenodd" clip-rule="evenodd" d="M5.29995 2.84003C5.29995 2.56388 5.07609 2.34003 4.79995 2.34003C4.52381 2.34003 4.29995 2.56388 4.29995 2.84003V7.60002H2.49998C2.27906 7.60002 2.09998 7.77911 2.09998 8.00002C2.09998 8.22094 2.27906 8.40002 2.49998 8.40002H4.29995V9.96002C4.29995 12.0035 5.9565 13.66 7.99995 13.66C10.0434 13.66 11.7 12.0035 11.7 9.96003V8.40002H13.5C13.7209 8.40002 13.9 8.22094 13.9 8.00002C13.9 7.77911 13.7209 7.60002 13.5 7.60002H11.7V2.84003C11.7 2.56388 11.4761 2.34003 11.2 2.34003C10.9238 2.34003 10.7 2.56388 10.7 2.84003V7.60002H5.29995V2.84003ZM5.29995 8.40002V9.96002C5.29995 11.4512 6.50878 12.66 7.99995 12.66C9.49112 12.66 10.7 11.4512 10.7 9.96003V8.40002H5.29995Z" fill="black"/>
</svg>
