<svg width="16" height="16" viewBox="0 0 16 16" fill="none" xmlns="http://www.w3.org/2000/svg">
<path d="M5.15668 2.6375C5.15668 2.56156 5.21824 2.5 5.29418 2.5H5.84418C5.92012 2.5 5.98168 2.56156 5.98168 2.6375V13.3625C5.98168 13.4384 5.92012 13.5 5.84418 13.5H5.29418C5.21824 13.5 5.15668 13.4384 5.15668 13.3625V2.6375Z" fill="black" fill-opacity="0.9"/>
<path d="M10.0183 2.6375C10.0183 2.56156 10.0798 2.5 10.1558 2.5H10.7058C10.7817 2.5 10.8433 2.56156 10.8433 2.6375V13.3625C10.8433 13.4384 10.7817 13.5 10.7058 13.5H10.1558C10.0798 13.5 10.0183 13.4384 10.0183 13.3625V2.6375Z" fill="black" fill-opacity="0.9"/>
<path d="M13.3625 5.15668C13.4384 5.15668 13.5 5.21824 13.5 5.29418V5.84418C13.5 5.92012 13.4384 5.98168 13.3625 5.98168L2.6375 5.98168C2.56156 5.98168 2.5 5.92012 2.5 5.84418L2.5 5.29418C2.5 5.21824 2.56156 5.15668 2.6375 5.15668L13.3625 5.15668Z" fill="black" fill-opacity="0.9"/>
<path d="M13.3625 10.0184C13.4384 10.0184 13.5 10.0799 13.5 10.1559V10.7059C13.5 10.7818 13.4384 10.8434 13.3625 10.8434H2.6375C2.56156 10.8434 2.5 10.7818 2.5 10.7059L2.5 10.1559C2.5 10.0799 2.56156 10.0184 2.6375 10.0184L13.3625 10.0184Z" fill="black" fill-opacity="0.9"/>
</svg>
