<svg width="16" height="16" viewBox="0 0 16 16" fill="none" xmlns="http://www.w3.org/2000/svg">
<path d="M4.9468 1.58667C4.9468 1.5388 4.9856 1.5 5.03347 1.5H5.90013C5.948 1.5 5.9868 1.5388 5.9868 1.58667V14.4133C5.9868 14.4612 5.948 14.5 5.90013 14.5H5.03347C4.9856 14.5 4.9468 14.4612 4.9468 14.4133V1.58667Z" fill="black"/>
<path d="M10.0131 1.58667C10.0131 1.5388 10.0519 1.5 10.0997 1.5H10.9664C11.0143 1.5 11.0531 1.5388 11.0531 1.58667V14.4133C11.0531 14.4612 11.0143 14.5 10.9664 14.5H10.0997C10.0519 14.5 10.0131 14.4612 10.0131 14.4133V1.58667Z" fill="black"/>
<path d="M1.58661 5.8912C1.53874 5.8912 1.49994 5.8524 1.49994 5.80453L1.49994 4.93787C1.49994 4.89 1.53874 4.8512 1.58661 4.8512L14.4133 4.8512C14.4611 4.8512 14.4999 4.89 14.4999 4.93787V5.80453C14.4999 5.8524 14.4611 5.8912 14.4133 5.8912H1.58661Z" fill="black"/>
<path d="M1.58661 10.9752C1.53874 10.9752 1.49994 10.9364 1.49994 10.8886L1.49994 10.0219C1.49994 9.97405 1.53874 9.93525 1.58661 9.93525L14.4133 9.93525C14.4611 9.93525 14.4999 9.97405 14.4999 10.0219V10.8886C14.4999 10.9364 14.4611 10.9752 14.4133 10.9752H1.58661Z" fill="black"/>
</svg>
