<svg width="28" height="28" viewBox="0 0 28 28" fill="none" xmlns="http://www.w3.org/2000/svg">
<path d="M10.4771 6.6C10.4771 6.54477 10.5219 6.5 10.5771 6.5H11.5771C11.6324 6.5 11.6771 6.54477 11.6771 6.6V21.4C11.6771 21.4552 11.6324 21.5 11.5771 21.5H10.5771C10.5219 21.5 10.4771 21.4552 10.4771 21.4V6.6Z" fill="black"/>
<path d="M16.3229 6.6C16.3229 6.54477 16.3676 6.5 16.4229 6.5H17.4229C17.4781 6.5 17.5229 6.54477 17.5229 6.6V21.4C17.5229 21.4552 17.4781 21.5 17.4229 21.5H16.4229C16.3676 21.5 16.3229 21.4552 16.3229 21.4V6.6Z" fill="black"/>
<path d="M6.6 11.5668C6.54477 11.5668 6.5 11.522 6.5 11.4668L6.5 10.4668C6.5 10.4115 6.54477 10.3668 6.6 10.3668L21.4 10.3668C21.4552 10.3668 21.5 10.4115 21.5 10.4668V11.4668C21.5 11.522 21.4552 11.5668 21.4 11.5668L6.6 11.5668Z" fill="black"/>
<path d="M6.6 17.433C6.54477 17.433 6.5 17.3882 6.5 17.333L6.5 16.333C6.5 16.2778 6.54477 16.233 6.6 16.233L21.4 16.233C21.4552 16.233 21.5 16.2778 21.5 16.333V17.333C21.5 17.3882 21.4552 17.433 21.4 17.433L6.6 17.433Z" fill="black"/>
</svg>
