<svg width="16" height="16" viewBox="0 0 16 16" fill="none" xmlns="http://www.w3.org/2000/svg">
<path fill-rule="evenodd" clip-rule="evenodd" d="M4.08683 2.31312C3.89157 2.11786 3.57499 2.11786 3.37972 2.31312C3.18446 2.50838 3.18446 2.82496 3.37972 3.02023L7.64639 7.28689C7.74016 7.38066 7.86733 7.43334 7.99994 7.43334C8.13255 7.43334 8.25973 7.38066 8.3535 7.28689L12.6202 3.02023C12.8154 2.82496 12.8154 2.50838 12.6202 2.31312C12.4249 2.11786 12.1083 2.11786 11.9131 2.31312L7.99994 6.22623L4.08683 2.31312ZM4.08683 8.71312C3.89157 8.51786 3.57499 8.51786 3.37972 8.71312C3.18446 8.90838 3.18446 9.22496 3.37972 9.42023L7.64639 13.6869C7.84165 13.8822 8.15823 13.8822 8.3535 13.6869L12.6202 9.42023C12.8154 9.22496 12.8154 8.90838 12.6202 8.71312C12.4249 8.51786 12.1083 8.51786 11.9131 8.71312L7.99994 12.6262L4.08683 8.71312Z" fill="black"/>
</svg>
