<svg width="32" height="32" viewBox="0 0 32 32" fill="none" xmlns="http://www.w3.org/2000/svg">
<path fill-rule="evenodd" clip-rule="evenodd" d="M21.6869 11.0202C21.8822 10.8249 21.8822 10.5084 21.6869 10.3131C21.4916 10.1178 21.1751 10.1178 20.9798 10.3131L16 15.2929L11.0202 10.3131C10.825 10.1178 10.5084 10.1178 10.3131 10.3131C10.1179 10.5084 10.1179 10.8249 10.3131 11.0202L15.2929 16L10.3131 20.9798C10.1179 21.175 10.1179 21.4916 10.3131 21.6869C10.5084 21.8821 10.825 21.8821 11.0202 21.6869L16 16.7071L20.9798 21.6869C21.1751 21.8821 21.4916 21.8821 21.6869 21.6869C21.8822 21.4916 21.8822 21.175 21.6869 20.9798L16.7071 16L21.6869 11.0202Z" fill="black"/>
</svg>
