<svg width="16" height="16" viewBox="0 0 16 16" fill="none" xmlns="http://www.w3.org/2000/svg">
<path fill-rule="evenodd" clip-rule="evenodd" d="M13.3953 3.31187C13.5906 3.1166 13.5906 2.80002 13.3953 2.60476C13.2 2.4095 12.8835 2.4095 12.6882 2.60476L8.00006 7.29289L3.31193 2.60476C3.11667 2.4095 2.80008 2.4095 2.60482 2.60476C2.40956 2.80002 2.40956 3.1166 2.60482 3.31187L7.29296 8L2.60482 12.6881C2.40956 12.8834 2.40956 13.2 2.60482 13.3952C2.80008 13.5905 3.11667 13.5905 3.31193 13.3952L8.00006 8.70711L12.6882 13.3952C12.8835 13.5905 13.2 13.5905 13.3953 13.3952C13.5906 13.2 13.5906 12.8834 13.3953 12.6881L8.70717 8L13.3953 3.31187Z" fill="black"/>
</svg>
