<svg width="16" height="16" viewBox="0 0 16 16" fill="none" xmlns="http://www.w3.org/2000/svg">
<path fill-rule="evenodd" clip-rule="evenodd" d="M2.75 6.25V2.75H6.25V6.25H2.75ZM1.75 2.25C1.75 1.97386 1.97386 1.75 2.25 1.75H6.75C7.02614 1.75 7.25 1.97386 7.25 2.25V6.75C7.25 7.02614 7.02614 7.25 6.75 7.25H2.25C1.97386 7.25 1.75 7.02614 1.75 6.75V2.25ZM2.75 13.25V9.75H6.25V13.25H2.75ZM1.75 9.25C1.75 8.97386 1.97386 8.75 2.25 8.75H6.75C7.02614 8.75 7.25 8.97386 7.25 9.25V13.75C7.25 14.0261 7.02614 14.25 6.75 14.25H2.25C1.97386 14.25 1.75 14.0261 1.75 13.75V9.25ZM9.75 2.75V6.25H13.25V2.75H9.75ZM9.25 1.75C8.97386 1.75 8.75 1.97386 8.75 2.25V6.75C8.75 7.02614 8.97386 7.25 9.25 7.25H13.75C14.0261 7.25 14.25 7.02614 14.25 6.75V2.25C14.25 1.97386 14.0261 1.75 13.75 1.75H9.25ZM9.75 13.25V9.75H13.25V13.25H9.75ZM8.75 9.25C8.75 8.97386 8.97386 8.75 9.25 8.75H13.75C14.0261 8.75 14.25 8.97386 14.25 9.25V13.75C14.25 14.0261 14.0261 14.25 13.75 14.25H9.25C8.97386 14.25 8.75 14.0261 8.75 13.75V9.25Z" fill="black"/>
</svg>
