<svg width="16" height="16" viewBox="0 0 16 16" fill="none" xmlns="http://www.w3.org/2000/svg">
<path fill-rule="evenodd" clip-rule="evenodd" d="M12.2667 3.28335C12.5152 3.28335 12.7167 3.48482 12.7167 3.73335V8.00001C12.7167 8.24854 12.5152 8.45001 12.2667 8.45001C12.0181 8.45001 11.8167 8.24854 11.8167 8.00001L11.8167 4.81974L4.81972 11.8167H7.99999C8.24852 11.8167 8.44999 12.0181 8.44999 12.2667C8.44999 12.5152 8.24852 12.7167 7.99999 12.7167H3.73333C3.61398 12.7167 3.49952 12.6693 3.41513 12.5849C3.33074 12.5005 3.28333 12.386 3.28333 12.2667L3.28333 8.00001C3.28333 7.75148 3.4848 7.55001 3.73333 7.55001C3.98185 7.55001 4.18333 7.75148 4.18333 8.00001L4.18333 11.1803L11.1803 4.18334L7.99999 4.18334C7.75146 4.18334 7.54999 3.98187 7.54999 3.73334C7.54999 3.48481 7.75146 3.28334 7.99999 3.28334L12.2667 3.28335Z" fill="black"/>
</svg>
