<svg width="16" height="16" viewBox="0 0 16 16" fill="none" xmlns="http://www.w3.org/2000/svg">
<path fill-rule="evenodd" clip-rule="evenodd" d="M8.56309 1.41297C8.22914 1.19207 7.79561 1.19166 7.46124 1.41194L1.90775 5.07052C1.30485 5.46771 1.30865 6.35335 1.91493 6.74535L4.50603 8.42067L5.04899 7.58091L2.45789 5.9056L8.01138 2.24701L13.5422 5.9056L10.9609 7.58142L11.5054 8.42016L14.0867 6.74434C14.6909 6.35209 14.6947 5.46899 14.0939 5.07156L8.56309 1.41297ZM8.34705 7.88323C8.15627 7.70958 7.86469 7.70958 7.67391 7.88323L5.17391 10.1588L4.80415 10.4954L5.47729 11.2349L5.84705 10.8984L7.51049 9.38422L7.51054 14.253L7.51055 14.753L8.51055 14.753L8.51054 14.253L8.51049 9.38424L10.1739 10.8984L10.5437 11.2349L11.2168 10.4954L10.847 10.1588L8.34705 7.88323Z" fill="black"/>
</svg>
