<svg width="16" height="16" viewBox="0 0 16 16" fill="none" xmlns="http://www.w3.org/2000/svg">
<path fill-rule="evenodd" clip-rule="evenodd" d="M8.55 2.25001C8.55 1.94626 8.30376 1.70001 8 1.70001C7.69624 1.70001 7.45 1.94626 7.45 2.25001V7.45001H2.25001C1.94626 7.45001 1.70001 7.69625 1.70001 8.00001C1.70001 8.30377 1.94626 8.55001 2.25001 8.55001H7.45V13.75C7.45 14.0538 7.69624 14.3 8 14.3C8.30376 14.3 8.55 14.0538 8.55 13.75V8.55001H13.75C14.0538 8.55001 14.3 8.30377 14.3 8.00001C14.3 7.69625 14.0538 7.45001 13.75 7.45001H8.55V2.25001Z" fill="black"/>
</svg>
