<svg width="16" height="16" viewBox="0 0 16 16" fill="none" xmlns="http://www.w3.org/2000/svg">
<path fill-rule="evenodd" clip-rule="evenodd" d="M8.94486 1.65616C8.51826 0.940377 7.48166 0.94038 7.05505 1.65616L0.164474 13.2175C-0.27253 13.9508 0.255803 14.8807 1.10938 14.8807H14.8906C15.7441 14.8807 16.2725 13.9508 15.8355 13.2175L8.94486 1.65616ZM7.91406 2.16813C7.95284 2.10306 8.04708 2.10306 8.08586 2.16813L14.9765 13.7295C15.0162 13.7962 14.9682 13.8807 14.8906 13.8807H1.10938C1.03178 13.8807 0.983751 13.7962 1.02348 13.7295L7.91406 2.16813ZM7.28199 5.83258C7.26632 5.42524 7.59231 5.08647 7.99996 5.08647C8.40761 5.08647 8.7336 5.42524 8.71793 5.83258L8.55379 10.1002C8.54235 10.3978 8.29777 10.6331 7.99996 10.6331C7.70215 10.6331 7.45758 10.3978 7.44613 10.1002L7.28199 5.83258ZM8.79984 12.2218C8.79984 12.6636 8.44167 13.0218 7.99984 13.0218C7.55801 13.0218 7.19984 12.6636 7.19984 12.2218C7.19984 11.78 7.55801 11.4218 7.99984 11.4218C8.44167 11.4218 8.79984 11.78 8.79984 12.2218Z" fill="black"/>
</svg>
