<svg width="32" height="32" viewBox="0 0 32 32" fill="none" xmlns="http://www.w3.org/2000/svg">
<path fill-rule="evenodd" clip-rule="evenodd" d="M19.4872 14.7436C19.4872 17.3634 17.3634 19.4872 14.7436 19.4872C12.1238 19.4872 10 17.3634 10 14.7436C10 12.1238 12.1238 10 14.7436 10C17.3634 10 19.4872 12.1238 19.4872 14.7436ZM18.436 19.1432C17.4376 19.982 16.1496 20.4872 14.7436 20.4872C11.5715 20.4872 9 17.9157 9 14.7436C9 11.5715 11.5715 9 14.7436 9C17.9157 9 20.4872 11.5715 20.4872 14.7436C20.4872 16.1496 19.982 17.4376 19.1432 18.436L22.7553 22.0482C22.9506 22.2434 22.9506 22.56 22.7553 22.7553C22.56 22.9506 22.2434 22.9506 22.0482 22.7553L18.436 19.1432Z" fill="black"/>
</svg>
