<svg width="16" height="16" viewBox="0 0 16 16" fill="none" xmlns="http://www.w3.org/2000/svg">
<path fill-rule="evenodd" clip-rule="evenodd" d="M5.29996 1.60001C5.29996 1.32386 5.0761 1.10001 4.79996 1.10001C4.52382 1.10001 4.29996 1.32386 4.29996 1.60001L4.29996 7.46667C4.29996 7.49374 4.30211 7.52031 4.30625 7.54621C3.08789 7.77731 2.16663 8.84774 2.16663 10.1333C2.16663 11.4189 3.08789 12.4894 4.30625 12.7205C4.30211 12.7464 4.29996 12.7729 4.29996 12.8V14.4C4.29996 14.6761 4.52382 14.9 4.79996 14.9C5.0761 14.9 5.29996 14.6761 5.29996 14.4V12.8C5.29996 12.7729 5.29781 12.7464 5.29367 12.7205C6.51203 12.4894 7.43329 11.4189 7.43329 10.1333C7.43329 8.84774 6.51203 7.77731 5.29367 7.54621C5.29781 7.52031 5.29996 7.49374 5.29996 7.46667L5.29996 1.60001ZM11.7 1.60001C11.7 1.32386 11.4761 1.10001 11.2 1.10001C10.9238 1.10001 10.7 1.32386 10.7 1.60001V3.20001C10.7 3.22708 10.7021 3.25364 10.7063 3.27955C9.48789 3.51064 8.56663 4.58107 8.56663 5.86667C8.56663 7.15227 9.48789 8.2227 10.7063 8.4538C10.7021 8.4797 10.7 8.50627 10.7 8.53334V14.4C10.7 14.6761 10.9238 14.9 11.2 14.9C11.4761 14.9 11.7 14.6761 11.7 14.4V8.53334C11.7 8.50627 11.6978 8.4797 11.6937 8.4538C12.912 8.22271 13.8333 7.15228 13.8333 5.86667C13.8333 4.58107 12.912 3.51064 11.6937 3.27954C11.6978 3.25364 11.7 3.22708 11.7 3.20001V1.60001ZM4.79996 8.50001C3.89789 8.50001 3.16663 9.23127 3.16663 10.1333C3.16663 11.0354 3.89789 11.7667 4.79996 11.7667C5.70202 11.7667 6.43329 11.0354 6.43329 10.1333C6.43329 9.23127 5.70202 8.50001 4.79996 8.50001ZM9.56663 5.86667C9.56663 4.96461 10.2979 4.23334 11.2 4.23334C12.102 4.23334 12.8333 4.96461 12.8333 5.86667C12.8333 6.76874 12.102 7.50001 11.2 7.50001C10.2979 7.50001 9.56663 6.76874 9.56663 5.86667Z" fill="black"/>
</svg>
