<svg width="16" height="16" viewBox="0 0 16 16" fill="none" xmlns="http://www.w3.org/2000/svg">
<path fill-rule="evenodd" clip-rule="evenodd" d="M11.1679 3.46963C10.5351 3.05407 9.68337 3.063 9.00966 3.52067C8.85594 3.6251 8.69112 3.78675 8.26542 4.21245L7.64866 4.82921C7.45339 5.02448 7.13681 5.02448 6.94155 4.82921C6.74629 4.63395 6.74629 4.31737 6.94155 4.12211L7.55831 3.50535C7.5728 3.49086 7.58708 3.47657 7.60117 3.46247C7.96945 3.09409 8.20527 2.85819 8.44773 2.69349C9.43906 2.02005 10.7294 1.98527 11.7168 2.63377C11.9577 2.79193 12.1881 3.02241 12.5381 3.37264C12.5528 3.38729 12.5677 3.40216 12.5827 3.41724C12.5978 3.43231 12.6127 3.44717 12.6273 3.46181C12.9776 3.81191 13.208 4.0423 13.3662 4.28314C14.0147 5.27061 13.9799 6.56091 13.3065 7.55224C13.1418 7.7947 12.9059 8.03053 12.5375 8.3988C12.5234 8.41289 12.5091 8.42718 12.4946 8.44166L11.8779 9.05842C11.6826 9.25369 11.366 9.25369 11.1708 9.05842C10.9755 8.86316 10.9755 8.54658 11.1708 8.35132L11.7875 7.73456C12.2132 7.30886 12.3749 7.14404 12.4793 6.99032C12.937 6.3166 12.9459 5.46484 12.5303 4.83207C12.436 4.68843 12.2863 4.53498 11.8756 4.12434C11.465 3.7137 11.3115 3.56396 11.1679 3.46963ZM4.82918 6.94158C5.02444 7.13684 5.02444 7.45342 4.82918 7.64869L4.21242 8.26545C3.78672 8.69115 3.62507 8.85597 3.52064 9.00969C3.06297 9.6834 3.05404 10.5352 3.4696 11.1679C3.56393 11.3116 3.71367 11.465 4.12431 11.8757C4.53495 12.2863 4.6884 12.436 4.83204 12.5304C5.46481 12.9459 6.31657 12.937 6.99029 12.4793C7.14401 12.3749 7.30883 12.2133 7.73453 11.7876L8.35129 11.1708C8.54655 10.9755 8.86313 10.9755 9.05839 11.1708C9.25366 11.3661 9.25366 11.6826 9.05839 11.8779L8.44163 12.4947C8.42715 12.5091 8.41286 12.5234 8.39877 12.5375C8.03049 12.9059 7.79467 13.1418 7.55221 13.3065C6.56088 13.98 5.27058 14.0147 4.28311 13.3662C4.04228 13.2081 3.81188 12.9776 3.4618 12.6274C3.44715 12.6127 3.43229 12.5978 3.41721 12.5828C3.40213 12.5677 3.38727 12.5528 3.37261 12.5382C3.02238 12.1881 2.7919 11.9577 2.63373 11.7169C1.98523 10.7294 2.02002 9.43909 2.69346 8.44776C2.85816 8.2053 3.09406 7.96948 3.46244 7.60121C3.47653 7.58712 3.49083 7.57283 3.50532 7.55834L4.12208 6.94158C4.31734 6.74632 4.63392 6.74632 4.82918 6.94158Z" fill="black"/>
<path d="M10.5 12.5V14.5M12.5 10.5H14.5M13.9997 14L12.4997 12.5" stroke="black" stroke-linecap="round"/>
<path d="M5.5 1.5V3.5M3.49971 3.50004L1.99971 2.00004M1.5 5.5H3.5" stroke="black" stroke-linecap="round" stroke-linejoin="round"/>
</svg>
