<svg width="32" height="32" viewBox="0 0 32 32" fill="none" xmlns="http://www.w3.org/2000/svg">
<path d="M16 11.2242V21.1895" stroke="black" stroke-linecap="round" stroke-linejoin="round"/>
<path d="M8.76135 22.7442C8.56244 22.7442 8.37167 22.6652 8.23102 22.5245C8.09037 22.3839 8.01135 22.1931 8.01135 21.9942V10.0058C8.01135 9.80686 8.09037 9.61609 8.23102 9.47544C8.37167 9.33479 8.56244 9.25577 8.76135 9.25577L12.9711 9.25577C13.7667 9.25577 14.5298 9.57184 15.0924 10.1344C15.655 10.6971 16 11.0043 16 11.8C16 11.0043 16.2871 10.6971 16.8497 10.1344C17.4124 9.57184 18.1754 9.25577 18.9711 9.25577L23.2387 9.25577C23.4376 9.25577 23.6283 9.33479 23.769 9.47544C23.9096 9.61609 23.9887 9.80686 23.9887 10.0058V21.9942C23.9887 22.1931 23.9096 22.3839 23.769 22.5245C23.6283 22.6652 23.2387 22.7442 23.2387 22.7442C23.2387 22.7442 18.843 21.6157 15.9711 21.6192C13.1214 21.6227 8.76135 22.7442 8.76135 22.7442Z" stroke="black" stroke-linecap="round" stroke-linejoin="round"/>
</svg>
