<svg width="16" height="16" viewBox="0 0 16 16" fill="none" xmlns="http://www.w3.org/2000/svg">
<path fill-rule="evenodd" clip-rule="evenodd" d="M10.75 6.94999C10.75 9.04868 9.04871 10.75 6.95002 10.75C4.85134 10.75 3.15002 9.04868 3.15002 6.94999C3.15002 4.85131 4.85134 3.14999 6.95002 3.14999C9.04871 3.14999 10.75 4.85131 10.75 6.94999ZM9.97223 10.6793C9.1471 11.3488 8.09541 11.75 6.95002 11.75C4.29906 11.75 2.15002 9.60096 2.15002 6.94999C2.15002 4.29903 4.29906 2.14999 6.95002 2.14999C9.60099 2.14999 11.75 4.29903 11.75 6.94999C11.75 8.09538 11.3488 9.14707 10.6793 9.9722L13.7036 12.9964C13.8988 13.1917 13.8988 13.5083 13.7036 13.7035C13.5083 13.8988 13.1917 13.8988 12.9965 13.7035L9.97223 10.6793Z" fill="black"/>
</svg>
