<svg width="16" height="16" viewBox="0 0 16 16" fill="none" xmlns="http://www.w3.org/2000/svg">
<rect x="2.06522" y="2.06522" width="11.8696" height="11.8696" rx="5.93478" stroke="black" stroke-width="1.13043"/>
<path d="M12.9025 10.1904C12.5086 11.0722 11.8841 11.8313 11.0949 12.388C10.3057 12.9446 9.38094 13.2781 8.41811 13.3533C7.45528 13.4285 6.49 13.2426 5.62394 12.8152C4.75789 12.3878 4.02312 11.7348 3.49705 10.9249C2.97098 10.115 2.67308 9.17822 2.63473 8.21322C2.59638 7.24822 2.819 6.29074 3.27914 5.44165C3.73928 4.59255 4.4199 3.88327 5.24931 3.38853C6.07872 2.89379 7.02621 2.63189 7.99197 2.63044L8.00006 8L12.9025 10.1904Z" fill="black"/>
</svg>
