<svg width="16" height="16" viewBox="0 0 16 16" fill="none" xmlns="http://www.w3.org/2000/svg">
<path fill-rule="evenodd" clip-rule="evenodd" d="M3.16665 3.16666V12.8333H6.93331C7.20946 12.8333 7.43331 13.0572 7.43331 13.3333C7.43331 13.6095 7.20946 13.8333 6.93331 13.8333H3.16665C2.61436 13.8333 2.16665 13.3856 2.16665 12.8333V3.16666C2.16665 2.61437 2.61436 2.16666 3.16665 2.16666H12.8333C13.3856 2.16666 13.8333 2.61437 13.8333 3.16666V6.93332C13.8333 7.20947 13.6095 7.43332 13.3333 7.43332C13.0572 7.43332 12.8333 7.20947 12.8333 6.93332V3.16666H3.16665ZM6.93331 6.43332H10.1333C10.4095 6.43332 10.6333 6.65718 10.6333 6.93332C10.6333 7.20947 10.4095 7.43332 10.1333 7.43332H8.14042L13.6869 12.9798C13.8821 13.175 13.8821 13.4916 13.6869 13.6869C13.4916 13.8821 13.175 13.8821 12.9798 13.6869L7.43331 8.14043V10.1333C7.43331 10.4095 7.20946 10.6333 6.93331 10.6333C6.65717 10.6333 6.43331 10.4095 6.43331 10.1333V6.93332C6.43331 6.86553 6.44681 6.80089 6.47125 6.74193M6.47192 6.74031C6.49554 6.68381 6.52998 6.63075 6.57526 6.58433L6.47192 6.74031ZM6.57526 6.58433L6.57528 6.58431L6.57526 6.58433ZM6.57528 6.58431C6.57824 6.58127 6.58124 6.57827 6.58428 6.57531L6.58428 6.5753C6.63116 6.52958 6.6848 6.4949 6.74192 6.47126C6.8 6.44718 6.86361 6.43372 6.93031 6.43333C6.93034 6.43333 6.93037 6.43333 6.93039 6.43333C6.93136 6.43333 6.93234 6.43332 6.93331 6.43332" fill="black"/>
</svg>
