<svg width="16" height="16" viewBox="0 0 16 16" fill="none" xmlns="http://www.w3.org/2000/svg">
<path fill-rule="evenodd" clip-rule="evenodd" d="M3.86667 8C3.86667 8.66274 3.32942 9.2 2.66667 9.2C2.00393 9.2 1.46667 8.66274 1.46667 8C1.46667 7.33726 2.00393 6.8 2.66667 6.8C3.32942 6.8 3.86667 7.33726 3.86667 8ZM9.20001 8C9.20001 8.66274 8.66275 9.2 8.00001 9.2C7.33727 9.2 6.80001 8.66274 6.80001 8C6.80001 7.33726 7.33727 6.8 8.00001 6.8C8.66275 6.8 9.20001 7.33726 9.20001 8ZM13.3333 9.2C13.9961 9.2 14.5333 8.66274 14.5333 8C14.5333 7.33726 13.9961 6.8 13.3333 6.8C12.6706 6.8 12.1333 7.33726 12.1333 8C12.1333 8.66274 12.6706 9.2 13.3333 9.2Z" fill="black"/>
</svg>
