<svg width="16" height="16" viewBox="0 0 16 16" fill="none" xmlns="http://www.w3.org/2000/svg">
<path fill-rule="evenodd" clip-rule="evenodd" d="M12.8333 3.16666V12.8333H9.06663C8.79048 12.8333 8.56663 13.0572 8.56663 13.3333C8.56663 13.6095 8.79048 13.8333 9.06663 13.8333H12.8333C13.3856 13.8333 13.8333 13.3856 13.8333 12.8333V3.16666C13.8333 2.61437 13.3856 2.16666 12.8333 2.16666H3.16663C2.61434 2.16666 2.16663 2.61437 2.16663 3.16666V6.93332C2.16663 7.20947 2.39048 7.43332 2.66663 7.43332C2.94277 7.43332 3.16663 7.20947 3.16663 6.93332V3.16666H12.8333ZM9.06663 6.43332H5.86663C5.59048 6.43332 5.36663 6.65718 5.36663 6.93332C5.36663 7.20947 5.59048 7.43332 5.86663 7.43332H7.85952L2.31307 12.9798C2.11781 13.175 2.11781 13.4916 2.31307 13.6869C2.50833 13.8821 2.82492 13.8821 3.02018 13.6869L8.56663 8.14043V10.1333C8.56663 10.4095 8.79048 10.6333 9.06663 10.6333C9.34277 10.6333 9.56663 10.4095 9.56663 10.1333V6.93332C9.56663 6.86553 9.55313 6.80089 9.52869 6.74193M9.52801 6.74031C9.5044 6.68381 9.46996 6.63075 9.42468 6.58433L9.52801 6.74031ZM9.42468 6.58433L9.42466 6.58431L9.42468 6.58433ZM9.42466 6.58431C9.4217 6.58127 9.4187 6.57827 9.41566 6.57531L9.41565 6.5753C9.36878 6.52958 9.31514 6.4949 9.25802 6.47126C9.19993 6.44718 9.13633 6.43372 9.06962 6.43333C9.0696 6.43333 9.06957 6.43333 9.06955 6.43333C9.06857 6.43333 9.0676 6.43332 9.06663 6.43332" fill="black"/>
</svg>
