<svg width="16" height="16" viewBox="0 0 16 16" fill="none" xmlns="http://www.w3.org/2000/svg">
<path d="M2.5 10.7V13.7C2.5 13.9762 2.72386 14.2 3 14.2H13C13.2761 14.2 13.5 13.9762 13.5 13.7V10.7" stroke="black"/>
<path fill-rule="evenodd" clip-rule="evenodd" d="M8.00002 1.65329C8.26512 1.65329 8.48002 1.86819 8.48002 2.13329V10.1333C8.48002 10.3984 8.26512 10.6133 8.00002 10.6133C7.73492 10.6133 7.52002 10.3984 7.52002 10.1333V2.13329C7.52002 1.86819 7.73492 1.65329 8.00002 1.65329Z" fill="black"/>
<path fill-rule="evenodd" clip-rule="evenodd" d="M7.66066 1.26068C7.84811 1.07322 8.15203 1.07322 8.33948 1.26068L11.5395 4.46068C11.7269 4.64813 11.7269 4.95205 11.5395 5.1395C11.352 5.32695 11.0481 5.32695 10.8607 5.1395L8.00007 2.27891L5.13948 5.1395C4.95203 5.32695 4.64811 5.32695 4.46066 5.1395C4.27321 4.95205 4.27321 4.64813 4.46066 4.46068L7.66066 1.26068Z" fill="black"/>
</svg>
