<svg width="16" height="16" viewBox="0 0 16 16" fill="none" xmlns="http://www.w3.org/2000/svg">
<path fill-rule="evenodd" clip-rule="evenodd" d="M0.967163 7.99988C0.967163 4.11584 4.11581 0.967194 7.99985 0.967194C11.8839 0.967194 15.0325 4.11584 15.0325 7.99988C15.0325 11.8839 11.8839 15.0326 7.99985 15.0326C4.11581 15.0326 0.967163 11.8839 0.967163 7.99988ZM7.99985 1.91719C4.64048 1.91719 1.91716 4.64051 1.91716 7.99988C1.91716 11.3592 4.64048 14.0826 7.99985 14.0826C11.3592 14.0826 14.0825 11.3592 14.0825 7.99988C14.0825 4.64051 11.3592 1.91719 7.99985 1.91719ZM10.8404 5.86667L10.4869 6.22023L8.70708 8.00001L10.4869 9.77979L10.8404 10.1333L10.1333 10.8404L9.77975 10.4869L7.99998 8.70711L6.2202 10.4869L5.86664 10.8404L5.15954 10.1333L5.51309 9.77979L7.29287 8.00001L5.51309 6.22023L5.15954 5.86667L5.86664 5.15957L6.2202 5.51312L7.99998 7.2929L9.77975 5.51312L10.1333 5.15957L10.8404 5.86667Z" fill="black"/>
</svg>
