<svg width="16" height="16" viewBox="0 0 16 16" fill="none" xmlns="http://www.w3.org/2000/svg">
<path fill-rule="evenodd" clip-rule="evenodd" d="M7.66343 1.13023C7.85421 0.956571 8.14579 0.956571 8.33657 1.13023L10.8366 3.40584C11.0408 3.59172 11.0556 3.90796 10.8698 4.11217C10.6839 4.31638 10.3676 4.33124 10.1634 4.14536L8.50001 2.63123L8.50006 13.3687L10.1635 11.8546C10.3677 11.6687 10.6839 11.6836 10.8698 11.8878C11.0557 12.092 11.0408 12.4082 10.8366 12.5941L8.33664 14.8697C8.14586 15.0434 7.85428 15.0434 7.6635 14.8697L5.1635 12.5941C4.95929 12.4082 4.94443 12.092 5.13031 11.8878C5.31619 11.6836 5.63243 11.6687 5.83664 11.8546L7.50006 13.3687L7.50001 2.63122L5.83657 4.14536C5.63236 4.33124 5.31613 4.31638 5.13025 4.11217C4.94436 3.90796 4.95922 3.59172 5.16343 3.40584L7.66343 1.13023Z" fill="black"/>
</svg>
