<svg width="16" height="16" viewBox="0 0 16 16" fill="none" xmlns="http://www.w3.org/2000/svg">
<path fill-rule="evenodd" clip-rule="evenodd" d="M3 3.5C3 3.22386 3.22386 3 3.5 3H7.3406C7.54062 3 7.72139 3.1192 7.80018 3.30304L8.74173 5.5H3V3.5ZM3 6.5V13C3 13.2761 3.22386 13.5 3.5 13.5H13C13.2761 13.5 13.5 13.2761 13.5 13V7C13.5 6.72386 13.2761 6.5 13 6.5H10.3648H10.1594H3ZM10.3648 5.5H13C13.8284 5.5 14.5 6.17157 14.5 7V13C14.5 13.8284 13.8284 14.5 13 14.5H3.5C2.67157 14.5 2 13.8284 2 13V3.5C2 2.67157 2.67157 2 3.5 2H7.3406C7.94065 2 8.48295 2.3576 8.71932 2.90912L9.69982 5.19696C9.77861 5.3808 9.95938 5.5 10.1594 5.5H10.3648Z" fill="black"/>
</svg>
