<svg width="16" height="16" viewBox="0 0 16 16" fill="none" xmlns="http://www.w3.org/2000/svg">
<path d="M7.27747 2.04366C7.5428 2.01147 7.68807 2.33491 7.53393 2.55326C7.03201 3.2643 6.75736 4.11799 6.75736 5C6.75736 6.12522 7.20435 7.20435 8 8C8.79565 8.79565 9.87478 9.24264 11 9.24264C11.882 9.24264 12.7357 8.968 13.4467 8.46607C13.6651 8.31193 13.9885 8.4572 13.9563 8.72253C13.8434 9.65331 13.5135 10.5483 12.9888 11.3334C12.3295 12.3201 11.3925 13.0892 10.2961 13.5433C9.19975 13.9974 7.99335 14.1162 6.82946 13.8847C5.66558 13.6532 4.59648 13.0818 3.75736 12.2426C2.91825 11.4035 2.3468 10.3344 2.11529 9.17054C1.88378 8.00666 2.0026 6.80026 2.45673 5.7039C2.91085 4.60754 3.67989 3.67047 4.66658 3.01118C5.45175 2.48655 6.34669 2.15657 7.27747 2.04366Z" fill="black"/>
</svg>
