<svg width="28" height="28" viewBox="0 0 28 28" fill="none" xmlns="http://www.w3.org/2000/svg">
<path fill-rule="evenodd" clip-rule="evenodd" d="M7.40625 6.40625C6.85397 6.40625 6.40625 6.85397 6.40625 7.40625V20.5938C6.40625 21.146 6.85397 21.5938 7.40625 21.5938H20.5938C21.146 21.5938 21.5938 21.146 21.5938 20.5938V7.40625C21.5938 6.85397 21.146 6.40625 20.5938 6.40625H7.40625ZM7.60625 7.60625V16.9515L10.4414 14.1163C10.8709 13.6867 11.5674 13.6867 11.997 14.1163L13.2286 15.3479L16.7929 11.7836C17.2225 11.354 17.919 11.354 18.3486 11.7836L20.3938 13.8288V7.60625H7.60625ZM20.3938 15.5258L17.5708 12.7028L14.0772 16.1965L18.2745 20.3938H20.3938V15.5258ZM7.60625 20.3938V18.6485L11.2192 15.0355L16.5774 20.3938H7.60625Z" fill="black"/>
</svg>
