<svg width="16" height="16" viewBox="0 0 16 16" fill="none" xmlns="http://www.w3.org/2000/svg">
<g opacity="0.5">
<path d="M4.96588 12.3635V3.63623H8.01702C8.62497 3.63623 9.12639 3.74134 9.52128 3.95157C9.91617 4.15896 10.2102 4.43879 10.4034 4.79106C10.5966 5.14049 10.6932 5.52828 10.6932 5.95441C10.6932 6.32941 10.6264 6.63907 10.4929 6.88339C10.3622 7.12771 10.1889 7.32089 9.97298 7.46294C9.75992 7.60498 9.52838 7.71009 9.27838 7.77828V7.8635C9.54543 7.88055 9.81389 7.9743 10.0838 8.14475C10.3537 8.31521 10.5795 8.55953 10.7613 8.87771C10.9432 9.19589 11.0341 9.58509 11.0341 10.0453C11.0341 10.4828 10.9346 10.8763 10.7358 11.2257C10.5369 11.5752 10.223 11.8521 9.79401 12.0567C9.36503 12.2612 8.80679 12.3635 8.11929 12.3635H4.96588ZM6.0227 11.426H8.11929C8.80963 11.426 9.29969 11.2925 9.58946 11.0254C9.88207 10.7555 10.0284 10.4288 10.0284 10.0453C10.0284 9.74987 9.9531 9.47714 9.80253 9.22714C9.65196 8.9743 9.43747 8.77259 9.15906 8.62203C8.88065 8.46862 8.55111 8.39191 8.17043 8.39191H6.0227V11.426ZM6.0227 7.47146H7.98293C8.30111 7.47146 8.58804 7.40896 8.84372 7.28396C9.10224 7.15896 9.30679 6.98282 9.45736 6.75555C9.61077 6.52828 9.68747 6.26123 9.68747 5.95441C9.68747 5.57089 9.55395 5.24561 9.2869 4.97856C9.01986 4.70867 8.59656 4.57373 8.01702 4.57373H6.0227V7.47146Z" fill="black"/>
</g>
</svg>
