<svg width="16" height="16" viewBox="0 0 16 16" fill="none" xmlns="http://www.w3.org/2000/svg">
<g opacity="0.5">
<path d="M7.65907 9.28692H8.81816L9.78975 10.5653L10.0454 10.9062L11.4943 12.8324H10.3352L9.38066 11.554L9.14202 11.2301L7.65907 9.28692ZM11.8523 7.65056C11.8523 8.57101 11.6861 9.36647 11.3537 10.0369C11.0213 10.7074 10.5653 11.2244 9.98577 11.5881C9.40623 11.9517 8.7443 12.1335 7.99998 12.1335C7.25566 12.1335 6.59373 11.9517 6.01418 11.5881C5.43464 11.2244 4.97867 10.7074 4.64628 10.0369C4.3139 9.36647 4.14771 8.57101 4.14771 7.65056C4.14771 6.7301 4.3139 5.93465 4.64628 5.26419C4.97867 4.59374 5.43464 4.07669 6.01418 3.71306C6.59373 3.34942 7.25566 3.1676 7.99998 3.1676C8.7443 3.1676 9.40623 3.34942 9.98577 3.71306C10.5653 4.07669 11.0213 4.59374 11.3537 5.26419C11.6861 5.93465 11.8523 6.7301 11.8523 7.65056ZM10.8295 7.65056C10.8295 6.89488 10.7031 6.25709 10.4503 5.73721C10.2003 5.21732 9.86077 4.82385 9.4318 4.55681C9.00566 4.28976 8.52839 4.15624 7.99998 4.15624C7.47157 4.15624 6.99288 4.28976 6.5639 4.55681C6.13776 4.82385 5.79827 5.21732 5.54543 5.73721C5.29543 6.25709 5.17043 6.89488 5.17043 7.65056C5.17043 8.40624 5.29543 9.04402 5.54543 9.56391C5.79827 10.0838 6.13776 10.4773 6.5639 10.7443C6.99288 11.0114 7.47157 11.1449 7.99998 11.1449C8.52839 11.1449 9.00566 11.0114 9.4318 10.7443C9.86077 10.4773 10.2003 10.0838 10.4503 9.56391C10.7031 9.04402 10.8295 8.40624 10.8295 7.65056Z" fill="black"/>
</g>
</svg>
