<svg width="16" height="16" viewBox="0 0 16 16" fill="none" xmlns="http://www.w3.org/2000/svg">
<g opacity="0.5">
<path d="M7.26703 12.3636H4.57385V3.63635H7.38635C8.23294 3.63635 8.95738 3.81107 9.55965 4.1605C10.1619 4.50709 10.6236 5.00567 10.9446 5.65624C11.2656 6.30397 11.4261 7.07953 11.4261 7.98294C11.4261 8.89203 11.2642 9.67471 10.9403 10.331C10.6165 10.9844 10.1449 11.4872 9.52556 11.8395C8.90624 12.1889 8.1534 12.3636 7.26703 12.3636ZM5.63067 11.4261H7.19885C7.92044 11.4261 8.51845 11.2869 8.99289 11.0085C9.46732 10.7301 9.82101 10.3338 10.054 9.81959C10.2869 9.30539 10.4034 8.69317 10.4034 7.98294C10.4034 7.2784 10.2883 6.67186 10.0582 6.16334C9.82811 5.65198 9.48436 5.25993 9.02698 4.9872C8.56959 4.71164 7.99999 4.57385 7.31817 4.57385H5.63067V11.4261Z" fill="black"/>
</g>
</svg>
