<svg width="16" height="16" viewBox="0 0 16 16" fill="none" xmlns="http://www.w3.org/2000/svg">
<g opacity="0.5">
<path d="M8.00003 12.483C7.35799 12.483 6.81111 12.3083 6.35941 11.9589C5.9077 11.6066 5.56253 11.0966 5.3239 10.429C5.08526 9.75857 4.96594 8.94891 4.96594 8.00004C4.96594 7.05686 5.08526 6.25146 5.3239 5.58385C5.56537 4.9134 5.91197 4.40203 6.36367 4.04976C6.81822 3.69465 7.36367 3.51709 8.00003 3.51709C8.6364 3.51709 9.18043 3.69465 9.63214 4.04976C10.0867 4.40203 10.4333 4.9134 10.6719 5.58385C10.9134 6.25146 11.0341 7.05686 11.0341 8.00004C11.0341 8.94891 10.9148 9.75857 10.6762 10.429C10.4375 11.0966 10.0924 11.6066 9.64066 11.9589C9.18895 12.3083 8.64208 12.483 8.00003 12.483ZM8.00003 11.5455C8.6364 11.5455 9.13072 11.2387 9.48299 10.625C9.83526 10.0114 10.0114 9.13641 10.0114 8.00004C10.0114 7.24436 9.93043 6.6009 9.7685 6.06965C9.60941 5.5384 9.37929 5.13357 9.07816 4.85516C8.77986 4.57675 8.42049 4.43754 8.00003 4.43754C7.36935 4.43754 6.87645 4.74862 6.52134 5.37078C6.16623 5.9901 5.98867 6.86652 5.98867 8.00004C5.98867 8.75573 6.06822 9.39777 6.22731 9.92618C6.3864 10.4546 6.61509 10.8566 6.91339 11.1321C7.21452 11.4077 7.57674 11.5455 8.00003 11.5455Z" fill="black"/>
</g>
</svg>
