<svg width="16" height="16" viewBox="0 0 16 16" fill="none" xmlns="http://www.w3.org/2000/svg">
<g opacity="0.5">
<path d="M5.28974 12.5597C4.95167 12.5597 4.64201 12.4774 4.36076 12.3126C4.07951 12.145 3.85508 11.9205 3.68747 11.6393C3.52269 11.358 3.44031 11.0484 3.44031 10.7103C3.44031 10.3694 3.52269 10.0583 3.68747 9.77708C3.85508 9.49583 4.07951 9.2714 4.36076 9.10378C4.64201 8.93617 4.95167 8.85236 5.28974 8.85236H6.27838V7.13929H5.28974C4.95167 7.13929 4.64201 7.05691 4.36076 6.89213C4.07951 6.72452 3.85508 6.50151 3.68747 6.2231C3.52269 5.94185 3.44031 5.63077 3.44031 5.28986C3.44031 4.94895 3.52269 4.63929 3.68747 4.36088C3.85508 4.07963 4.07951 3.85662 4.36076 3.69185C4.64201 3.52424 4.95167 3.44043 5.28974 3.44043C5.63065 3.44043 5.94173 3.52424 6.22298 3.69185C6.50423 3.85662 6.72866 4.07963 6.89627 4.36088C7.06389 4.63929 7.14769 4.94895 7.14769 5.28986V6.26998H8.86076V5.28986C8.86076 4.94895 8.94315 4.63929 9.10792 4.36088C9.27554 4.07963 9.49855 3.85662 9.77696 3.69185C10.0582 3.52424 10.3693 3.44043 10.7102 3.44043C11.0511 3.44043 11.3608 3.52424 11.6392 3.69185C11.9204 3.85662 12.1434 4.07963 12.3082 4.36088C12.4758 4.63929 12.5596 4.94895 12.5596 5.28986C12.5596 5.63077 12.4758 5.94185 12.3082 6.2231C12.1434 6.50151 11.9204 6.72452 11.6392 6.89213C11.3608 7.05691 11.0511 7.13929 10.7102 7.13929H9.73008V8.85236H10.7102C11.0511 8.85236 11.3608 8.93617 11.6392 9.10378C11.9204 9.2714 12.1434 9.49583 12.3082 9.77708C12.4758 10.0583 12.5596 10.3694 12.5596 10.7103C12.5596 11.0484 12.4758 11.358 12.3082 11.6393C12.1434 11.9205 11.9204 12.145 11.6392 12.3126C11.3608 12.4774 11.0511 12.5597 10.7102 12.5597C10.3693 12.5597 10.0582 12.4774 9.77696 12.3126C9.49855 12.145 9.27554 11.9205 9.10792 11.6393C8.94315 11.358 8.86076 11.0484 8.86076 10.7103V9.72168H7.14769V10.7103C7.14769 11.0484 7.06389 11.358 6.89627 11.6393C6.72866 11.9205 6.50423 12.145 6.22298 12.3126C5.94173 12.4774 5.63065 12.5597 5.28974 12.5597ZM5.28974 11.6904C5.47156 11.6904 5.63633 11.6464 5.78406 11.5583C5.93463 11.4703 6.05394 11.3524 6.14201 11.2046C6.23292 11.0541 6.27838 10.8893 6.27838 10.7103V9.72168H5.28974C5.11076 9.72168 4.94599 9.76713 4.79542 9.85804C4.64769 9.94611 4.5298 10.0654 4.44173 10.216C4.35366 10.3637 4.30963 10.5285 4.30963 10.7103C4.30963 10.8893 4.35366 11.0541 4.44173 11.2046C4.5298 11.3524 4.64769 11.4703 4.79542 11.5583C4.94599 11.6464 5.11076 11.6904 5.28974 11.6904ZM5.28974 6.26998H6.27838V5.28986C6.27838 5.10804 6.23292 4.94327 6.14201 4.79554C6.05394 4.64782 5.93463 4.52992 5.78406 4.44185C5.63633 4.35378 5.47156 4.30975 5.28974 4.30975C5.11076 4.30975 4.94599 4.35378 4.79542 4.44185C4.64769 4.52992 4.5298 4.64782 4.44173 4.79554C4.35366 4.94327 4.30963 5.10804 4.30963 5.28986C4.30963 5.47168 4.35366 5.63787 4.44173 5.78844C4.5298 5.93617 4.64769 6.05407 4.79542 6.14213C4.94599 6.22736 5.11076 6.26998 5.28974 6.26998ZM9.73008 6.26998H10.7102C10.892 6.26998 11.0568 6.22736 11.2045 6.14213C11.3522 6.05407 11.4701 5.93617 11.5582 5.78844C11.6463 5.63787 11.6903 5.47168 11.6903 5.28986C11.6903 5.10804 11.6463 4.94327 11.5582 4.79554C11.4701 4.64782 11.3522 4.52992 11.2045 4.44185C11.0568 4.35378 10.892 4.30975 10.7102 4.30975C10.5284 4.30975 10.3622 4.35378 10.2116 4.44185C10.0639 4.52992 9.94599 4.64782 9.85792 4.79554C9.77269 4.94327 9.73008 5.10804 9.73008 5.28986V6.26998ZM10.7102 11.6904C10.892 11.6904 11.0568 11.6464 11.2045 11.5583C11.3522 11.4703 11.4701 11.3524 11.5582 11.2046C11.6463 11.0541 11.6903 10.8893 11.6903 10.7103C11.6903 10.5285 11.6463 10.3637 11.5582 10.216C11.4701 10.0654 11.3522 9.94611 11.2045 9.85804C11.0568 9.76713 10.892 9.72168 10.7102 9.72168H9.73008V10.7103C9.73008 10.8893 9.77269 11.0541 9.85792 11.2046C9.94599 11.3524 10.0639 11.4703 10.2116 11.5583C10.3622 11.6464 10.5284 11.6904 10.7102 11.6904ZM7.14769 8.85236H8.86076V7.13929H7.14769V8.85236Z" fill="black"/>
</g>
</svg>
