<svg width="16" height="16" viewBox="0 0 16 16" fill="none" xmlns="http://www.w3.org/2000/svg">
<g opacity="0.5">
<path d="M5.54968 12.3635V3.63623H8.49855C9.18321 3.63623 9.74286 3.75981 10.1775 4.00697C10.615 4.25129 10.9389 4.58225 11.1491 4.99987C11.3593 5.41748 11.4645 5.88339 11.4645 6.39759C11.4645 6.9118 11.3593 7.37913 11.1491 7.79958C10.9417 8.22004 10.6207 8.55526 10.186 8.80526C9.75139 9.05242 9.19457 9.176 8.51559 9.176H6.40196V8.2385H8.4815C8.95025 8.2385 9.32667 8.15754 9.61076 7.99561C9.89485 7.83367 10.1008 7.61492 10.2287 7.33936C10.3593 7.06095 10.4247 6.74703 10.4247 6.39759C10.4247 6.04816 10.3593 5.73566 10.2287 5.46009C10.1008 5.18453 9.89343 4.96862 9.6065 4.81237C9.31957 4.65328 8.93889 4.57373 8.46446 4.57373H6.6065V12.3635H5.54968Z" fill="black"/>
</g>
</svg>
