<svg width="16" height="16" viewBox="0 0 16 16" fill="none" xmlns="http://www.w3.org/2000/svg">
<g opacity="0.5">
<path d="M7.94029 3.51725C8.29824 3.52009 8.65619 3.58827 9.01415 3.72179C9.3721 3.85531 9.69881 4.0769 9.99426 4.38656C10.2897 4.69338 10.5269 5.11242 10.7059 5.64367C10.8849 6.17492 10.9744 6.84111 10.9744 7.64225C10.9744 8.41781 10.9005 9.10673 10.7528 9.70901C10.6079 10.3084 10.3977 10.8141 10.1221 11.2261C9.84938 11.638 9.51699 11.9505 9.12494 12.1636C8.73574 12.3766 8.2954 12.4832 7.80392 12.4832C7.31529 12.4832 6.87921 12.3866 6.49568 12.1934C6.115 11.9974 5.8025 11.7261 5.55818 11.3795C5.31671 11.03 5.16188 10.6252 5.09369 10.165H6.13347C6.22722 10.5655 6.4133 10.8965 6.69171 11.1579C6.97296 11.4164 7.34369 11.5457 7.80392 11.5457C8.47722 11.5457 9.00847 11.2516 9.39767 10.6636C9.78972 10.0755 9.98574 9.24452 9.98574 8.17065H9.91756C9.75847 8.40929 9.56955 8.61526 9.3508 8.78855C9.13205 8.96185 8.88915 9.09537 8.6221 9.18912C8.35506 9.28287 8.07097 9.32975 7.76983 9.32975C7.26983 9.32975 6.81102 9.20617 6.39341 8.95901C5.97864 8.70901 5.64625 8.36668 5.39625 7.93202C5.14909 7.49452 5.02551 6.99452 5.02551 6.43202C5.02551 5.89793 5.14483 5.40929 5.38347 4.96611C5.62494 4.52009 5.96301 4.16497 6.39767 3.90077C6.83517 3.63656 7.34938 3.50872 7.94029 3.51725ZM7.94029 4.45475C7.58233 4.45475 7.25989 4.54423 6.97296 4.72321C6.68887 4.89935 6.46301 5.13798 6.2954 5.43912C6.13063 5.73742 6.04824 6.06838 6.04824 6.43202C6.04824 6.79565 6.12779 7.12662 6.28688 7.42492C6.44881 7.72037 6.66898 7.95617 6.94739 8.1323C7.22864 8.3056 7.54824 8.39225 7.90619 8.39225C8.17608 8.39225 8.4275 8.33969 8.66046 8.23458C8.89341 8.12662 9.09654 7.98031 9.26983 7.79565C9.44597 7.60815 9.58375 7.39651 9.68318 7.16071C9.78261 6.92207 9.83233 6.6735 9.83233 6.41497C9.83233 6.07406 9.74994 5.75446 9.58517 5.45617C9.42324 5.15787 9.19881 4.91639 8.91188 4.73173C8.62779 4.54707 8.30392 4.45475 7.94029 4.45475Z" fill="black"/>
</g>
</svg>
