<svg width="16" height="16" viewBox="0 0 16 16" fill="none" xmlns="http://www.w3.org/2000/svg">
<g opacity="0.5">
<path d="M10.5823 6.36356C10.4886 6.07663 10.365 5.81952 10.2116 5.59225C10.061 5.36214 9.88063 5.16612 9.6704 5.00418C9.46301 4.84225 9.22722 4.71867 8.96301 4.63344C8.69881 4.54822 8.40904 4.5056 8.09369 4.5056C7.57665 4.5056 7.10648 4.63913 6.68318 4.90617C6.25989 5.17322 5.92324 5.56668 5.67324 6.08657C5.42324 6.60646 5.29824 7.24424 5.29824 7.99992C5.29824 8.7556 5.42466 9.39339 5.6775 9.91327C5.93034 10.4332 6.27267 10.8266 6.70449 11.0937C7.13631 11.3607 7.6221 11.4942 8.16188 11.4942C8.66188 11.4942 9.10222 11.3877 9.4829 11.1746C9.86642 10.9587 10.1647 10.6548 10.3778 10.2627C10.5937 9.86782 10.7016 9.40333 10.7016 8.86924L11.0255 8.93742H8.40051V7.99992H11.7244V8.93742C11.7244 9.65617 11.571 10.2812 11.2641 10.8124C10.9602 11.3437 10.5397 11.7556 10.0028 12.0482C9.46869 12.338 8.85506 12.4829 8.16188 12.4829C7.38915 12.4829 6.71017 12.3011 6.12494 11.9374C5.54256 11.5738 5.08801 11.0567 4.76131 10.3863C4.43744 9.71583 4.27551 8.92038 4.27551 7.99992C4.27551 7.30958 4.36784 6.68884 4.5525 6.13771C4.74 5.58373 5.00421 5.11214 5.34512 4.72293C5.68602 4.33373 6.08943 4.03543 6.55534 3.82805C7.02125 3.62066 7.53404 3.51697 8.09369 3.51697C8.55392 3.51697 8.9829 3.58657 9.38063 3.72577C9.78119 3.86214 10.1377 4.05674 10.4502 4.30958C10.7656 4.55958 11.0284 4.8593 11.2386 5.20873C11.4488 5.55532 11.5937 5.94026 11.6732 6.36356H10.5823Z" fill="black"/>
</g>
</svg>
