<svg width="16" height="16" viewBox="0 0 16 16" fill="none" xmlns="http://www.w3.org/2000/svg">
<g opacity="0.5">
<path d="M11.6818 6.36356H10.625C10.5625 6.05958 10.4531 5.79254 10.2969 5.56242C10.1435 5.33231 9.95596 5.13913 9.73437 4.98288C9.51562 4.82379 9.27272 4.70447 9.00568 4.62492C8.73863 4.54538 8.46022 4.5056 8.17045 4.5056C7.64204 4.5056 7.16335 4.63913 6.73437 4.90617C6.30823 5.17322 5.96874 5.56668 5.7159 6.08657C5.4659 6.60646 5.3409 7.24424 5.3409 7.99992C5.3409 8.7556 5.4659 9.39339 5.7159 9.91327C5.96874 10.4332 6.30823 10.8266 6.73437 11.0937C7.16335 11.3607 7.64204 11.4942 8.17045 11.4942C8.46022 11.4942 8.73863 11.4545 9.00568 11.3749C9.27272 11.2954 9.51562 11.1775 9.73437 11.0212C9.95596 10.8621 10.1435 10.6675 10.2969 10.4374C10.4531 10.2045 10.5625 9.93742 10.625 9.63629H11.6818C11.6023 10.0823 11.4574 10.4815 11.2472 10.8337C11.0369 11.186 10.7756 11.4857 10.4631 11.7329C10.1506 11.9772 9.79971 12.1633 9.41051 12.2911C9.02414 12.419 8.61079 12.4829 8.17045 12.4829C7.42613 12.4829 6.7642 12.3011 6.18465 11.9374C5.60511 11.5738 5.14914 11.0567 4.81676 10.3863C4.48437 9.71583 4.31818 8.92038 4.31818 7.99992C4.31818 7.07947 4.48437 6.28401 4.81676 5.61356C5.14914 4.9431 5.60511 4.42606 6.18465 4.06242C6.7642 3.69879 7.42613 3.51697 8.17045 3.51697C8.61079 3.51697 9.02414 3.58089 9.41051 3.70873C9.79971 3.83657 10.1506 4.02407 10.4631 4.27123C10.7756 4.51555 11.0369 4.81384 11.2472 5.16612C11.4574 5.51555 11.6023 5.91469 11.6818 6.36356Z" fill="black"/>
</g>
</svg>
