<svg width="16" height="16" viewBox="0 0 16 16" fill="none" xmlns="http://www.w3.org/2000/svg">
<path d="M4.29245 3.0211C4.29245 3.72318 3.7233 4.29232 3.02122 4.29232C2.31915 4.29232 1.75 3.72318 1.75 3.0211C1.75 2.31902 2.31915 1.74988 3.02122 1.74988C3.7233 1.74988 4.29245 2.31902 4.29245 3.0211Z" fill="black"/>
<path d="M4.29245 8.00004C4.29245 8.70212 3.7233 9.27126 3.02122 9.27126C2.31915 9.27126 1.75 8.70212 1.75 8.00004C1.75 7.29796 2.31915 6.72882 3.02122 6.72882C3.7233 6.72882 4.29245 7.29796 4.29245 8.00004Z" fill="black"/>
<path d="M3.02122 14.2502C3.7233 14.2502 4.29245 13.6811 4.29245 12.979C4.29245 12.2769 3.7233 11.7078 3.02122 11.7078C2.31915 11.7078 1.75 12.2769 1.75 12.979C1.75 13.6811 2.31915 14.2502 3.02122 14.2502Z" fill="black"/>
<path d="M9.27109 3.0211C9.27109 3.72318 8.70195 4.29232 7.99987 4.29232C7.29779 4.29232 6.72865 3.72318 6.72865 3.0211C6.72865 2.31902 7.29779 1.74988 7.99987 1.74988C8.70195 1.74988 9.27109 2.31902 9.27109 3.0211Z" fill="black"/>
<path d="M7.99987 9.27126C8.70195 9.27126 9.27109 8.70212 9.27109 8.00004C9.27109 7.29796 8.70195 6.72882 7.99987 6.72882C7.29779 6.72882 6.72865 7.29796 6.72865 8.00004C6.72865 8.70212 7.29779 9.27126 7.99987 9.27126Z" fill="black"/>
<path d="M9.27109 12.979C9.27109 13.6811 8.70195 14.2502 7.99987 14.2502C7.29779 14.2502 6.72865 13.6811 6.72865 12.979C6.72865 12.2769 7.29779 11.7078 7.99987 11.7078C8.70195 11.7078 9.27109 12.2769 9.27109 12.979Z" fill="black"/>
<path d="M12.9788 4.29232C13.6809 4.29232 14.25 3.72318 14.25 3.0211C14.25 2.31902 13.6809 1.74988 12.9788 1.74988C12.2767 1.74988 11.7076 2.31902 11.7076 3.0211C11.7076 3.72318 12.2767 4.29232 12.9788 4.29232Z" fill="black"/>
<path d="M14.25 8.00004C14.25 8.70212 13.6809 9.27126 12.9788 9.27126C12.2767 9.27126 11.7076 8.70212 11.7076 8.00004C11.7076 7.29796 12.2767 6.72882 12.9788 6.72882C13.6809 6.72882 14.25 7.29796 14.25 8.00004Z" fill="black"/>
<path d="M12.9788 14.2502C13.6809 14.2502 14.25 13.6811 14.25 12.979C14.25 12.2769 13.6809 11.7078 12.9788 11.7078C12.2767 11.7078 11.7076 12.2769 11.7076 12.979C11.7076 13.6811 12.2767 14.2502 12.9788 14.2502Z" fill="black"/>
</svg>
