<svg width="28" height="28" viewBox="0 0 28 28" fill="none" xmlns="http://www.w3.org/2000/svg">
<path fill-rule="evenodd" clip-rule="evenodd" d="M13.5757 20.0811C15.3721 21.8775 18.2847 21.8775 20.0811 20.0811C21.8775 18.2847 21.8775 15.3722 20.0811 13.5757L19.1569 12.6515C19.0788 12.5734 18.9521 12.5734 18.874 12.6515L18.3083 13.2172C18.2302 13.2953 18.2302 13.422 18.3083 13.5001L19.2326 14.4243C20.5603 15.7521 20.5603 17.9048 19.2325 19.2326C17.9048 20.5604 15.752 20.5604 14.4242 19.2326L13.5 18.3084C13.4219 18.2303 13.2953 18.2303 13.2172 18.3084L12.6515 18.8741C12.5734 18.9522 12.5734 19.0788 12.6515 19.1569L13.5757 20.0811Z" fill="black"/>
<path fill-rule="evenodd" clip-rule="evenodd" d="M14.4242 7.91896C12.6278 6.12255 9.71525 6.12255 7.91884 7.91896C6.12243 9.71537 6.12243 12.6279 7.91884 14.4243L8.84304 15.3485C8.92115 15.4267 9.04778 15.4267 9.12589 15.3485L9.69157 14.7829C9.76968 14.7048 9.76968 14.5781 9.69157 14.5L8.76737 13.5758C7.43959 12.248 7.43959 10.0953 8.76737 8.76749C10.0952 7.43971 12.2479 7.43971 13.5757 8.76749L14.4999 9.6917C14.578 9.7698 14.7046 9.7698 14.7827 9.6917L15.3484 9.12601C15.4265 9.04791 15.4265 8.92127 15.3484 8.84317L14.4242 7.91896Z" fill="black"/>
<path d="M11.3199 12.1685C11.2809 12.1295 11.2809 12.0661 11.3199 12.0271L12.027 11.32C12.0661 11.2809 12.1294 11.2809 12.1685 11.32L16.68 15.8316C16.7191 15.8706 16.7191 15.9339 16.68 15.973L15.9729 16.6801C15.9339 16.7191 15.8706 16.7191 15.8315 16.6801L11.3199 12.1685Z" fill="black"/>
</svg>
