<svg width="28" height="28" viewBox="0 0 28 28" fill="none" xmlns="http://www.w3.org/2000/svg">
<path fill-rule="evenodd" clip-rule="evenodd" d="M12.0844 7.10896C12.0844 6.09685 12.9049 5.27637 13.917 5.27637C14.9291 5.27637 15.7496 6.09685 15.7496 7.10896V8.00732C15.9881 7.89373 16.255 7.83015 16.5367 7.83015C17.5488 7.83015 18.3693 8.65063 18.3693 9.66275V10.0627C18.6074 9.94937 18.8739 9.88596 19.1551 9.88596C20.1665 9.88596 20.9863 10.7058 20.9863 11.7172V16.2687C20.9863 19.7383 18.1737 22.5509 14.7041 22.5509H14.2695C12.7263 22.5509 11.2619 21.8697 10.2678 20.6894L6.34842 16.036C5.7165 15.0481 6.03673 13.7322 7.05234 13.1458C7.848 12.6864 8.82299 12.8191 9.46727 13.407V9.10242C9.46727 8.09108 10.2871 7.27123 11.2985 7.27123C11.5798 7.27123 11.8462 7.33466 12.0844 7.44799V7.10896ZM10.5137 14.9621C10.5137 15.123 10.3401 15.2239 10.2007 15.1437C9.77284 14.8976 9.04766 14.4796 8.95585 14.4219C8.85099 14.3559 8.05883 13.773 7.57554 14.052C7.07652 14.3401 6.91908 14.9865 7.22973 15.4718L7.23034 15.4728C7.23034 15.4728 8.76168 17.5262 9.88535 18.7113C10.3662 19.2184 10.8612 19.7553 11.3264 20.1911C11.5903 20.4383 11.8439 20.6556 12.0662 20.8365C12.5703 21.2467 13.1943 21.466 13.8409 21.5315C17.2338 21.8752 20.1553 19.1568 20.0566 15.7479L19.9399 11.7172C19.9399 11.2837 19.5885 10.9324 19.1551 10.9324C18.7217 10.9324 18.3703 11.2837 18.3703 11.7172V14.9216C18.3703 15.0372 18.2766 15.1309 18.161 15.1309H17.5332C17.4176 15.1309 17.3239 15.0372 17.3239 14.9216L17.3229 9.66275C17.3229 9.22854 16.9709 8.87655 16.5367 8.87655C16.1025 8.87655 15.7505 9.22854 15.7505 9.66275V14.0822C15.7505 14.1977 15.6568 14.2914 15.5412 14.2914H14.9134C14.7978 14.2914 14.7041 14.1978 14.7041 14.0822L14.7032 7.10896C14.7032 6.67476 14.3512 6.32276 13.917 6.32276C13.4828 6.32276 13.1308 6.67476 13.1308 7.10896V13.226H13.1297V13.5232C13.1297 13.6388 13.036 13.7325 12.9204 13.7325H12.2925C12.177 13.7325 12.0833 13.6388 12.0833 13.5232V9.10242C12.0833 8.66899 11.7319 8.31762 11.2985 8.31762C10.865 8.31762 10.5137 8.66899 10.5137 9.10242V14.9621Z" fill="black"/>
</svg>
