<svg width="28" height="28" viewBox="0 0 28 28" fill="none" xmlns="http://www.w3.org/2000/svg">
<path fill-rule="evenodd" clip-rule="evenodd" d="M7.53133 6.33904C7.4853 5.95831 7.87221 5.67293 8.22236 5.82932L17.9758 10.1856C18.137 10.2576 18.2474 10.4102 18.2654 10.5859L18.6751 14.5872L20.93 17.6167C21.0927 17.8353 21.0473 18.1444 20.8288 18.3071L15.8343 22.0244C15.6157 22.1871 15.3066 22.1418 15.144 21.9232L12.8912 18.8965L9.12686 17.395C8.95923 17.3282 8.84149 17.1751 8.81983 16.996L7.53133 6.33904ZM9.7465 16.6006L8.70865 8.01676L12.1743 12.6731C11.8325 13.1779 11.8282 13.8639 12.2128 14.3807C12.699 15.034 13.6229 15.1694 14.2762 14.6831C14.9296 14.1969 15.065 13.273 14.5787 12.6197C14.1931 12.1016 13.5323 11.9092 12.9494 12.0942L9.49981 7.45942L17.3309 10.9571L17.726 14.8157C17.7351 14.9042 17.7679 14.9886 17.821 15.06L19.8709 17.8141L15.637 20.9653L13.5872 18.2113C13.5327 18.1381 13.459 18.0814 13.3742 18.0476L9.7465 16.6006Z" fill="black"/>
</svg>
