<svg width="16" height="16" viewBox="0 0 16 16" fill="none" xmlns="http://www.w3.org/2000/svg">
<path fill-rule="evenodd" clip-rule="evenodd" d="M2.35311 1.62606C2.31458 1.30737 2.63843 1.06849 2.93153 1.1994L11.0955 4.84578C11.2304 4.90604 11.3229 5.0338 11.3379 5.1808L11.6808 8.53004L13.5683 11.0659C13.7044 11.2489 13.6665 11.5076 13.4835 11.6438L9.30303 14.7553C9.12006 14.8915 8.86134 14.8535 8.72515 14.6706L6.83952 12.1371L3.68862 10.8803C3.54832 10.8244 3.44976 10.6963 3.43163 10.5463L2.35311 1.62606ZM4.20729 10.2154L3.33857 3.03037L6.23947 6.9279C5.95332 7.35047 5.94971 7.92465 6.27164 8.35718C6.67867 8.90405 7.45197 9.01741 7.99884 8.61038C8.54571 8.20335 8.65908 7.43006 8.25204 6.88318C7.92926 6.4495 7.37614 6.28845 6.88827 6.44335L4.0008 2.56386L10.5557 5.49157L10.8864 8.7213C10.894 8.79539 10.9215 8.86606 10.966 8.92581L12.6818 11.2311L9.13784 13.8688L7.42208 11.5636C7.37647 11.5023 7.31475 11.4548 7.24379 11.4265L4.20729 10.2154Z" fill="black"/>
</svg>
