<svg width="28" height="28" viewBox="0 0 28 28" fill="none" xmlns="http://www.w3.org/2000/svg">
<path d="M8.5 9.5C8.22386 9.5 8 9.72386 8 10V18C8 18.2761 8.22386 18.5 8.5 18.5H11C11.2761 18.5 11.5 18.2761 11.5 18V10C11.5 9.72386 11.2761 9.5 11 9.5H8.5Z" fill="black"/>
<path fill-rule="evenodd" clip-rule="evenodd" d="M5.5 8C5.5 7.44772 5.94772 7 6.5 7H21.5C22.0523 7 22.5 7.44772 22.5 8V20C22.5 20.5523 22.0523 21 21.5 21H6.5C5.94772 21 5.5 20.5523 5.5 20V8ZM6.7 19.8V8.2H21.3V19.8H6.7Z" fill="black"/>
</svg>
