<svg width="16" height="16" viewBox="0 0 16 16" fill="none" xmlns="http://www.w3.org/2000/svg">
<path fill-rule="evenodd" clip-rule="evenodd" d="M10.0977 2.131C9.90248 1.93574 9.5859 1.93574 9.39063 2.131C9.19537 2.32627 9.19537 2.64285 9.39063 2.83811L10.1144 3.56183L4.8885 7.48122L3.68664 6.27937C3.49138 6.0841 3.17479 6.0841 2.97953 6.27937C2.78427 6.47463 2.78427 6.79121 2.97953 6.98647L4.48803 8.49497L5.64374 9.65068C5.63544 9.65796 5.62732 9.66556 5.6194 9.67348L2.131 13.1619C1.93574 13.3571 1.93574 13.6737 2.131 13.869C2.32627 14.0642 2.64285 14.0642 2.83811 13.869L6.32651 10.3806C6.33443 10.3727 6.34202 10.3645 6.3493 10.3562L7.50501 11.512L9.01351 13.0204C9.20877 13.2157 9.52535 13.2157 9.72062 13.0204C9.91588 12.8252 9.91588 12.5086 9.72062 12.3133L8.51876 11.1115L12.4381 5.88563L13.1619 6.60935C13.3571 6.80461 13.6737 6.80461 13.869 6.60935C14.0642 6.41409 14.0642 6.0975 13.869 5.90224L12.7376 4.77087L11.2291 3.26238L10.0977 2.131ZM5.60278 8.19551L10.8286 4.27612L11.7239 5.17134L7.80447 10.3972L5.60278 8.19551Z" fill="black"/>
</svg>
