<svg width="16" height="16" viewBox="0 0 16 16" fill="none" xmlns="http://www.w3.org/2000/svg">
<path d="M12.3352 2.92469L9.74654 2.92484C9.65163 2.92485 9.5747 2.84791 9.5747 2.75301V2.06569C9.5747 1.97079 9.65162 1.89386 9.74652 1.89386L13.6598 1.89368C13.8971 1.89367 14.0894 2.08599 14.0894 2.32324L14.0896 6.29738C14.0896 6.39228 14.0127 6.46922 13.9178 6.46922H13.2304C13.1355 6.46922 13.0586 6.39229 13.0586 6.29739L13.0585 3.65945L7.07587 9.64205L9.71382 9.64217C9.80871 9.64218 9.88564 9.71911 9.88564 9.81401V10.5013C9.88564 10.5962 9.8087 10.6732 9.7138 10.6732L5.73966 10.673C5.50241 10.673 5.31009 10.4807 5.3101 10.2434L5.31028 6.3301C5.31028 6.2352 5.38721 6.15828 5.48211 6.15828H6.16943C6.26434 6.15828 6.34127 6.23521 6.34126 6.33012L6.34111 8.91879L12.3352 2.92469Z" fill="black"/>
<path d="M2.93089 3.28114C2.93089 3.09134 3.08475 2.93748 3.27455 2.93748H6.00543V1.90649H3.27455C2.51535 1.90649 1.8999 2.52194 1.8999 3.28114V12.7318C1.8999 13.491 2.51535 14.1065 3.27455 14.1065H12.7253C13.4844 14.1065 14.0999 13.491 14.0999 12.7318V10.001H13.0689V12.7318C13.0689 12.9216 12.9151 13.0755 12.7253 13.0755H3.27455C3.08475 13.0755 2.93089 12.9216 2.93089 12.7318V3.28114Z" fill="black"/>
</svg>
