<svg width="16" height="16" viewBox="0 0 16 16" fill="none" xmlns="http://www.w3.org/2000/svg">
<path fill-rule="evenodd" clip-rule="evenodd" d="M9.63528 10.3021C8.82592 10.9563 7.79571 11.348 6.67401 11.348C4.07038 11.348 1.95972 9.23733 1.95972 6.63373C1.95972 4.03009 4.07038 1.91943 6.67401 1.91943C9.27763 1.91943 11.3883 4.03009 11.3883 6.63373C11.3883 7.75544 10.9965 8.78566 10.3424 9.59502L14.0403 13.2929L13.3332 14L10.0728 10.7396C9.89954 10.5664 9.75033 10.4171 9.63528 10.3021ZM10.3883 6.63373C10.3883 4.58237 8.72535 2.91943 6.67401 2.91943C4.62266 2.91943 2.95972 4.58237 2.95972 6.63373C2.95972 8.68503 4.62266 10.348 6.67401 10.348C8.72535 10.348 10.3883 8.68503 10.3883 6.63373Z" fill="black" fill-opacity="0.9"/>
</svg>
