<svg width="16" height="16" viewBox="0 0 16 16" fill="none" xmlns="http://www.w3.org/2000/svg">
<path fill-rule="evenodd" clip-rule="evenodd" d="M10.8414 2.12854C10.6461 1.93326 10.3296 1.93322 10.1343 2.12846C9.939 2.3237 9.93896 2.64028 10.1342 2.83557L11.5089 4.21057H2.8042C2.52806 4.21057 2.3042 4.43443 2.3042 4.71057C2.3042 4.98671 2.52806 5.21057 2.8042 5.21057H11.5081L10.1343 6.5842C9.93899 6.77945 9.93896 7.09603 10.1342 7.29131C10.3295 7.48659 10.646 7.48662 10.8413 7.29137L13.0691 5.06397C13.2644 4.86873 13.2644 4.55216 13.0692 4.35687L10.8414 2.12854ZM5.75282 9.41565C5.94806 9.22037 5.94803 8.90379 5.75274 8.70854C5.55746 8.5133 5.24088 8.51333 5.04564 8.70862L2.8178 10.9369C2.62256 11.1322 2.62259 11.4488 2.81787 11.644L5.04571 13.8714C5.24099 14.0667 5.55757 14.0666 5.75282 13.8714C5.94806 13.6761 5.94803 13.3595 5.75275 13.1642L4.37888 11.7906H13.1957C13.4718 11.7906 13.6957 11.5668 13.6957 11.2906C13.6957 11.0145 13.4718 10.7906 13.1957 10.7906H4.3781L5.75282 9.41565Z" fill="black" fill-opacity="0.9"/>
</svg>
