<svg width="16" height="16" viewBox="0 0 16 16" fill="none" xmlns="http://www.w3.org/2000/svg">
<path d="M15.0115 12.0042C15.0115 12.2803 14.7876 12.5042 14.5115 12.5042L1.51146 12.5042C1.23532 12.5042 1.01146 12.2803 1.01146 12.0042C1.01146 11.728 1.23532 11.5042 1.51146 11.5042L14.5115 11.5042C14.7876 11.5042 15.0115 11.728 15.0115 12.0042Z" fill="black"/>
<path d="M10.3099 8.03022C10.4901 8.20138 10.4974 8.48621 10.3263 8.6664L8.32627 10.772C8.24131 10.8614 8.12336 10.9121 8 10.9121C7.87664 10.9121 7.75869 10.8614 7.67373 10.772L5.67373 8.6664C5.50257 8.48621 5.50989 8.20138 5.69009 8.03022C5.87028 7.85906 6.15511 7.86638 6.32627 8.04658L7.55 9.3349V4.13923L6.32627 5.42755C6.15511 5.60775 5.87028 5.61507 5.69009 5.44391C5.50989 5.27275 5.50257 4.98792 5.67373 4.80773L7.67373 2.70215C7.75869 2.61271 7.87664 2.56206 8 2.56206C8.12336 2.56206 8.24131 2.61271 8.32627 2.70215L10.3263 4.80773C10.4974 4.98792 10.4901 5.27275 10.3099 5.44391C10.1297 5.61507 9.84489 5.60775 9.67373 5.42755L8.45 4.13923V9.3349L9.67373 8.04658C9.84489 7.86638 10.1297 7.85906 10.3099 8.03022Z" fill="black"/>
<path d="M14.5 2.00006C14.7761 2.00006 15 1.7762 15 1.50006C15 1.22392 14.7761 1.00006 14.5 1.00006H1.5C1.22386 1.00006 1 1.22392 1 1.50006C1 1.7762 1.22386 2.00006 1.5 2.00006L14.5 2.00006Z" fill="black"/>
<path d="M14.5 15C14.7761 15 15 14.7761 15 14.5C15 14.2239 14.7761 14 14.5 14L1.5 14C1.22386 14 1 14.2239 1 14.5C1 14.7761 1.22386 15 1.5 15L14.5 15Z" fill="black"/>
</svg>
