<svg width="16" height="16" viewBox="0 0 16 16" fill="none" xmlns="http://www.w3.org/2000/svg">
<path d="M14.9932 1.51007C14.9932 1.23393 14.7694 1.01007 14.4932 1.01007C14.2171 1.01007 13.9932 1.23393 13.9932 1.51007L13.9932 14.5101C13.9932 14.7862 14.2171 15.0101 14.4932 15.0101C14.7694 15.0101 14.9932 14.7862 14.9932 14.5101L14.9932 1.51007Z" fill="black"/>
<path d="M2.00671 1.51007C2.00671 1.23393 1.78286 1.01007 1.50671 1.01007C1.23057 1.01007 1.00671 1.23393 1.00671 1.51007V14.5101C1.00671 14.7862 1.23057 15.0101 1.50671 15.0101C1.78286 15.0101 2.00672 14.7862 2.00671 14.5101L2.00671 1.51007Z" fill="black"/>
<path fill-rule="evenodd" clip-rule="evenodd" d="M8 3.49542C8.2248 3.49542 8.42581 3.63542 8.50375 3.84627L11.4339 11.773C11.5367 12.0512 11.3946 12.3601 11.1164 12.4629C10.8382 12.5658 10.5292 12.4236 10.4264 12.1454L9.47727 9.57777H6.52274L5.5736 12.1454C5.47076 12.4236 5.16186 12.5658 4.88365 12.4629C4.60544 12.3601 4.46327 12.0512 4.56611 11.773L7.49626 3.84627C7.5742 3.63542 7.77521 3.49542 8 3.49542ZM8 5.58143L9.13977 8.66477H6.86023L8 5.58143Z" fill="black"/>
</svg>
