<svg width="16" height="16" viewBox="0 0 16 16" fill="none" xmlns="http://www.w3.org/2000/svg">
<path fill-rule="evenodd" clip-rule="evenodd" d="M1.5 3.50183C1.22386 3.50183 1 3.72569 1 4.00183C1 4.27797 1.22386 4.50183 1.5 4.50183H14.5C14.7761 4.50183 15 4.27797 15 4.00183C15 3.72569 14.7761 3.50183 14.5 3.50183H1.5ZM1 8.00002C1 7.72388 1.22386 7.50002 1.5 7.50002H14.5C14.7761 7.50002 15 7.72388 15 8.00002C15 8.27616 14.7761 8.50002 14.5 8.50002H1.5C1.22386 8.50002 1 8.27616 1 8.00002ZM1 11.996C1 11.7199 1.22386 11.496 1.5 11.496H14.5C14.7761 11.496 15 11.7199 15 11.996C15 12.2722 14.7761 12.496 14.5 12.496H1.5C1.22386 12.496 1 12.2722 1 11.996Z" fill="black"/>
</svg>
