<svg width="16" height="16" viewBox="0 0 16 16" fill="none" xmlns="http://www.w3.org/2000/svg">
<path fill-rule="evenodd" clip-rule="evenodd" d="M1.9366 4.1C2.37842 4.1 2.7366 3.74183 2.7366 3.3C2.7366 2.85817 2.37842 2.5 1.9366 2.5C1.49477 2.5 1.1366 2.85817 1.1366 3.3C1.1366 3.74183 1.49477 4.1 1.9366 4.1ZM4.94995 3.29998C4.94995 3.02384 5.1738 2.79998 5.44995 2.79998H14.4499C14.7261 2.79998 14.9499 3.02384 14.9499 3.29998C14.9499 3.57612 14.7261 3.79998 14.4499 3.79998H5.44995C5.1738 3.79998 4.94995 3.57612 4.94995 3.29998ZM5.44995 7.49999C5.1738 7.49999 4.94995 7.72385 4.94995 7.99999C4.94995 8.27614 5.1738 8.49999 5.44995 8.49999H14.4499C14.7261 8.49999 14.9499 8.27614 14.9499 7.99999C14.9499 7.72385 14.7261 7.49999 14.4499 7.49999H5.44995ZM5.44995 12.2C5.1738 12.2 4.94995 12.4239 4.94995 12.7C4.94995 12.9761 5.1738 13.2 5.44995 13.2H14.4499C14.7261 13.2 14.9499 12.9761 14.9499 12.7C14.9499 12.4239 14.7261 12.2 14.4499 12.2H5.44995ZM2.7366 7.90001C2.7366 8.34183 2.37842 8.70001 1.9366 8.70001C1.49477 8.70001 1.1366 8.34183 1.1366 7.90001C1.1366 7.45818 1.49477 7.10001 1.9366 7.10001C2.37842 7.10001 2.7366 7.45818 2.7366 7.90001ZM1.9366 13.3C2.37842 13.3 2.7366 12.9418 2.7366 12.5C2.7366 12.0582 2.37842 11.7 1.9366 11.7C1.49477 11.7 1.1366 12.0582 1.1366 12.5C1.1366 12.9418 1.49477 13.3 1.9366 13.3Z" fill="black"/>
</svg>
