<svg width="16" height="16" viewBox="0 0 16 16" fill="none" xmlns="http://www.w3.org/2000/svg">
<rect width="16" height="16" rx="2" fill="#C58709"/>
<ellipse cx="11.4711" cy="11.2569" rx="0.8" ry="0.8" fill="black"/>
<path d="M9.33813 6.45569C9.33813 5.38902 10.2448 4.45569 11.4715 4.45569C12.6981 4.45569 13.6048 5.38902 13.6048 6.45569C13.6048 8.15702 11.4715 8.13569 11.4715 9.06902" stroke="black" stroke-linecap="round"/>
<path fill-rule="evenodd" clip-rule="evenodd" d="M5.55066 4.23167C5.4781 4.03537 5.29096 3.90503 5.08168 3.90503C4.87239 3.90503 4.68526 4.03537 4.61269 4.23167L1.95498 11.4214C1.85924 11.6804 1.99159 11.968 2.2506 12.0637C2.50961 12.1595 2.7972 12.0271 2.89295 11.7681L3.72371 9.52069H6.43964L7.2704 11.7681C7.36615 12.0271 7.65374 12.1595 7.91275 12.0637C8.17176 11.968 8.30412 11.6804 8.20837 11.4214L5.55066 4.23167ZM6.06998 8.52069L5.08168 5.8471L4.09337 8.52069H6.06998Z" fill="black"/>
</svg>
