<svg width="16" height="16" viewBox="0 0 16 16" fill="none" xmlns="http://www.w3.org/2000/svg">
<path fill-rule="evenodd" clip-rule="evenodd" d="M1.30005 4.00134C1.30005 3.7252 1.52391 3.50134 1.80005 3.50134H14.2001C14.4762 3.50134 14.7001 3.7252 14.7001 4.00134C14.7001 4.27749 14.4762 4.50134 14.2001 4.50134H1.80005C1.52391 4.50134 1.30005 4.27749 1.30005 4.00134ZM1.30005 7.99997C1.30005 7.72383 1.52391 7.49997 1.80005 7.49997H8.20005C8.47619 7.49997 8.70005 7.72383 8.70005 7.99997C8.70005 8.27611 8.47619 8.49997 8.20005 8.49997H1.80005C1.52391 8.49997 1.30005 8.27611 1.30005 7.99997ZM1.30005 11.9986C1.30005 11.7225 1.52391 11.4986 1.80005 11.4986H10.2001C10.4762 11.4986 10.7001 11.7225 10.7001 11.9986C10.7001 12.2747 10.4762 12.4986 10.2001 12.4986H1.80005C1.52391 12.4986 1.30005 12.2747 1.30005 11.9986Z" fill="black"/>
</svg>
