<svg width="28" height="28" viewBox="0 0 28 28" fill="none" xmlns="http://www.w3.org/2000/svg">
<path d="M10.7562 21.6652C10.7025 21.6652 10.659 21.6217 10.659 21.5681L10.659 20.5962C10.659 20.5426 10.7025 20.4991 10.7562 20.4991L17.2106 20.4991C17.2643 20.4991 17.3078 20.5426 17.3078 20.5962V21.5681C17.3078 21.6217 17.2643 21.6652 17.2106 21.6652H10.7562Z" fill="black"/>
<path d="M14.6335 21.5681C14.6335 21.6217 14.59 21.6653 14.5363 21.6653H13.5645C13.5108 21.6653 13.4673 21.6217 13.4673 21.5681L13.4673 6.43202C13.4673 6.37835 13.5108 6.33484 13.5645 6.33484L14.5363 6.33484C14.59 6.33484 14.6335 6.37835 14.6335 6.43202L14.6335 21.5681Z" fill="black"/>
<path d="M21.2498 9.80749C21.2498 9.86117 21.2062 9.90468 21.1526 9.90468H20.1808C20.1271 9.90468 20.0836 9.86117 20.0836 9.80749V6.43202C20.0836 6.37835 20.1271 6.33484 20.1807 6.33484L21.1526 6.33484C21.2062 6.33484 21.2498 6.37835 21.2498 6.43202V9.80749Z" fill="black"/>
<path d="M7.91594 9.80749C7.91594 9.86117 7.87243 9.90468 7.81876 9.90468H6.84694C6.79327 9.90468 6.74976 9.86117 6.74976 9.80749L6.74976 6.43202C6.74976 6.37835 6.79327 6.33484 6.84694 6.33484L7.81876 6.33484C7.87243 6.33484 7.91594 6.37835 7.91594 6.43202L7.91594 9.80749Z" fill="black"/>
<path d="M6.84694 7.50094C6.79327 7.50094 6.74976 7.45743 6.74976 7.40375L6.74976 6.43202C6.74976 6.37835 6.79327 6.33484 6.84694 6.33484L21.1526 6.33484C21.2062 6.33484 21.2498 6.37835 21.2498 6.43202V7.40375C21.2498 7.45743 21.2062 7.50094 21.1526 7.50094L6.84694 7.50094Z" fill="black"/>
</svg>
