<svg width="16" height="16" viewBox="0 0 16 16" fill="none" xmlns="http://www.w3.org/2000/svg">
<path d="M1 1.51685C1 1.2407 1.22386 1.01685 1.5 1.01685H14.5C14.7761 1.01685 15 1.2407 15 1.51685C15 1.79299 14.7761 2.01685 14.5 2.01685L1.5 2.01685C1.22386 2.01685 1 1.79299 1 1.51685Z" fill="black"/>
<path d="M1 14.5034C1 14.2272 1.22386 14.0034 1.5 14.0034L14.5 14.0034C14.7761 14.0034 15 14.2272 15 14.5034C15 14.7795 14.7761 15.0034 14.5 15.0034L1.5 15.0034C1.22386 15.0034 1 14.7795 1 14.5034Z" fill="black"/>
<path fill-rule="evenodd" clip-rule="evenodd" d="M8 3.49542C8.2248 3.49542 8.42581 3.63542 8.50375 3.84627L11.4339 11.773C11.5367 12.0512 11.3946 12.3601 11.1164 12.4629C10.8382 12.5658 10.5292 12.4236 10.4264 12.1454L9.47727 9.57777H6.52274L5.5736 12.1454C5.47076 12.4236 5.16186 12.5658 4.88365 12.4629C4.60544 12.3601 4.46327 12.0512 4.56611 11.773L7.49626 3.84627C7.5742 3.63542 7.77521 3.49542 8 3.49542ZM8 5.58143L9.13977 8.66477H6.86023L8 5.58143Z" fill="black"/>
</svg>
