<svg width="16" height="16" viewBox="0 0 16 16" fill="none" xmlns="http://www.w3.org/2000/svg">
<path d="M3.1131 5.17861C3.05064 5.17861 3 5.12798 3 5.06551V2.93971C3 2.92409 3.00158 2.90884 3.0046 2.89412C3.02569 2.79104 3.11689 2.7135 3.2262 2.7135H12.7738C12.7816 2.7135 12.7893 2.7139 12.7969 2.71467C12.8046 2.71545 12.8122 2.71662 12.8196 2.71815L12.8224 2.71874C12.924 2.74098 13 2.83147 13 2.93971V5.06551C13 5.12798 12.9494 5.17861 12.8869 5.17861H12.3088C12.2464 5.17861 12.1957 5.12798 12.1957 5.06551V3.51779H8.44415L8.44415 12.4823H10.1842C10.2467 12.4823 10.2973 12.5329 10.2973 12.5954V13.1735C10.2973 13.2359 10.2467 13.2866 10.1842 13.2866H5.81556C5.7531 13.2866 5.70246 13.2359 5.70246 13.1735V12.5954C5.70246 12.5329 5.7531 12.4823 5.81556 12.4823H7.63989L7.63989 3.51779H3.80426L3.80426 5.06551C3.80426 5.12798 3.75362 5.17861 3.69116 5.17861H3.1131Z" fill="black" fill-opacity="0.9"/>
</svg>
