<svg width="16" height="16" viewBox="0 0 16 16" fill="none" xmlns="http://www.w3.org/2000/svg">
<path fill-rule="evenodd" clip-rule="evenodd" d="M14.7001 4.00134C14.7001 3.7252 14.4762 3.50134 14.2001 3.50134H1.80005C1.52391 3.50134 1.30005 3.7252 1.30005 4.00134C1.30005 4.27749 1.52391 4.50134 1.80005 4.50134H14.2001C14.4762 4.50134 14.7001 4.27749 14.7001 4.00134ZM14.7001 7.99997C14.7001 7.72383 14.4762 7.49997 14.2001 7.49997H7.80007C7.52393 7.49997 7.30007 7.72383 7.30007 7.99997C7.30007 8.27611 7.52393 8.49997 7.80007 8.49997H14.2001C14.4762 8.49997 14.7001 8.27611 14.7001 7.99997ZM14.7001 11.9986C14.7001 11.7225 14.4762 11.4986 14.2001 11.4986H5.80005C5.52391 11.4986 5.30005 11.7225 5.30005 11.9986C5.30005 12.2747 5.52391 12.4986 5.80005 12.4986H14.2001C14.4762 12.4986 14.7001 12.2747 14.7001 11.9986Z" fill="black"/>
</svg>
