<svg width="16" height="16" viewBox="0 0 16 16" fill="none" xmlns="http://www.w3.org/2000/svg">
<path fill-rule="evenodd" clip-rule="evenodd" d="M6.62269 2.5H6.60006H3.00006C2.72392 2.5 2.50006 2.72386 2.50006 3C2.50006 3.27614 2.72392 3.5 3.00006 3.5H6.60006C7.72842 3.5 8.54461 3.50039 9.18654 3.55284C9.82263 3.60481 10.2434 3.70539 10.589 3.88148C11.2476 4.21703 11.783 4.75247 12.1186 5.41103C12.2947 5.75662 12.3953 6.17744 12.4472 6.81352C12.4997 7.45545 12.5001 8.27164 12.5001 9.4V13C12.5001 13.2761 12.7239 13.5 13.0001 13.5C13.2762 13.5 13.5001 13.2761 13.5001 13V9.4V9.37737C13.5001 8.27641 13.5001 7.41948 13.4439 6.73209C13.3869 6.03416 13.2695 5.4671 13.0096 4.95704C12.5782 4.11031 11.8897 3.4219 11.043 2.99047C10.533 2.73058 9.9659 2.61318 9.26797 2.55616C8.58058 2.5 7.72365 2.5 6.62269 2.5Z" fill="black"/>
</svg>
