<svg width="16" height="16" viewBox="0 0 16 16" fill="none" xmlns="http://www.w3.org/2000/svg">
<path fill-rule="evenodd" clip-rule="evenodd" d="M3.40353 2.56532C3.28364 2.31656 2.98479 2.21209 2.73603 2.33199C2.48728 2.45188 2.38281 2.75073 2.5027 2.99949L7.60231 13.5804C7.68619 13.7545 7.86284 13.8646 8.05603 13.8633C8.24923 13.862 8.4244 13.7496 8.50598 13.5744L13.5021 2.84782C13.6187 2.5975 13.5103 2.30006 13.2599 2.18347C13.0096 2.06688 12.7122 2.17529 12.5956 2.42561L9.98289 8.03504C9.35776 7.83518 8.69188 7.72741 8.00159 7.72741C7.31751 7.72741 6.65738 7.83325 6.03715 8.02968L3.40353 2.56532ZM6.47659 8.94144L8.04501 12.1957L9.55665 8.95019C9.06397 8.80526 8.5422 8.72741 8.00159 8.72741C7.47196 8.72741 6.96042 8.80213 6.47659 8.94144Z" fill="black" fill-opacity="0.9"/>
</svg>
