<svg width="16" height="16" viewBox="0 0 16 16" fill="none" xmlns="http://www.w3.org/2000/svg">
<path fill-rule="evenodd" clip-rule="evenodd" d="M10.8992 2.84441C11.1132 2.06925 11.8235 1.5 12.6667 1.5C13.6792 1.5 14.5 2.32081 14.5 3.33333C14.5 4.34586 13.6792 5.16667 12.6667 5.16667C11.8319 5.16667 11.1275 4.60878 10.9058 3.84552C9.07257 3.95011 7.33546 4.72461 6.03003 6.03003C4.72461 7.33546 3.95011 9.07257 3.84552 10.9058C4.60878 11.1275 5.16667 11.8319 5.16667 12.6667C5.16667 13.6792 4.34586 14.5 3.33333 14.5C2.32081 14.5 1.5 13.6792 1.5 12.6667C1.5 11.8235 2.06925 11.1132 2.84441 10.8993C2.95152 8.803 3.83148 6.81437 5.32293 5.32293C6.81437 3.83148 8.80299 2.95153 10.8992 2.84441ZM12.6667 2.5C12.2064 2.5 11.8333 2.8731 11.8333 3.33333C11.8333 3.79357 12.2064 4.16667 12.6667 4.16667C13.1269 4.16667 13.5 3.79357 13.5 3.33333C13.5 2.8731 13.1269 2.5 12.6667 2.5ZM3.33333 11.8333C2.8731 11.8333 2.5 12.2064 2.5 12.6667C2.5 13.1269 2.8731 13.5 3.33333 13.5C3.79357 13.5 4.16667 13.1269 4.16667 12.6667C4.16667 12.2064 3.79357 11.8333 3.33333 11.8333Z" fill="black" fill-opacity="0.9"/>
</svg>
