<svg width="16" height="16" viewBox="0 0 16 16" fill="none" xmlns="http://www.w3.org/2000/svg">
<path fill-rule="evenodd" clip-rule="evenodd" d="M6.95328 2.09221C6.13774 2.26119 5.48371 2.93026 5.31618 3.80763L4.82505 3.71385L5.31618 3.80763C5.27772 4.009 5.27549 4.2625 5.27548 4.90984L5.27548 5.85033C5.27548 6.12647 5.05163 6.35033 4.77548 6.35033C4.49934 6.35033 4.27548 6.12647 4.27548 5.85033L4.27548 4.90984C4.27548 4.88891 4.27548 4.86826 4.27548 4.84788C4.27541 4.28286 4.27536 3.92676 4.33393 3.62006C4.57348 2.36554 5.51932 1.36809 6.75039 1.11301C7.05055 1.05082 7.39806 1.05088 7.93541 1.05097C7.95664 1.05097 7.97816 1.05098 8 1.05098C8.02182 1.05098 8.04334 1.05098 8.06456 1.05097C8.60192 1.05088 8.94943 1.05082 9.2496 1.11301C10.4807 1.36809 11.4265 2.36554 11.6661 3.62006C11.7246 3.92677 11.7246 4.28287 11.7245 4.84791C11.7245 4.86828 11.7245 4.88892 11.7245 4.90984V5.85033C11.7245 6.12647 11.5006 6.35033 11.2245 6.35033C10.9484 6.35033 10.7245 6.12647 10.7245 5.85033L10.7245 4.90984C10.7245 4.2625 10.7223 4.009 10.6838 3.80763C10.5163 2.93026 9.86225 2.26119 9.04671 2.09221C8.86035 2.0536 8.62422 2.05098 8 2.05098C7.37577 2.05098 7.13964 2.0536 6.95328 2.09221ZM4.77548 9.64967C5.05163 9.64967 5.27548 9.87353 5.27548 10.1497L5.27548 11.0902C5.27548 11.7375 5.27772 11.991 5.31618 12.1924C5.48371 13.0697 6.13774 13.7388 6.95328 13.9078C7.13964 13.9464 7.37577 13.949 7.99999 13.949C8.62422 13.949 8.86035 13.9464 9.04671 13.9078C9.86225 13.7388 10.5163 13.0697 10.6838 12.1924C10.7223 11.991 10.7245 11.7375 10.7245 11.0902L10.7245 10.1497C10.7245 9.87353 10.9484 9.64967 11.2245 9.64967C11.5006 9.64967 11.7245 9.87353 11.7245 10.1497V11.0902C11.7245 11.1111 11.7245 11.1317 11.7245 11.1521C11.7246 11.7171 11.7246 12.0732 11.6661 12.3799C11.4265 13.6345 10.4807 14.6319 9.2496 14.887C8.94944 14.9492 8.60193 14.9491 8.06458 14.949C8.04335 14.949 8.02183 14.949 7.99999 14.949C7.97817 14.949 7.95666 14.949 7.93544 14.949C7.39807 14.9491 7.05056 14.9492 6.75039 14.887C5.51932 14.6319 4.57348 13.6345 4.33392 12.3799C4.27536 12.0732 4.2754 11.7171 4.27548 11.1521C4.27548 11.1317 4.27548 11.1111 4.27548 11.0902L4.27548 10.1497C4.27548 9.87353 4.49934 9.64967 4.77548 9.64967Z" fill="black"/>
</svg>
