<svg width="16" height="16" viewBox="0 0 16 16" fill="none" xmlns="http://www.w3.org/2000/svg">
<path fill-rule="evenodd" clip-rule="evenodd" d="M5.31618 3.80763C5.48371 2.93026 6.13774 2.26119 6.95328 2.09221C7.13964 2.0536 7.37577 2.05098 7.99999 2.05098C8.62422 2.05098 8.86035 2.0536 9.04671 2.09221C9.86225 2.26119 10.5163 2.93026 10.6838 3.80763C10.7223 4.009 10.7245 4.26251 10.7245 4.90984L10.7245 5.85033C10.7245 6.12647 10.9484 6.35033 11.2245 6.35033C11.5006 6.35033 11.7245 6.12647 11.7245 5.85033V4.90984L11.7245 4.84787C11.7246 4.28285 11.7246 3.92676 11.6661 3.62006C11.4265 2.36554 10.4807 1.36809 9.2496 1.11301C8.94944 1.05082 8.60192 1.05088 8.06457 1.05097L7.99999 1.05098L7.93541 1.05097L7.93539 1.05097C7.39805 1.05088 7.05055 1.05082 6.75039 1.11301C5.51932 1.36809 4.57348 2.36554 4.33392 3.62006C4.27536 3.92677 4.2754 4.28286 4.27548 4.8479L4.27548 4.90984L4.27548 5.85033C4.27548 6.12647 4.49934 6.35033 4.77548 6.35033C5.05163 6.35033 5.27548 6.12647 5.27548 5.85033L5.27548 4.90984C5.27548 4.26251 5.27772 4.009 5.31618 3.80763ZM5.27548 10.1497C5.27548 9.87353 5.05163 9.64967 4.77548 9.64967C4.49934 9.64967 4.27548 9.87353 4.27548 10.1497L4.27548 11.0902L4.27548 11.1521C4.2754 11.7171 4.27536 12.0732 4.33392 12.3799C4.57348 13.6345 5.51932 14.6319 6.75039 14.887C7.05055 14.9492 7.39806 14.9491 7.93542 14.949L7.99999 14.949L8.06456 14.949C8.60192 14.9491 8.94943 14.9492 9.2496 14.887C10.4807 14.6319 11.4265 13.6345 11.6661 12.3799C11.7246 12.0732 11.7246 11.7171 11.7245 11.1521L11.7245 11.0902V10.1497C11.7245 9.87353 11.5006 9.64967 11.2245 9.64967C10.9484 9.64967 10.7245 9.87353 10.7245 10.1497V11.0902C10.7245 11.7375 10.7223 11.991 10.6838 12.1924C10.5163 13.0697 9.86225 13.7388 9.04671 13.9078C8.86035 13.9464 8.62422 13.949 7.99999 13.949C7.37577 13.949 7.13964 13.9464 6.95328 13.9078C6.13774 13.7388 5.48371 13.0697 5.31618 12.1924C5.27772 11.991 5.27548 11.7375 5.27548 11.0902L5.27548 10.1497ZM8.50003 5.43507C8.50003 5.15893 8.27617 4.93507 8.00003 4.93507C7.72389 4.93507 7.50003 5.15893 7.50003 5.43507V10.5636C7.50003 10.8397 7.72389 11.0636 8.00003 11.0636C8.27617 11.0636 8.50003 10.8397 8.50003 10.5636L8.50003 5.43507Z" fill="black"/>
</svg>
