<svg width="16" height="16" viewBox="0 0 16 16" fill="none" xmlns="http://www.w3.org/2000/svg">
<path fill-rule="evenodd" clip-rule="evenodd" d="M9.37737 13.5H9.4L13 13.5C13.2761 13.5 13.5 13.2761 13.5 13C13.5 12.7239 13.2761 12.5 13 12.5L9.4 12.5C8.27164 12.5 7.45545 12.4996 6.81352 12.4472C6.17743 12.3952 5.75662 12.2946 5.41103 12.1185C4.75246 11.783 4.21703 11.2475 3.88148 10.589C3.70539 10.2434 3.60481 9.82256 3.55284 9.18648C3.50039 8.54455 3.5 7.72836 3.5 6.6L3.5 3C3.5 2.72386 3.27614 2.5 3 2.5C2.72386 2.5 2.5 2.72386 2.5 3L2.5 6.6L2.5 6.62263C2.5 7.72359 2.49999 8.58052 2.55616 9.26791C2.61318 9.96584 2.73058 10.5329 2.99047 11.043C3.4219 11.8897 4.11031 12.5781 4.95704 13.0095C5.4671 13.2694 6.03416 13.3868 6.73209 13.4438C7.41948 13.5 8.27641 13.5 9.37737 13.5Z" fill="black"/>
</svg>
