<svg width="16" height="16" viewBox="0 0 16 16" fill="none" xmlns="http://www.w3.org/2000/svg">
<path d="M1.51271 3.49738C1.51271 2.39281 2.40814 1.49738 3.51271 1.49738H6.01271V2.49738H3.51271C2.96043 2.49738 2.51271 2.94509 2.51271 3.49738V5.99738H1.51271V3.49738Z" fill="black"/>
<path d="M12.5039 2.4975H10.0039V1.4975H12.5039C13.6085 1.4975 14.5039 2.39293 14.5039 3.4975V5.9975H13.5039V3.4975C13.5039 2.94521 13.0562 2.4975 12.5039 2.4975Z" fill="black"/>
<path d="M1.5127 12.5035L1.5127 10.0035H2.5127L2.5127 12.5035C2.5127 13.0558 2.96041 13.5035 3.5127 13.5035H6.0127V14.5035H3.5127C2.40813 14.5035 1.5127 13.6081 1.5127 12.5035Z" fill="black"/>
<path d="M13.5039 12.5036V10.0036H14.5039V12.5036C14.5039 13.6082 13.6085 14.5036 12.5039 14.5036H10.0039V13.5036H12.5039C13.0562 13.5036 13.5039 13.0559 13.5039 12.5036Z" fill="black"/>
</svg>
