<svg width="16" height="16" viewBox="0 0 16 16" fill="none" xmlns="http://www.w3.org/2000/svg">
<path fill-rule="evenodd" clip-rule="evenodd" d="M6.62263 13.5H6.6L3 13.5C2.72386 13.5 2.5 13.2761 2.5 13C2.5 12.7239 2.72386 12.5 3 12.5L6.6 12.5C7.72836 12.5 8.54455 12.4996 9.18648 12.4472C9.82256 12.3952 10.2434 12.2946 10.589 12.1185C11.2475 11.783 11.783 11.2475 12.1185 10.589C12.2946 10.2434 12.3952 9.82256 12.4472 9.18648C12.4996 8.54455 12.5 7.72836 12.5 6.6L12.5 3C12.5 2.72386 12.7239 2.5 13 2.5C13.2761 2.5 13.5 2.72386 13.5 3L13.5 6.6V6.62263C13.5 7.72359 13.5 8.58052 13.4438 9.26791C13.3868 9.96584 13.2694 10.5329 13.0095 11.043C12.5781 11.8897 11.8897 12.5781 11.043 13.0095C10.5329 13.2694 9.96584 13.3868 9.26791 13.4438C8.58052 13.5 7.72359 13.5 6.62263 13.5Z" fill="black"/>
</svg>
