<svg width="16" height="16" viewBox="0 0 16 16" fill="none" xmlns="http://www.w3.org/2000/svg">
<path fill-rule="evenodd" clip-rule="evenodd" d="M13.1991 5.28928C12.9496 5.62835 12.5874 6.04825 12.1288 6.45064C11.1388 7.32064 9.73879 8.12064 7.99879 8.12064C6.44511 8.12064 5.15456 7.48279 4.1983 6.72681C4.15682 6.69402 4.11596 6.661 4.07574 6.6278C4.00478 6.56923 3.9358 6.5101 3.86882 6.45064C3.50039 6.12733 3.19415 5.79271 2.95435 5.4978C2.87522 5.40048 2.80333 5.30749 2.73882 5.22065C2.73382 5.21065 2.72882 5.20315 2.72382 5.19565C2.71882 5.18815 2.71382 5.18065 2.70882 5.17065H1.54882L1.57882 5.23065C1.64309 5.35919 1.73318 5.51355 1.8439 5.67299C1.84747 5.67813 1.85106 5.68327 1.85467 5.68842L1.85603 5.69035C1.87942 5.72366 1.9037 5.75715 1.92882 5.79065C2.00933 5.90725 2.10064 6.0308 2.20253 6.15871C2.20569 6.16269 2.20887 6.16667 2.21205 6.17065C2.3686 6.36634 2.54979 6.57204 2.75486 6.7786L1.50171 8.03173L2.20881 8.73884L3.49913 7.44853C3.68808 7.60216 3.89059 7.75246 4.10548 7.89661C4.62244 8.2434 5.21331 8.55231 5.87248 8.77304L5.39355 10.569L6.3636 10.8289L6.84587 9.0205C7.0441 9.05531 7.24728 9.08171 7.4553 9.09863C7.58605 9.10929 7.71737 9.11607 7.84924 9.11899C7.89901 9.12009 7.94886 9.12064 7.99879 9.12064C8.07545 9.12064 8.15192 9.11934 8.22821 9.11673C8.54627 9.1059 8.85365 9.07277 9.14998 9.0208L9.63229 10.8294L10.6023 10.5694L10.1234 8.77362C11.0566 8.46141 11.8529 7.97248 12.4965 7.44942L13.7913 8.74414L14.4984 8.03704L13.2434 6.7821L13.2414 6.78004C13.447 6.573 13.6287 6.3668 13.7856 6.17065C13.8644 6.07216 13.9369 5.97621 14.0031 5.88396C14.0138 5.86913 14.0242 5.85439 14.0346 5.83976C14.039 5.83352 14.0433 5.8273 14.0477 5.8211C14.0548 5.8109 14.0619 5.80075 14.0688 5.79065C14.0743 5.78338 14.0797 5.77611 14.085 5.76884C14.0935 5.75737 14.1018 5.74591 14.11 5.73446C14.1264 5.71149 14.1423 5.68857 14.1577 5.66576C14.2561 5.52039 14.3352 5.37952 14.403 5.2589C14.4083 5.24935 14.4136 5.23993 14.4188 5.23065L14.4488 5.17065H13.2888C13.2838 5.18065 13.2763 5.18815 13.2688 5.19565C13.2613 5.20315 13.2538 5.21065 13.2488 5.22065C13.2328 5.24312 13.2162 5.26601 13.1991 5.28928Z" fill="black" fill-opacity="0.9"/>
</svg>
