<svg width="28" height="28" viewBox="0 0 28 28" fill="none" xmlns="http://www.w3.org/2000/svg">
<path fill-rule="evenodd" clip-rule="evenodd" d="M7.90039 17.0724V10.9276C6.80926 10.659 6 9.67403 6 8.5C6 7.11929 7.11929 6 8.5 6C9.67389 6 10.6588 6.80908 10.9275 7.90002L17.0725 7.90002C17.3412 6.80908 18.3261 6 19.5 6C20.8807 6 22 7.11929 22 8.5C22 9.67374 21.1911 10.6586 20.1004 10.9274V17.0726C21.1911 17.3414 22 18.3263 22 19.5C22 20.8807 20.8807 22 19.5 22C18.3261 22 17.3412 21.1909 17.0725 20.1H10.9275C10.6588 21.1909 9.67388 22 8.5 22C7.11929 22 6 20.8807 6 19.5C6 18.326 6.80926 17.341 7.90039 17.0724ZM9.8 8.5C9.8 9.21797 9.21797 9.8 8.5 9.8C7.78203 9.8 7.2 9.21797 7.2 8.5C7.2 7.78203 7.78203 7.2 8.5 7.2C9.21797 7.2 9.8 7.78203 9.8 8.5ZM9.8 19.5C9.8 20.218 9.21797 20.8 8.5 20.8C7.78203 20.8 7.2 20.218 7.2 19.5C7.2 18.782 7.78203 18.2 8.5 18.2C9.21797 18.2 9.8 18.782 9.8 19.5ZM20.8 8.5C20.8 9.21797 20.218 9.8 19.5 9.8C18.782 9.8 18.2 9.21797 18.2 8.5C18.2 7.78203 18.782 7.2 19.5 7.2C20.218 7.2 20.8 7.78203 20.8 8.5ZM20.8 19.5C20.8 20.218 20.218 20.8 19.5 20.8C18.782 20.8 18.2 20.218 18.2 19.5C18.2 18.782 18.782 18.2 19.5 18.2C20.218 18.2 20.8 18.782 20.8 19.5ZM9.10039 10.9274C9.99891 10.7059 10.7062 9.9986 10.9275 9.10003L17.0725 9.10002C17.2939 9.99886 18.0015 10.7064 18.9004 10.9276V17.0724C18.0015 17.2936 17.2939 18.0012 17.0725 18.9H10.9275C10.7062 18.0014 9.99893 17.2941 9.10039 17.0726V10.9274Z" fill="black"/>
</svg>
