<svg width="16" height="16" viewBox="0 0 16 16" fill="none" xmlns="http://www.w3.org/2000/svg">
<path fill-rule="evenodd" clip-rule="evenodd" d="M4.12062 5.79581L8.16583 4.19464C8.17293 3.70357 8.47096 3.24197 8.95598 3.04999C9.59788 2.79591 10.3242 3.1103 10.5783 3.7522C10.8324 4.3941 10.518 5.12043 9.87608 5.37451C9.36255 5.57778 8.79498 5.41721 8.45841 5.01618C8.01652 5.28459 7.47117 5.80525 7.08074 6.34226C6.88392 6.61297 6.73945 6.87033 6.66517 7.08456C6.58623 7.31223 6.61089 7.41708 6.62972 7.45012C6.63083 7.45206 6.67225 7.52484 6.98959 7.50009C7.27728 7.47766 7.63957 7.38648 8.04901 7.28329L8.05019 7.28299C8.44037 7.18464 8.87423 7.07529 9.24947 7.04763C9.60259 7.02159 10.0571 7.05513 10.3191 7.41889C10.4576 7.61123 10.4845 7.83373 10.4602 8.03694C10.4363 8.23664 10.3612 8.44047 10.265 8.63462C10.0725 9.02344 9.7586 9.44618 9.42294 9.84111C9.17065 10.1379 8.89752 10.4289 8.63779 10.6904L11.3686 9.60948C11.2864 9.04873 11.5959 8.48462 12.1458 8.26699C12.7877 8.01291 13.514 8.3273 13.7681 8.9692C14.0221 9.6111 13.7078 10.3374 13.0659 10.5915C12.5937 10.7784 12.0758 10.6577 11.7338 10.3253L8.00311 11.802C8.0505 12.3388 7.74431 12.8652 7.21763 13.0737C6.57573 13.3278 5.8494 13.0134 5.59532 12.3715C5.34124 11.7296 5.65563 11.0033 6.29753 10.7492C6.68931 10.5941 7.11254 10.6508 7.44065 10.8645C7.8154 10.5282 8.39616 9.96829 8.88956 9.38777C9.21256 9.00775 9.48306 8.63628 9.63772 8.32397C9.71518 8.16756 9.75435 8.0441 9.76515 7.95382C9.77553 7.86705 9.75748 7.8369 9.75103 7.82795C9.72307 7.78911 9.62618 7.72175 9.30094 7.74573C8.99821 7.76805 8.62727 7.85943 8.22009 7.96206L8.18219 7.97161C7.80419 8.06696 7.39246 8.17081 7.044 8.19798C6.71413 8.2237 6.24946 8.19664 6.02154 7.79671C5.85086 7.49719 5.9034 7.1448 6.0038 6.85525C6.10885 6.55226 6.29515 6.23241 6.51456 5.93062C6.59287 5.82291 6.67705 5.71527 6.76561 5.60926L4.48466 6.51211C4.56586 7.07223 4.2564 7.6353 3.70721 7.85269C3.06531 8.10677 2.33898 7.79237 2.0849 7.15047C1.83082 6.50857 2.14521 5.78224 2.78711 5.52816C3.25998 5.34099 3.77867 5.46232 4.12062 5.79581ZM8.79066 4.45978C8.92737 4.80517 9.31818 4.97433 9.66357 4.83762C10.0089 4.70091 10.1781 4.31009 10.0414 3.96471C9.90469 3.61933 9.51388 3.45017 9.16849 3.58688C8.82311 3.72359 8.65395 4.1144 8.79066 4.45978ZM3.4947 7.31579C3.14931 7.45251 2.7585 7.28334 2.62179 6.93796C2.48508 6.59258 2.65424 6.20176 2.99962 6.06505C3.34501 5.92834 3.73582 6.09751 3.87253 6.44289C4.00924 6.78827 3.84008 7.17908 3.4947 7.31579ZM11.9804 9.67679C12.1171 10.0222 12.508 10.1913 12.8533 10.0546C13.1987 9.91791 13.3679 9.5271 13.2312 9.18172C13.0945 8.83634 12.7036 8.66717 12.3583 8.80388C12.0129 8.94059 11.8437 9.33141 11.9804 9.67679ZM6.13221 12.159C6.26892 12.5044 6.65973 12.6735 7.00512 12.5368C7.3505 12.4001 7.51966 12.0093 7.38295 11.6639C7.24624 11.3185 6.85543 11.1494 6.51005 11.2861C6.16466 11.4228 5.9955 11.8136 6.13221 12.159Z" fill="black" fill-opacity="0.9"/>
</svg>
