<svg width="16" height="16" viewBox="0 0 16 16" fill="none" xmlns="http://www.w3.org/2000/svg">
<path d="M6.25 8.00007C6.25 7.03757 7.0375 6.25007 8 6.25007C8.9625 6.25007 9.75 7.03757 9.75 8.00007C9.75 8.96257 8.9625 9.75007 8 9.75007C7.0375 9.75007 6.25 8.96257 6.25 8.00007Z" fill="black" fill-opacity="0.9"/>
<path fill-rule="evenodd" clip-rule="evenodd" d="M2.08139 6.89108C1.91917 7.09343 1.78593 7.28297 1.69025 7.44663C1.6739 7.4746 1.65864 7.50182 1.64448 7.52828L1.64291 7.53122C1.61432 7.58485 1.58862 7.63845 1.56741 7.69094C1.53958 7.75979 1.5 7.8727 1.5 8.00007C1.5 8.12743 1.53958 8.24035 1.56741 8.3092C1.58862 8.3617 1.61433 8.41532 1.64293 8.46896L1.64448 8.47185C1.65646 8.49425 1.66922 8.51717 1.68277 8.54063C1.68524 8.54491 1.68773 8.5492 1.69024 8.5535C1.78593 8.71717 1.91917 8.9067 2.08139 9.10905C2.40552 9.5134 2.86704 9.99598 3.43372 10.4613C3.43594 10.4631 3.43816 10.4649 3.44039 10.4668C4.00435 10.929 4.68776 11.3865 5.45709 11.7288L5.46172 11.7308C5.52217 11.7577 5.58257 11.7836 5.64292 11.8085C6.36634 12.1072 7.16086 12.3001 8 12.3001C8.83914 12.3001 9.63366 12.1072 10.3571 11.8085C10.4174 11.7836 10.4778 11.7577 10.5383 11.7308L10.5429 11.7288C11.3058 11.3893 11.9841 10.9367 12.5453 10.4784C12.55 10.4746 12.5548 10.4707 12.5596 10.4668C12.5618 10.4649 12.564 10.4631 12.5663 10.4613C13.133 9.99598 13.5945 9.5134 13.9186 9.10905C14.0808 8.9067 14.2141 8.71717 14.3098 8.55351C14.3261 8.52556 14.3414 8.49835 14.3555 8.47188L14.3571 8.46886C14.3857 8.41525 14.4114 8.36167 14.4326 8.3092C14.4604 8.24035 14.5 8.12743 14.5 8.00007C14.5 7.92639 14.4868 7.85755 14.4702 7.79928C14.4676 7.79007 14.4649 7.78112 14.4621 7.77245C14.4522 7.74119 14.4418 7.71366 14.4326 7.69094C14.4114 7.63844 14.3857 7.58482 14.3571 7.53119L14.3555 7.52826C14.3435 7.50588 14.3307 7.48296 14.3172 7.4595C14.3147 7.45519 14.3123 7.4509 14.3098 7.44663C14.2185 7.29048 14.0981 7.11789 13.9487 6.92887C13.9388 6.91637 13.9288 6.90378 13.9186 6.89108C13.5932 6.48515 13.1293 6.00037 12.5596 5.53337C11.9945 5.07018 11.3095 4.61184 10.5383 4.2693C10.4778 4.24247 10.4174 4.21659 10.3571 4.19165C9.63365 3.89294 8.83914 3.70007 8 3.70007C7.16086 3.70007 6.36634 3.89294 5.64292 4.19165C5.58201 4.2168 5.52161 4.2427 5.46172 4.2693L5.45709 4.27135C4.69077 4.61233 4.0097 5.06753 3.44702 5.52795C3.44481 5.52976 3.4426 5.53157 3.44039 5.53337C2.87066 6.00038 2.40679 6.48515 2.08139 6.89108ZM10.2411 5.23263C10.8633 5.52226 11.4334 5.90327 11.9257 6.30676C12.4417 6.72976 12.8565 7.16498 13.1384 7.51655C13.2519 7.65824 13.3404 7.78199 13.4041 7.88209L13.4057 7.88455C13.4077 7.88781 13.4098 7.89105 13.4118 7.89426L13.4147 7.89888C13.4262 7.91722 13.4367 7.93471 13.4464 7.95132L13.4484 7.95469C13.4582 7.97146 13.4666 7.98657 13.4738 8.00007C13.4666 8.01356 13.4582 8.02868 13.4484 8.04544L13.4465 8.04882L13.4449 8.0514L13.4443 8.05252C13.434 8.06994 13.4229 8.08832 13.4107 8.10761L13.4096 8.10939C13.3949 8.13274 13.3788 8.15742 13.3613 8.18336C13.3026 8.27027 13.2284 8.37129 13.1384 8.48358C12.8565 8.83515 12.4417 9.27037 11.9257 9.69337C11.4049 10.1202 10.797 10.5219 10.1325 10.8169C9.468 11.1118 8.74698 11.3001 8 11.3001C7.25302 11.3001 6.532 11.1118 5.86754 10.8169C5.20302 10.5219 4.59508 10.1202 4.07433 9.69337C3.55827 9.27037 3.14346 8.83515 2.86163 8.48358C2.74476 8.33778 2.65446 8.21098 2.59041 8.10939C2.5885 8.10636 2.58649 8.10329 2.5846 8.10025C2.57396 8.08321 2.56418 8.06693 2.55506 8.0514L2.55355 8.04882L2.55158 8.04544C2.54183 8.02868 2.53341 8.01356 2.52619 8.00007C2.5339 7.98567 2.54296 7.96943 2.55355 7.95132C2.56308 7.93501 2.57346 7.91784 2.58469 7.89986C2.58656 7.89685 2.58837 7.89384 2.59028 7.89079C2.65372 7.79016 2.74305 7.66475 2.85833 7.52068L2.86163 7.51655L2.86494 7.51243C3.1467 7.16158 3.56029 6.72811 4.07433 6.30676C4.07636 6.3051 4.0784 6.30343 4.08043 6.30176C4.59983 5.87677 5.20562 5.47707 5.86754 5.18325C6.532 4.88831 7.25302 4.70007 8 4.70007C8.74554 4.70007 9.46522 4.88758 10.1286 5.18154L10.1325 5.18325C10.1687 5.19935 10.2049 5.21581 10.2411 5.23263ZM13.5101 8.07867C13.5101 8.07867 13.5094 8.07689 13.5085 8.07357C13.5093 8.07565 13.5101 8.07867 13.5101 8.07867ZM6.25 8.00007C6.25 7.03757 7.0375 6.25007 8 6.25007C8.9625 6.25007 9.75 7.03757 9.75 8.00007C9.75 8.96257 8.9625 9.75007 8 9.75007C7.0375 9.75007 6.25 8.96257 6.25 8.00007ZM8 8.75007C7.58579 8.75007 7.25 8.41428 7.25 8.00007C7.25 7.58586 7.58579 7.25007 8 7.25007C8.41421 7.25007 8.75 7.58586 8.75 8.00007C8.75 8.41428 8.41421 8.75007 8 8.75007Z" fill="black" fill-opacity="0.9"/>
</svg>
