<svg width="16" height="16" viewBox="0 0 16 16" fill="none" xmlns="http://www.w3.org/2000/svg">
<g opacity="0.5">
<path d="M7.07289 7.33584C7.22718 7.30862 7.38146 7.34492 7.50851 7.43567L8.37975 8.0891C8.46143 8.15263 8.57034 8.15263 8.65202 8.0891L10.5851 6.43738C10.7394 6.3194 10.9481 6.50998 10.8392 6.67334L8.98781 9.16908C8.90613 9.30521 8.77 9.39596 8.61572 9.42319C8.46143 9.45041 8.30715 9.41411 8.1801 9.32336L7.30886 8.66993C7.22718 8.6064 7.11827 8.6064 7.03659 8.66993L5.85679 9.55932C5.70251 9.6773 5.50285 9.49579 5.60268 9.32336L6.7008 7.58995C6.78248 7.45382 6.91861 7.36307 7.07289 7.33584Z" fill="#A46BF5"/>
<path fill-rule="evenodd" clip-rule="evenodd" d="M9.58892 3.49681C9.12058 2.22649 7.3239 2.22649 6.85556 3.49681L6.5147 4.42136C6.43372 4.64101 6.20753 4.7716 5.97681 4.73191L5.0057 4.56483C3.6714 4.33526 2.77306 5.89123 3.63902 6.93199L4.26927 7.68946C4.419 7.86942 4.419 8.1306 4.26927 8.31055L3.63902 9.06802C2.77306 10.1088 3.6714 11.6648 5.0057 11.4352L5.97681 11.2681C6.20753 11.2284 6.43372 11.359 6.5147 11.5787L6.85556 12.5032C7.3239 13.7735 9.12058 13.7735 9.58892 12.5032L9.92978 11.5787C10.0108 11.359 10.237 11.2284 10.4677 11.2681L11.4388 11.4352C12.7731 11.6648 13.6714 10.1088 12.8055 9.06802L12.1752 8.31055C12.0255 8.1306 12.0255 7.86942 12.1752 7.68946L12.8055 6.93199C13.6714 5.89123 12.7731 4.33526 11.4388 4.56483L10.4677 4.73191C10.237 4.7716 10.0108 4.64101 9.92978 4.42136L9.58892 3.49681ZM7.76668 3.83272C7.92279 3.40928 8.52169 3.40928 8.6778 3.83272L9.01866 4.75727C9.26161 5.41623 9.94017 5.808 10.6323 5.68892L11.6034 5.52183C12.0482 5.44531 12.3477 5.96397 12.059 6.31089L11.4287 7.06836C10.9795 7.60824 10.9795 8.39178 11.4287 8.93165L12.059 9.68912C12.3477 10.036 12.0482 10.5547 11.6034 10.4782L10.6323 10.3111C9.94017 10.192 9.26161 10.5838 9.01866 11.2427L8.6778 12.1673C8.52169 12.5907 7.92279 12.5907 7.76668 12.1673L7.42582 11.2427C7.18287 10.5838 6.50431 10.192 5.81216 10.3111L4.84104 10.4782C4.39628 10.5547 4.09683 10.036 4.38548 9.68912L5.01574 8.93165C5.46494 8.39178 5.46494 7.60824 5.01574 7.06836L4.38548 6.31089C4.09683 5.96397 4.39628 5.44531 4.84104 5.52183L5.81216 5.68892C6.50431 5.808 7.18287 5.41623 7.42582 4.75727L7.76668 3.83272Z" fill="#A46BF5"/>
</g>
</svg>
