<svg width="32" height="32" viewBox="0 0 32 32" fill="none" xmlns="http://www.w3.org/2000/svg">
<rect width="32" height="32" rx="16" fill="black"/>
<path fill-rule="evenodd" clip-rule="evenodd" d="M18.9062 6.96488L24.3636 17.2212C24.5455 17.5677 24.5455 17.9835 24.3636 18.33L20.9073 24.8268C20.6994 25.2079 20.3009 25.4505 19.8591 25.4505H12.1409C11.6991 25.4505 11.3006 25.2079 11.0927 24.8268L7.63643 18.33C7.45452 17.9835 7.45452 17.5677 7.63643 17.2212L13.0938 6.96488C13.3017 6.58373 13.7781 6.43647 14.1592 6.64437C14.2978 6.71367 14.4104 6.82628 14.4797 6.96488L15.9957 9.81482L17.5203 6.96488C17.7195 6.58373 18.1959 6.43647 18.5771 6.64437C18.7157 6.71367 18.8283 6.82628 18.9062 6.96488ZM18.2164 13.9855L17.0989 16.0817L17.558 16.9393C17.6966 17.1992 17.7659 17.485 17.7659 17.7709H17.7746V17.8056C17.7573 18.7757 16.969 19.5467 15.9988 19.5467C15.0199 19.5467 14.2316 18.7584 14.2316 17.7796V17.7709C14.2316 17.6583 14.2403 17.5457 14.2663 17.4244V17.3984C14.3096 17.2165 14.3702 17.0519 14.4568 16.9047V16.896L15.9988 14.0028V14.0114L17.1162 11.9151L17.8612 10.5032C17.9045 10.4339 17.9565 10.3819 18.0258 10.3386C18.2164 10.2433 18.4589 10.3126 18.5542 10.5032L22.279 17.4937C22.3743 17.667 22.3743 17.8749 22.279 18.0481L19.5504 23.1676C19.4464 23.3582 19.2472 23.4794 19.0306 23.4794H12.9669C12.7503 23.4794 12.5511 23.3582 12.4472 23.1676L9.7185 18.0481C9.62321 17.8749 9.62321 17.667 9.7185 17.4937L13.4433 10.5032C13.478 10.4339 13.53 10.3819 13.5993 10.3386C13.7985 10.2433 14.0324 10.3126 14.1363 10.5032L14.8813 11.9151L12.6984 16.0124C12.5944 16.2117 12.5078 16.4109 12.4472 16.6188L12.4385 16.6448L12.4038 16.7401C12.3086 17.0692 12.2566 17.4157 12.2566 17.7796C12.2566 19.8412 13.9371 21.5217 15.9988 21.5217C18.0691 21.5217 19.741 19.8412 19.741 17.7796C19.741 17.1039 19.5677 16.4715 19.2559 15.9345L18.2164 13.9855Z" fill="white"/>
</svg>
