<svg width="32" height="32" viewBox="0 0 32 32" fill="none" xmlns="http://www.w3.org/2000/svg">
<rect width="32" height="32" rx="16" fill="black"/>
<path d="M15.2959 4.75L14.7855 12.8402L8.5115 7.56914L7.55955 8.52417L12.9155 14.716L4.74999 15.33V16.6806H12.2152L16.6417 12.2399L16.6422 4.75009L15.2959 4.75Z" fill="white"/>
<path d="M16.7041 4.75L17.2144 12.8402L23.4884 7.56914L24.4404 8.52417L19.0844 14.716L27.2499 15.33V16.6806H19.7848L15.3582 12.2399L15.3578 4.75009L16.7041 4.75Z" fill="white"/>
<path d="M16.6467 27.25L17.1571 19.1598L23.4311 24.4309L24.383 23.4758L19.027 17.284L27.25 16.6808V15.3302L19.7274 15.3194L15.3009 19.7601L15.3004 27.2499L16.6467 27.25Z" fill="white"/>
<path d="M15.2959 27.249L14.7856 19.1588L8.51156 24.4299L7.55961 23.4749L12.9156 17.283L4.75005 16.669V15.3184H12.2152L16.6418 19.7592L16.6422 27.2489L15.2959 27.249Z" fill="white"/>
</svg>
