<svg width="32" height="32" viewBox="0 0 32 32" fill="none" xmlns="http://www.w3.org/2000/svg">
<g clip-path="url(#clip0_40000044_38)">
<path d="M16 0C7.16031 0 0 7.16346 0 16C0 24.8367 7.16031 32.0001 16 32.0001C22.6932 32.0001 28.4367 27.897 30.8267 22.0667C30.5923 22.2974 30.3406 22.5075 30.0934 22.6934C29.219 23.351 28.0596 23.8495 26.8534 23.4401C25.763 23.0699 25.0723 22.1819 24.6534 21.2534C24.4686 20.8439 24.3199 20.4054 24.2134 19.9467C23.6579 21.0293 23.0055 22.0974 22.2267 22.9201C21.3418 23.8546 20.169 24.5935 18.6934 24.4534C17.479 24.3381 16.5135 23.8147 15.8534 22.9601C15.5923 22.6221 15.3875 22.2463 15.24 21.8534C14.9082 22.3451 14.5392 22.8121 14.12 23.2001C13.3115 23.9485 12.2905 24.4665 11.04 24.4267C8.67669 24.4267 7.31477 22.5139 6.88001 20.3601C6.43993 18.1796 6.81404 15.3909 8.08001 12.6267C9.6973 9.09553 12.0463 6.395 13.2134 5.52001C13.7202 5.13999 14.4466 5.25332 14.8267 5.76001C15.2068 6.2667 15.107 6.98 14.6 7.36002C13.802 7.95833 11.6542 10.3242 10.16 13.5867C9.04831 16.0139 8.79612 18.302 9.12002 19.9067C9.44798 21.5315 10.2357 22.1334 11.0534 22.1334C11.0674 22.1334 11.0926 22.1334 11.1067 22.1334C11.6254 22.1525 12.0827 21.9618 12.56 21.5201C13.0615 21.0559 13.5368 20.3491 14 19.4534C14.4514 18.5806 14.8567 17.6034 15.2667 16.6134L15.28 16.56C15.5154 15.9919 15.7626 15.4168 16.0134 14.8667C16.1871 14.4754 16.3706 14.086 16.5734 13.72C16.9408 13.0565 17.2438 12.5545 17.4534 12.2134C17.5572 12.0444 17.6375 11.9146 17.7067 11.8134C17.7392 11.7657 17.7854 11.7053 17.8267 11.6534C17.8439 11.6316 17.879 11.5736 17.9334 11.52C17.9571 11.4966 18.0179 11.4461 18.1067 11.3867C18.1512 11.3569 18.2328 11.3089 18.3467 11.2667C18.4514 11.228 18.681 11.1626 18.96 11.2134C19.2882 11.273 19.556 11.4644 19.72 11.72C19.8586 11.936 19.8934 12.142 19.8934 12.24C19.91 12.4286 19.8667 12.5769 19.8667 12.6134C19.8428 12.7133 19.8 12.79 19.8 12.8134C19.7723 12.8793 19.7322 12.9381 19.7067 12.9867C19.6508 13.0932 19.58 13.244 19.48 13.4134C19.2816 13.7498 18.9728 14.2322 18.56 14.8667C18.4039 15.1515 18.249 15.4715 18.0934 15.8134C17.4584 17.2491 17.1234 18.7678 17.1867 19.9734C17.2252 20.708 17.4082 21.2254 17.6667 21.5601C17.9003 21.8625 18.2588 22.1119 18.9067 22.1734C19.4095 22.2211 19.9511 22.0039 20.5734 21.3467C21.205 20.6796 21.7876 19.6822 22.36 18.52C22.754 17.7202 23.1058 16.9055 23.4534 16.1067C23.6118 15.7423 23.7751 15.3804 23.9334 15.0267C24.3995 13.9848 24.9254 12.8884 25.5334 12.24C25.9616 11.7833 26.6695 11.7528 27.1334 12.1734C27.5971 12.5939 27.6396 13.316 27.2267 13.7867C26.9664 14.0832 26.7 14.6452 26.5067 15.4534C26.319 16.2382 26.2258 17.1454 26.2667 18.0267C26.308 18.9155 26.4796 19.715 26.7467 20.3067C27.0159 20.9032 27.2351 21.1831 27.6 21.2667C28.6215 21.5006 30.0669 19.9838 30.6001 19.3067C31.3027 18.4143 32.0001 17.1286 32.0001 15.3867C31.6774 6.83443 24.6343 0 16 0Z" fill="black"/>
</g>
<defs>
<clipPath id="clip0_40000044_38">
<rect width="32" height="32" fill="white"/>
</clipPath>
</defs>
</svg>
