<svg width="16" height="16" viewBox="0 0 16 16" fill="none" xmlns="http://www.w3.org/2000/svg">
<mask id="path-1-inside-1_7947_33928" fill="white">
<path d="M15 8C15 11.866 11.866 15 8 15C4.13401 15 1 11.866 1 8C1 4.13401 4.13401 1 8 1C11.866 1 15 4.13401 15 8ZM3.52 8C3.52 10.4742 5.52576 12.48 8 12.48C10.4742 12.48 12.48 10.4742 12.48 8C12.48 5.52576 10.4742 3.52 8 3.52C5.52576 3.52 3.52 5.52576 3.52 8Z"/>
</mask>
<path d="M15 8C15 11.866 11.866 15 8 15C4.13401 15 1 11.866 1 8C1 4.13401 4.13401 1 8 1C11.866 1 15 4.13401 15 8ZM3.52 8C3.52 10.4742 5.52576 12.48 8 12.48C10.4742 12.48 12.48 10.4742 12.48 8C12.48 5.52576 10.4742 3.52 8 3.52C5.52576 3.52 3.52 5.52576 3.52 8Z" stroke="black" stroke-opacity="0.1" stroke-width="11" mask="url(#path-1-inside-1_7947_33928)"/>
<mask id="path-2-inside-2_7947_33928" fill="white">
<path d="M14 8C14.5523 8 15.0073 7.55001 14.9287 7.00336C14.7386 5.682 14.1733 4.43497 13.29 3.41565C12.4066 2.39633 11.2526 1.65944 9.97173 1.28342C9.44181 1.12785 8.93169 1.51429 8.85316 2.06097L8.77922 2.57568C8.70069 3.12235 9.08716 3.61894 9.60288 3.81655C10.2861 4.07834 10.8998 4.50544 11.3856 5.06602C11.8714 5.62659 12.2069 6.29476 12.3689 7.00826C12.4911 7.54684 12.9277 8 13.48 8H14Z"/>
</mask>
<path d="M14 8C14.5523 8 15.0073 7.55001 14.9287 7.00336C14.7386 5.682 14.1733 4.43497 13.29 3.41565C12.4066 2.39633 11.2526 1.65944 9.97173 1.28342C9.44181 1.12785 8.93169 1.51429 8.85316 2.06097L8.77922 2.57568C8.70069 3.12235 9.08716 3.61894 9.60288 3.81655C10.2861 4.07834 10.8998 4.50544 11.3856 5.06602C11.8714 5.62659 12.2069 6.29476 12.3689 7.00826C12.4911 7.54684 12.9277 8 13.48 8H14Z" fill="#5FDD7D" stroke="#5FDD7D" stroke-width="3.6" stroke-linejoin="round" mask="url(#path-2-inside-2_7947_33928)"/>
</svg>
