<svg width="36" height="36" viewBox="0 0 36 36" fill="none" xmlns="http://www.w3.org/2000/svg">
<path d="M25.2622 13.2137V16.465C25.2622 17.0242 24.8088 17.4775 24.2497 17.4775H20.9985V17.4738C20.441 17.4719 19.9896 17.0193 19.9896 16.4613C19.9896 15.9021 20.4429 15.4488 21.0021 15.4488L21.8148 15.4525L21.0532 14.6523C20.1229 13.7367 19.01 13.279 17.7144 13.279C15.1048 13.279 12.9894 15.3945 12.9894 18.0041C12.9894 20.6137 15.1048 22.7293 17.7144 22.7293C19.0148 22.7293 20.1299 22.2693 21.0598 21.3495C21.4944 20.9149 21.8335 20.4023 22.0773 19.8117L22.0804 19.813C22.2325 19.4458 22.5942 19.1876 23.0163 19.1876C23.5755 19.1876 24.0289 19.6409 24.0289 20.2001C24.0289 20.371 23.9865 20.532 23.9118 20.6731C23.568 21.4757 23.0946 22.1785 22.4917 22.7815C21.8623 23.404 21.1455 23.8851 20.3413 24.2246C19.5048 24.5777 18.6291 24.7543 17.7144 24.7543C13.9865 24.7543 10.9644 21.7321 10.9644 18.0041C10.9644 14.2761 13.9865 11.2539 17.7144 11.2539C18.6291 11.2539 19.5048 11.4305 20.3413 11.7836C21.1455 12.1231 21.861 12.6029 22.4878 13.2229L22.4986 13.2336L23.2372 14.0097V13.2137C23.2372 12.6545 23.6905 12.2012 24.2497 12.2012C24.8088 12.2012 25.2622 12.6545 25.2622 13.2137Z" fill="black"/>
</svg>
