<svg width="16" height="16" viewBox="0 0 16 16" fill="none" xmlns="http://www.w3.org/2000/svg">
<mask id="path-1-inside-1_7947_33935" fill="white">
<path d="M15 8C15 11.866 11.866 15 8 15C4.13401 15 1 11.866 1 8C1 4.13401 4.13401 1 8 1C11.866 1 15 4.13401 15 8ZM3.52 8C3.52 10.4742 5.52576 12.48 8 12.48C10.4742 12.48 12.48 10.4742 12.48 8C12.48 5.52576 10.4742 3.52 8 3.52C5.52576 3.52 3.52 5.52576 3.52 8Z"/>
</mask>
<path d="M15 8C15 11.866 11.866 15 8 15C4.13401 15 1 11.866 1 8C1 4.13401 4.13401 1 8 1C11.866 1 15 4.13401 15 8ZM3.52 8C3.52 10.4742 5.52576 12.48 8 12.48C10.4742 12.48 12.48 10.4742 12.48 8C12.48 5.52576 10.4742 3.52 8 3.52C5.52576 3.52 3.52 5.52576 3.52 8Z" stroke="black" stroke-opacity="0.1" stroke-width="11" mask="url(#path-1-inside-1_7947_33935)"/>
</svg>
