<svg width="16" height="16" viewBox="0 0 16 16" fill="none" xmlns="http://www.w3.org/2000/svg">
<mask id="path-1-inside-1_5425_37653" fill="white">
<path d="M7.5 3H8.5V7.5H13V8.5H8.5V13H7.5V8.5H3V7.5H7.5V3Z"/>
</mask>
<path d="M7.5 3H8.5V7.5H13V8.5H8.5V13H7.5V8.5H3V7.5H7.5V3Z" fill="black" fill-opacity="0.9"/>
<path d="M7.5 3V2H6.5V3H7.5ZM8.5 3H9.5V2H8.5V3ZM8.5 7.5H7.5V8.5H8.5V7.5ZM13 7.5H14V6.5H13V7.5ZM13 8.5V9.5H14V8.5H13ZM8.5 8.5V7.5H7.5V8.5H8.5ZM8.5 13V14H9.5V13H8.5ZM7.5 13H6.5V14H7.5V13ZM7.5 8.5H8.5V7.5H7.5V8.5ZM3 8.5H2V9.5H3V8.5ZM3 7.5V6.5H2V7.5H3ZM7.5 7.5V8.5H8.5V7.5H7.5ZM7.5 4H8.5V2H7.5V4ZM7.5 3V7.5H9.5V3H7.5ZM8.5 8.5H13V6.5H8.5V8.5ZM12 7.5V8.5H14V7.5H12ZM13 7.5H8.5V9.5H13V7.5ZM7.5 8.5V13H9.5V8.5H7.5ZM8.5 12H7.5V14H8.5V12ZM8.5 13V8.5H6.5V13H8.5ZM7.5 7.5H3V9.5H7.5V7.5ZM4 8.5V7.5H2V8.5H4ZM3 8.5H7.5V6.5H3V8.5ZM8.5 7.5V3H6.5V7.5H8.5Z" fill="black" fill-opacity="0.9" mask="url(#path-1-inside-1_5425_37653)"/>
</svg>
