<svg width="16" height="16" viewBox="0 0 16 16" fill="none" xmlns="http://www.w3.org/2000/svg">
<path fill-rule="evenodd" clip-rule="evenodd" d="M3.4263 4.5263C3.4263 4.19493 3.69493 3.9263 4.0263 3.9263H8.89997C9.23134 3.9263 9.49997 4.19493 9.49997 4.5263V8.1263C9.49997 8.45767 9.23134 8.7263 8.89997 8.7263H4.0263C3.69493 8.7263 3.4263 8.45767 3.4263 8.1263V4.5263ZM4.2263 7.9263V4.7263H8.69997V7.9263H4.2263Z" fill="black"/>
<path fill-rule="evenodd" clip-rule="evenodd" d="M1 2.5C1 1.94772 1.44772 1.5 2 1.5H14C14.5523 1.5 15 1.94772 15 2.5V13.5C15 14.0523 14.5523 14.5 14 14.5H2C1.44772 14.5 1 14.0523 1 13.5V2.5ZM2 2.5H14V13.5H2V2.5Z" fill="black"/>
</svg>
