<svg width="16" height="16" viewBox="0 0 16 16" fill="none" xmlns="http://www.w3.org/2000/svg">
<path d="M14.7957 15C14.9062 15 14.9957 14.9105 14.9957 14.8L14.9957 1.2C14.9957 1.08954 14.9062 1 14.7957 1L14.1957 1C14.0853 1 13.9957 1.08954 13.9957 1.2L13.9957 14.8C13.9957 14.9105 14.0853 15 14.1957 15L14.7957 15Z" fill="black"/>
<path d="M9.49864 4.06482C9.77479 4.06482 9.99864 4.28868 9.99864 4.56482L9.99864 11.5648C9.99864 11.841 9.77479 12.0648 9.49864 12.0648L6.49864 12.0648C6.2225 12.0648 5.99864 11.841 5.99864 11.5648L5.99864 4.56482C5.99864 4.28867 6.2225 4.06482 6.49864 4.06482L9.49864 4.06482Z" fill="black"/>
<path d="M2.00005 14.8C2.00005 14.9105 1.91051 15 1.80005 15L1.20005 15C1.0896 15 1.00005 14.9105 1.00005 14.8L1.00005 1.2C1.00005 1.08954 1.0896 0.999999 1.20005 0.999999L1.80005 0.999999C1.91051 0.999999 2.00005 1.08954 2.00005 1.2L2.00005 14.8Z" fill="black"/>
</svg>
