<svg width="32" height="32" viewBox="0 0 32 32" fill="none" xmlns="http://www.w3.org/2000/svg">
<path d="M22.2 9C22.0895 9 22 9.08954 22 9.2V22.8C22 22.9105 22.0895 23 22.2 23H22.8C22.9105 23 23 22.9105 23 22.8V9.2C23 9.08954 22.9105 9 22.8 9H22.2Z" fill="black" fill-opacity="0.9"/>
<path d="M9 12C9 11.7239 9.22386 11.5 9.5 11.5H19.5C19.7761 11.5 20 11.7239 20 12V14C20 14.2761 19.7761 14.5 19.5 14.5H9.5C9.22386 14.5 9 14.2761 9 14V12Z" fill="black" fill-opacity="0.9"/>
<path d="M14 18C14 17.7239 14.2239 17.5 14.5 17.5H19.5C19.7761 17.5 20 17.7239 20 18V20C20 20.2761 19.7761 20.5 19.5 20.5H14.5C14.2239 20.5 14 20.2761 14 20V18Z" fill="black" fill-opacity="0.9"/>
</svg>
