<svg width="16" height="16" viewBox="0 0 16 16" fill="none" xmlns="http://www.w3.org/2000/svg">
<path fill-rule="evenodd" clip-rule="evenodd" d="M9.99999 1.7C9.99999 1.3134 10.3134 1 10.7 1H14.3C14.6866 1 15 1.3134 15 1.7V5.3C15 5.6866 14.6866 6 14.3 6H10.7C10.3134 6 9.99999 5.6866 9.99999 5.3V1.7ZM10.9 5.1V1.9H14.1V5.1H10.9Z" fill="black"/>
<path fill-rule="evenodd" clip-rule="evenodd" d="M1.67699 1.98787C1.29039 1.98787 0.97699 2.30128 0.97699 2.68787V14.4242C0.97699 14.8108 1.29039 15.1242 1.67699 15.1242H13.4133C13.7999 15.1242 14.1133 14.8108 14.1133 14.4242V8.77222C14.1133 8.38562 13.7999 8.07222 13.4133 8.07222H8.0127V2.68788C8.0127 2.30128 7.6993 1.98787 7.3127 1.98787H1.67699ZM1.97699 8.05739L7.0127 8.07088V2.98787H1.97699V8.05739ZM7.0127 9.07088L1.97699 9.05739V14.1242H7.0127V9.07088ZM8.0127 9.07222V14.1242H13.1133V9.07222H8.0127Z" fill="black"/>
</svg>
