<svg width="32" height="32" viewBox="0 0 32 32" fill="none" xmlns="http://www.w3.org/2000/svg">
<path d="M12.25 20.375C11.9739 20.375 11.75 20.1511 11.75 19.875L11.75 9.875C11.75 9.59886 11.9739 9.375 12.25 9.375H14.25C14.5261 9.375 14.75 9.59886 14.75 9.875L14.75 19.875C14.75 20.1511 14.5261 20.375 14.25 20.375H12.25Z" fill="black" fill-opacity="0.9"/>
<path d="M22.8 21.625C22.9105 21.625 23 21.7145 23 21.825V22.425C23 22.5355 22.9105 22.625 22.8 22.625L9.2 22.625C9.08954 22.625 9 22.5355 9 22.425V21.825C9 21.7145 9.08954 21.625 9.2 21.625L22.8 21.625Z" fill="black" fill-opacity="0.9"/>
<path d="M17.25 19.875C17.25 20.1511 17.4739 20.375 17.75 20.375H19.75C20.0261 20.375 20.25 20.1511 20.25 19.875V14.875C20.25 14.5989 20.0261 14.375 19.75 14.375H17.75C17.4739 14.375 17.25 14.5989 17.25 14.875V19.875Z" fill="black" fill-opacity="0.9"/>
</svg>
