<svg width="32" height="32" viewBox="0 0 32 32" fill="none" xmlns="http://www.w3.org/2000/svg">
<path d="M23 9.2C23 9.08954 22.9105 9 22.8 9H9.2C9.08954 9 9 9.08954 9 9.2V9.8C9 9.91046 9.08954 10 9.2 10L22.8 10C22.9105 10 23 9.91046 23 9.8V9.2Z" fill="black"/>
<path d="M12.0648 14.4971C12.0648 14.2209 12.2887 13.9971 12.5648 13.9971H19.5648C19.841 13.9971 20.0648 14.2209 20.0648 14.4971V17.4971C20.0648 17.7732 19.841 17.9971 19.5648 17.9971H12.5648C12.2887 17.9971 12.0648 17.7732 12.0648 17.4971V14.4971Z" fill="black"/>
<path d="M22.8 21.9957C22.9105 21.9957 23 22.0852 23 22.1957V22.7957C23 22.9061 22.9105 22.9957 22.8 22.9957L9.2 22.9957C9.08954 22.9957 9 22.9061 9 22.7957V22.1957C9 22.0852 9.08954 21.9957 9.2 21.9957L22.8 21.9957Z" fill="black"/>
</svg>
