<svg width="32" height="32" viewBox="0 0 32 32" fill="none" xmlns="http://www.w3.org/2000/svg">
<path d="M12.25 23C11.9739 23 11.75 22.7761 11.75 22.5L11.75 16.25H9.2C9.08954 16.25 9 16.1605 9 16.05V15.45C9 15.3395 9.08954 15.25 9.2 15.25H11.75L11.75 9.5C11.75 9.22386 11.9739 9 12.25 9H14.25C14.5261 9 14.75 9.22386 14.75 9.5V15.25H17.25V11.5C17.25 11.2239 17.4739 11 17.75 11L19.75 11C20.0261 11 20.25 11.2239 20.25 11.5V15.25H22.8C22.9105 15.25 23 15.3395 23 15.45V16.05C23 16.1605 22.9105 16.25 22.8 16.25H20.25V20.5C20.25 20.7761 20.0261 21 19.75 21H17.75C17.4739 21 17.25 20.7761 17.25 20.5V16.25H14.75V22.5C14.75 22.7761 14.5261 23 14.25 23H12.25Z" fill="black" fill-opacity="0.9"/>
</svg>
