<svg width="16" height="52" viewBox="0 0 16 52" fill="none" xmlns="http://www.w3.org/2000/svg">
<path fill-rule="evenodd" clip-rule="evenodd" d="M0 6.5C0 6.22386 0.223858 6 0.5 6H9.5C9.77614 6 10 6.22386 10 6.5V9.5C10 9.77614 9.77614 10 9.5 10H0.5C0.223858 10 0 9.77614 0 9.5V6.5ZM0 24.5C0 24.2239 0.223858 24 0.5 24H15.5C15.7761 24 16 24.2239 16 24.5V27.5C16 27.7761 15.7761 28 15.5 28H0.5C0.223858 28 0 27.7761 0 27.5V24.5ZM0.5 42C0.223858 42 0 42.2239 0 42.5V45.5C0 45.7761 0.223858 46 0.5 46H6.5C6.77614 46 7 45.7761 7 45.5V42.5C7 42.2239 6.77614 42 6.5 42H0.5Z" fill="black"/>
</svg>
