<svg width="28" height="28" viewBox="0 0 28 28" fill="none" xmlns="http://www.w3.org/2000/svg">
<path d="M7.56353 19.5879C7.32921 19.8223 7.32921 20.2022 7.56353 20.4365C7.79784 20.6708 8.17774 20.6708 8.41206 20.4365L7.56353 19.5879ZM20.6121 7.98792C20.6121 7.65654 20.3435 7.38792 20.0121 7.38792H14.6121C14.2807 7.38792 14.0121 7.65654 14.0121 7.98792C14.0121 8.31929 14.2807 8.58792 14.6121 8.58792H19.4121V13.3879C19.4121 13.7193 19.6807 13.9879 20.0121 13.9879C20.3435 13.9879 20.6121 13.7193 20.6121 13.3879V7.98792ZM8.41206 20.4365L20.4363 8.41218L19.5878 7.56365L7.56353 19.5879L8.41206 20.4365Z" fill="black"/>
</svg>
