<svg width="16" height="16" viewBox="0 0 16 16" fill="none" xmlns="http://www.w3.org/2000/svg">
<path d="M2.06585 13.0857C1.83153 13.32 1.83153 13.6999 2.06585 13.9343C2.30016 14.1686 2.68006 14.1686 2.91438 13.9343L2.06585 13.0857ZM14.1101 2.48999C14.1101 2.15862 13.8415 1.88999 13.5101 1.88999L8.11011 1.88999C7.77874 1.88999 7.51011 2.15862 7.51011 2.48999C7.51011 2.82136 7.77874 3.08999 8.11011 3.08999L12.9101 3.08999L12.9101 7.88999C12.9101 8.22136 13.1787 8.48999 13.5101 8.48999C13.8415 8.48999 14.1101 8.22136 14.1101 7.88999V2.48999ZM2.91438 13.9343L13.9344 2.91425L13.0858 2.06573L2.06585 13.0857L2.91438 13.9343Z" fill="black"/>
</svg>
