<svg width="16" height="16" viewBox="0 0 16 16" fill="none" xmlns="http://www.w3.org/2000/svg">
<path fill-rule="evenodd" clip-rule="evenodd" d="M5.28183 4.05152C5.10609 3.87579 5.10609 3.59086 5.28183 3.41513C5.45756 3.23939 5.74249 3.23939 5.91822 3.41513L8.00002 5.49693L10.0818 3.41513C10.2576 3.23939 10.5425 3.23939 10.7182 3.41513C10.894 3.59086 10.894 3.87579 10.7182 4.05152L8.31822 6.45152C8.14249 6.62726 7.85756 6.62726 7.68183 6.45152L5.28183 4.05152ZM10.7182 11.9485C10.894 12.1242 10.894 12.4091 10.7182 12.5849C10.5425 12.7606 10.2576 12.7606 10.0818 12.5849L8.00003 10.5031L5.91822 12.5849C5.74249 12.7606 5.45756 12.7606 5.28183 12.5849C5.10609 12.4091 5.10609 12.1242 5.28183 11.9485L7.68183 9.54846C7.85756 9.37273 8.14249 9.37273 8.31822 9.54846L10.7182 11.9485Z" fill="black"/>
</svg>
