<svg width="16" height="16" viewBox="0 0 16 16" fill="none" xmlns="http://www.w3.org/2000/svg">
<path fill-rule="evenodd" clip-rule="evenodd" d="M1.5 1.5C1.77614 1.5 2 1.72386 2 2L2 14C2 14.2761 1.77614 14.5 1.5 14.5C1.22386 14.5 1 14.2761 1 14V2C1 1.72386 1.22386 1.5 1.5 1.5ZM14.5 1.5C14.7761 1.5 15 1.72386 15 2L15 14C15 14.2761 14.7761 14.5 14.5 14.5C14.2239 14.5 14 14.2761 14 14L14 2C14 1.72386 14.2239 1.5 14.5 1.5ZM5 5H11V11H5V5ZM4 5C4 4.44772 4.44772 4 5 4H11C11.5523 4 12 4.44772 12 5V11C12 11.5523 11.5523 12 11 12H5C4.44772 12 4 11.5523 4 11V5Z" fill="black" fill-opacity="0.9"/>
</svg>
