<svg width="16" height="16" viewBox="0 0 16 16" fill="none" xmlns="http://www.w3.org/2000/svg">
<path fill-rule="evenodd" clip-rule="evenodd" d="M11.9485 5.28183C12.1242 5.10609 12.4091 5.10609 12.5849 5.28183C12.7606 5.45756 12.7606 5.74249 12.5849 5.91822L10.5031 8.00003L12.5849 10.0818C12.7606 10.2576 12.7606 10.5425 12.5849 10.7182C12.4091 10.894 12.1242 10.894 11.9485 10.7182L9.54848 8.31822C9.37274 8.14249 9.37274 7.85756 9.54848 7.68183L11.9485 5.28183ZM4.05154 10.7182C3.8758 10.894 3.59088 10.894 3.41514 10.7182C3.23941 10.5425 3.23941 10.2576 3.41514 10.0818L5.49694 8.00003L3.41514 5.91822C3.23941 5.74249 3.23941 5.45756 3.41514 5.28183C3.59088 5.10609 3.8758 5.10609 4.05154 5.28183L6.45154 7.68183C6.62727 7.85756 6.62727 8.14249 6.45154 8.31822L4.05154 10.7182Z" fill="black"/>
</svg>
