<svg width="28" height="28" viewBox="0 0 28 28" fill="none" xmlns="http://www.w3.org/2000/svg">
<path fill-rule="evenodd" clip-rule="evenodd" d="M8.08381 16.2387H11.7687V19.9114C11.7687 20.3532 12.1268 20.7114 12.5687 20.7114H19.916C20.3578 20.7114 20.716 20.3532 20.716 19.9114V12.564C20.716 12.1222 20.3579 11.764 19.916 11.764H16.2338V8.0887C16.2338 7.64687 15.8756 7.2887 15.4338 7.2887H8.08381C7.64199 7.2887 7.28381 7.64687 7.28381 8.0887V15.4387C7.28381 15.8805 7.64198 16.2387 8.08381 16.2387ZM8.48381 8.4887V15.0387H11.7687V12.564C11.7687 12.5412 11.7696 12.5186 11.7715 12.4962V11.7687H12.4818C12.5103 11.7656 12.5393 11.764 12.5687 11.764H15.0338V8.4887H8.48381ZM15.5606 16.2287H16.2354V12.964H19.516V19.5114H12.9687V16.2387H15.4338C15.477 16.2387 15.5193 16.2353 15.5606 16.2287Z" fill="black"/>
</svg>
