<svg width="28" height="28" viewBox="0 0 28 28" fill="none" xmlns="http://www.w3.org/2000/svg">
<path fill-rule="evenodd" clip-rule="evenodd" d="M11.0039 13.6587C11.0039 11.8154 12.4982 10.3212 14.3414 10.3212C16.1847 10.3212 17.679 11.8154 17.679 13.6587C17.679 15.502 16.1847 16.9962 14.3414 16.9962C12.4982 16.9962 11.0039 15.502 11.0039 13.6587ZM14.3414 15.7962C13.1609 15.7962 12.2039 14.8392 12.2039 13.6587C12.2039 12.4782 13.1609 11.5212 14.3414 11.5212C15.522 11.5212 16.479 12.4782 16.479 13.6587C16.479 14.8392 15.522 15.7962 14.3414 15.7962Z" fill="black"/>
<path fill-rule="evenodd" clip-rule="evenodd" d="M6.43262 13.6587C6.43262 9.29084 9.97346 5.75 14.3413 5.75C18.7092 5.75 22.25 9.29084 22.25 13.6587C22.25 18.0265 18.7092 21.5674 14.3413 21.5674H6.43262V13.6587ZM14.3413 20.3674H7.63262V13.6587C7.63262 9.95358 10.6362 6.95 14.3413 6.95C18.0464 6.95 21.05 9.95358 21.05 13.6587C21.05 17.3638 18.0464 20.3674 14.3413 20.3674Z" fill="black"/>
</svg>
