<svg width="28" height="28" viewBox="0 0 28 28" fill="none" xmlns="http://www.w3.org/2000/svg">
<path fill-rule="evenodd" clip-rule="evenodd" d="M17.2084 7C17.1532 7 17.1084 7.04477 17.1084 7.1V13.13C15.962 13.4011 15.109 14.4311 15.109 15.6603C15.109 16.8895 15.962 17.9195 17.1084 18.1906V20.9C17.1084 20.9552 17.1532 21 17.2084 21H18.2084C18.2637 21 18.3084 20.9552 18.3084 20.9V18.1908C19.4554 17.9202 20.309 16.8899 20.309 15.6603C20.309 14.4306 19.4554 13.4004 18.3084 13.1297V7.1C18.3084 7.04477 18.2637 7 18.2084 7H17.2084ZM17.709 14.2603C16.9358 14.2603 16.309 14.8871 16.309 15.6603C16.309 16.4335 16.9358 17.0603 17.709 17.0603C18.4822 17.0603 19.109 16.4335 19.109 15.6603C19.109 14.8871 18.4822 14.2603 17.709 14.2603Z" fill="black"/>
<path fill-rule="evenodd" clip-rule="evenodd" d="M9.7051 15.1673C8.55872 14.8962 7.70569 13.8662 7.70569 12.637C7.70569 11.4078 8.55872 10.3778 9.7051 10.1067V7.1C9.7051 7.04477 9.74987 7 9.8051 7H10.8051C10.8603 7 10.9051 7.04477 10.9051 7.1V10.1065C12.0521 10.3771 12.9057 11.4074 12.9057 12.637C12.9057 13.8667 12.0521 14.8969 10.9051 15.1676V20.9C10.9051 20.9552 10.8603 21 10.8051 21H9.8051C9.74987 21 9.7051 20.9552 9.7051 20.9V15.1673ZM8.90569 12.637C8.90569 11.8638 9.53249 11.237 10.3057 11.237C11.0789 11.237 11.7057 11.8638 11.7057 12.637C11.7057 13.4102 11.0789 14.037 10.3057 14.037C9.53249 14.037 8.90569 13.4102 8.90569 12.637Z" fill="black"/>
</svg>
