<svg width="16" height="16" viewBox="0 0 16 16" fill="none" xmlns="http://www.w3.org/2000/svg">
<path fill-rule="evenodd" clip-rule="evenodd" d="M8.50012 1.59998C8.50012 1.32383 8.27626 1.09998 8.00012 1.09998C7.72398 1.09998 7.50012 1.32383 7.50012 1.59998V14.4C7.50012 14.6761 7.72398 14.9 8.00012 14.9C8.27626 14.9 8.50012 14.6761 8.50012 14.4V1.59998ZM4.0517 5.54824C3.87597 5.3725 3.59104 5.3725 3.41531 5.54824C3.23957 5.72397 3.23957 6.0089 3.41531 6.18463L4.78044 7.54977H1.06658C0.818049 7.54977 0.616577 7.75124 0.616577 7.99977C0.616577 8.24829 0.818049 8.44977 1.06658 8.44977H4.78044L3.41531 9.8149C3.23957 9.99064 3.23957 10.2756 3.41531 10.4513C3.59104 10.627 3.87597 10.627 4.0517 10.4513L6.18504 8.31796C6.26943 8.23357 6.31684 8.11911 6.31684 7.99977C6.31684 7.88042 6.26943 7.76596 6.18504 7.68157L4.0517 5.54824ZM12.585 6.18463C12.7608 6.0089 12.7608 5.72397 12.585 5.54824C12.4093 5.3725 12.1244 5.3725 11.9486 5.54824L9.81531 7.68157C9.73092 7.76596 9.6835 7.88042 9.6835 7.99977C9.6835 8.11911 9.73092 8.23357 9.81531 8.31797L11.9486 10.4513C12.1244 10.627 12.4093 10.627 12.585 10.4513C12.7608 10.2756 12.7608 9.99064 12.585 9.8149L11.2199 8.44977H14.9332C15.1818 8.44977 15.3832 8.24829 15.3832 7.99977C15.3832 7.75124 15.1818 7.54977 14.9332 7.54977H11.2199L12.585 6.18463Z" fill="black"/>
</svg>
