<svg width="16" height="16" viewBox="0 0 16 16" fill="none" xmlns="http://www.w3.org/2000/svg">
<path d="M2.45917 13.5938H4.27956L9.74075 8.13263" stroke="black" stroke-width="1.1" stroke-linecap="round" stroke-linejoin="round"/>
<path d="M2.40692 13.5417V11.7213L7.86811 6.26007" stroke="black" stroke-width="1.1" stroke-linecap="round" stroke-linejoin="round"/>
<path d="M9.76478 4.41492L11.8279 2.35181C12.0693 2.11041 12.3967 1.97479 12.7381 1.97479C13.0795 1.97479 13.4069 2.11041 13.6483 2.35181C13.8897 2.59321 14.0253 2.92062 14.0253 3.26201C14.0253 3.6034 13.8897 3.9308 13.6483 4.1722L11.5852 6.23532L11.8279 6.47804C11.9474 6.59757 12.0422 6.73947 12.1069 6.89564C12.1716 7.05181 12.2049 7.2192 12.2049 7.38824C12.2049 7.55727 12.1716 7.72466 12.1069 7.88083C12.0422 8.037 11.9474 8.1789 11.8279 8.29843C11.7084 8.41796 11.5665 8.51278 11.4103 8.57747C11.2541 8.64215 11.0867 8.67545 10.9177 8.67545C10.7487 8.67545 10.5813 8.64215 10.4251 8.57747C10.2689 8.51278 10.127 8.41796 10.0075 8.29843L7.70166 5.9926C7.58213 5.87307 7.48732 5.73117 7.42263 5.575C7.35794 5.41882 7.32465 5.25144 7.32465 5.0824C7.32465 4.91336 7.35794 4.74598 7.42263 4.58981C7.48732 4.43363 7.58213 4.29173 7.70166 4.1722C7.82119 4.05268 7.96309 3.95786 8.11926 3.89317C8.27544 3.82848 8.44282 3.79519 8.61186 3.79519C8.7809 3.79519 8.94828 3.82848 9.10445 3.89317C9.26063 3.95786 9.40253 4.05268 9.52206 4.1722L9.76478 4.41492Z" fill="black"/>
</svg>
