<svg width="16" height="16" viewBox="0 0 16 16" fill="none" xmlns="http://www.w3.org/2000/svg">
<path fill-rule="evenodd" clip-rule="evenodd" d="M2 14.1058C1.72386 14.1058 1.5 13.882 1.5 13.6058L1.5 2.39413C1.5 2.11799 1.72386 1.89413 2 1.89413C2.27614 1.89413 2.5 2.11799 2.5 2.39413L2.5 13.6058C2.5 13.882 2.27614 14.1058 2 14.1058ZM6.3076 5.15685C6.11805 4.95604 5.8016 4.94691 5.60078 5.13646L2.95235 7.63634C2.8523 7.73078 2.79558 7.86228 2.79556 7.99987C2.79554 8.13746 2.85222 8.26898 2.95225 8.36345L5.60068 10.8647C5.80144 11.0543 6.1179 11.0453 6.3075 10.8445C6.49711 10.6437 6.48806 10.3273 6.2873 10.1377L4.55319 8.49994L11.4446 8.49994L9.70675 10.1373C9.50576 10.3266 9.49634 10.6431 9.6857 10.8441C9.87506 11.0451 10.1915 11.0545 10.3925 10.8651L13.0473 8.36387C13.1476 8.26937 13.2045 8.13767 13.2045 7.99987C13.2044 7.86207 13.1475 7.73039 13.0472 7.63592L10.3924 5.13607C10.1914 4.94676 9.87491 4.95628 9.68561 5.15732C9.4963 5.35836 9.50581 5.6748 9.70686 5.86411L11.4441 7.49994L4.55369 7.49994L6.2872 5.86366C6.48801 5.67411 6.49714 5.35766 6.3076 5.15685ZM13.5 13.6058C13.5 13.882 13.7239 14.1058 14 14.1058C14.2761 14.1058 14.5 13.882 14.5 13.6058L14.5 2.39413C14.5 2.11799 14.2761 1.89413 14 1.89413C13.7239 1.89413 13.5 2.11799 13.5 2.39413L13.5 13.6058Z" fill="black" fill-opacity="0.9"/>
</svg>
