<svg width="16" height="16" viewBox="0 0 16 16" fill="none" xmlns="http://www.w3.org/2000/svg">
<path fill-rule="evenodd" clip-rule="evenodd" d="M14.1058 1.99994C14.1058 1.7238 13.882 1.49994 13.6058 1.49994L2.39413 1.49994C2.11799 1.49994 1.89413 1.7238 1.89413 1.99994C1.89413 2.27608 2.11799 2.49994 2.39413 2.49994L13.6058 2.49994C13.882 2.49994 14.1058 2.27608 14.1058 1.99994ZM5.15685 6.30753C4.95604 6.11798 4.94691 5.80153 5.13646 5.60072L7.63634 2.95229C7.73078 2.85223 7.86228 2.79552 7.99987 2.7955C8.13746 2.79548 8.26898 2.85216 8.36345 2.95219L10.8647 5.60062C11.0543 5.80138 11.0453 6.11784 10.8445 6.30744C10.6437 6.49704 10.3273 6.488 10.1377 6.28724L8.49994 4.55313L8.49994 11.4446L10.1373 9.70669C10.3266 9.5057 10.6431 9.49628 10.8441 9.68564C11.0451 9.875 11.0545 10.1914 10.8651 10.3924L8.36386 13.0473C8.26937 13.1476 8.13767 13.2044 7.99987 13.2044C7.86207 13.2044 7.73039 13.1475 7.63592 13.0472L5.13607 10.3923C4.94676 10.1913 4.95628 9.87485 5.15732 9.68554C5.35836 9.49624 5.6748 9.50575 5.8641 9.70679L7.49994 11.444L7.49994 4.55363L5.86366 6.28714C5.67411 6.48795 5.35766 6.49708 5.15685 6.30753ZM13.6058 13.4999C13.882 13.4999 14.1058 13.7238 14.1058 13.9999C14.1058 14.2761 13.882 14.4999 13.6058 14.4999L2.39413 14.4999C2.11798 14.4999 1.89413 14.2761 1.89413 13.9999C1.89413 13.7238 2.11798 13.4999 2.39413 13.4999L13.6058 13.4999Z" fill="black" fill-opacity="0.9"/>
</svg>
