<svg width="16" height="16" viewBox="0 0 16 16" fill="none" xmlns="http://www.w3.org/2000/svg">
<path fill-rule="evenodd" clip-rule="evenodd" d="M13.5 8C13.5 4.96243 11.0376 2.5 8 2.5C4.96243 2.5 2.5 4.96243 2.5 8C2.5 11.0376 4.96243 13.5 8 13.5C11.0376 13.5 13.5 11.0376 13.5 8ZM14.5 8C14.5 4.41015 11.5898 1.5 8 1.5C4.41015 1.5 1.5 4.41015 1.5 8C1.5 11.5899 4.41015 14.5 8 14.5C11.5898 14.5 14.5 11.5899 14.5 8ZM6.36276 3.8072L6.62368 4.78096C7.89967 4.2359 9.43364 4.48396 10.4748 5.52515C11.5163 6.56664 11.7642 8.10119 11.2185 9.37741L12.1923 9.63834C12.8219 8.02481 12.4851 6.12122 11.1819 4.81804C9.87907 3.51517 7.97605 3.17822 6.36276 3.8072Z" fill="black"/>
</svg>
