<svg width="16" height="16" viewBox="0 0 16 16" fill="none" xmlns="http://www.w3.org/2000/svg">
<path fill-rule="evenodd" clip-rule="evenodd" d="M2.15 8C2.15 7.22322 2.29849 6.47677 2.59547 5.76064C2.81812 5.22375 3.11217 4.73427 3.47762 4.29219C3.59268 4.37103 3.73193 4.41716 3.88195 4.41716C4.27748 4.41716 4.59813 4.09652 4.59813 3.70098C4.59813 3.56152 4.55827 3.43138 4.48932 3.32131C4.87782 3.02779 5.30159 2.78584 5.76064 2.59547C6.47678 2.29849 7.22323 2.15 8 2.15C8.77678 2.15 9.52323 2.29849 10.2394 2.59547C10.6982 2.78575 11.1225 3.02818 11.512 3.32275C11.4422 3.43327 11.4019 3.56421 11.4019 3.70458C11.4019 4.10011 11.7225 4.42076 12.118 4.42076C12.269 4.42076 12.4091 4.37405 12.5245 4.2943C12.8885 4.7348 13.1818 5.22358 13.4045 5.76064C13.7015 6.47678 13.85 7.22323 13.85 8C13.85 8.77677 13.7015 9.52322 13.4045 10.2394C13.1819 10.7763 12.8879 11.2657 12.5225 11.7077C12.4074 11.6289 12.2681 11.5827 12.118 11.5827C11.7225 11.5827 11.4019 11.9034 11.4019 12.2989C11.4019 12.4384 11.4417 12.5686 11.5107 12.6787C11.1222 12.9722 10.6985 13.2141 10.2394 13.4045C9.52322 13.7015 8.77677 13.85 8 13.85C7.22323 13.85 6.47678 13.7015 5.76064 13.4045C5.30177 13.2142 4.87752 12.9718 4.48791 12.6772C4.55772 12.5666 4.59813 12.4357 4.59813 12.2953C4.59813 11.8997 4.27748 11.579 3.88195 11.579C3.73093 11.579 3.59083 11.6258 3.47532 11.7056C3.11146 11.2651 2.81817 10.7764 2.59547 10.2394C2.29849 9.52322 2.15 8.77677 2.15 8ZM14.75 8C14.75 9.791 14.039 11.51 12.77 12.77C11.51 14.039 9.791 14.75 8 14.75C6.209 14.75 4.49 14.039 3.23 12.77C1.961 11.51 1.25 9.791 1.25 8C1.25 6.209 1.961 4.49 3.23 3.23C4.49 1.961 6.209 1.25 8 1.25C9.791 1.25 11.51 1.961 12.77 3.23C14.039 4.49 14.75 6.209 14.75 8ZM3.88195 7.28209C4.27748 7.28209 4.59813 6.96144 4.59813 6.56591C4.59813 6.17038 4.27748 5.84973 3.88195 5.84973C3.48641 5.84973 3.16577 6.17038 3.16577 6.56591C3.16577 6.96144 3.48641 7.28209 3.88195 7.28209ZM4.59813 9.43035C4.59813 9.82588 4.27748 10.1466 3.88195 10.1466C3.48641 10.1466 3.16577 9.82588 3.16577 9.43035C3.16577 9.03482 3.48641 8.71417 3.88195 8.71417C4.27748 8.71417 4.59813 9.03482 4.59813 9.43035ZM6.74657 4.41716C7.14212 4.41716 7.46275 4.09652 7.46275 3.70098C7.46275 3.30545 7.14212 2.9848 6.74657 2.9848C6.35104 2.9848 6.0304 3.30545 6.0304 3.70098C6.0304 4.09652 6.35104 4.41716 6.74657 4.41716ZM7.8209 9.43072C7.8209 10.024 7.33994 10.505 6.74664 10.505C6.15333 10.505 5.67236 10.024 5.67236 9.43072C5.67236 8.83742 6.15333 8.35645 6.74664 8.35645C7.33994 8.35645 7.8209 8.83742 7.8209 9.43072ZM6.74664 7.64006C7.33994 7.64006 7.8209 7.15909 7.8209 6.56579C7.8209 5.97249 7.33994 5.49152 6.74664 5.49152C6.15333 5.49152 5.67236 5.97249 5.67236 6.56579C5.67236 7.15909 6.15333 7.64006 6.74664 7.64006ZM7.46275 12.2953C7.46275 12.6908 7.14212 13.0114 6.74657 13.0114C6.35104 13.0114 6.0304 12.6908 6.0304 12.2953C6.0304 11.8997 6.35104 11.579 6.74657 11.579C7.14212 11.579 7.46275 11.8997 7.46275 12.2953ZM12.118 10.1502C11.7225 10.1502 11.4019 9.82955 11.4019 9.43401C11.4019 9.03847 11.7225 8.71783 12.118 8.71783C12.5136 8.71783 12.8343 9.03847 12.8343 9.43401C12.8343 9.82955 12.5136 10.1502 12.118 10.1502ZM12.118 7.28569C11.7225 7.28569 11.4019 6.96504 11.4019 6.56951C11.4019 6.17397 11.7225 5.85333 12.118 5.85333C12.5136 5.85333 12.8343 6.17397 12.8343 6.56951C12.8343 6.96504 12.5136 7.28569 12.118 7.28569ZM9.2533 4.42076C8.85776 4.42076 8.53711 4.10011 8.53711 3.70458C8.53711 3.30904 8.85776 2.9884 9.2533 2.9884C9.64883 2.9884 9.96951 3.30904 9.96951 3.70458C9.96951 4.10011 9.64883 4.42076 9.2533 4.42076ZM8.17908 9.43431C8.17908 10.0276 8.66005 10.5086 9.25335 10.5086C9.84665 10.5086 10.3276 10.0276 10.3276 9.43431C10.3276 8.84101 9.84665 8.36005 9.25335 8.36005C8.66005 8.36005 8.17908 8.84101 8.17908 9.43431ZM9.25335 7.64366C8.66005 7.64366 8.17908 7.16269 8.17908 6.56939C8.17908 5.97608 8.66005 5.49512 9.25335 5.49512C9.84665 5.49512 10.3276 5.97608 10.3276 6.56939C10.3276 7.16269 9.84665 7.64366 9.25335 7.64366ZM8.53711 12.2989C8.53711 12.6945 8.85776 13.0151 9.2533 13.0151C9.64883 13.0151 9.96951 12.6945 9.96951 12.2989C9.96951 11.9034 9.64883 11.5827 9.2533 11.5827C8.85776 11.5827 8.53711 11.9034 8.53711 12.2989Z" fill="black"/>
</svg>
