<svg width="16" height="16" viewBox="0 0 16 16" fill="none" xmlns="http://www.w3.org/2000/svg">
<path fill-rule="evenodd" clip-rule="evenodd" d="M8 2.5C4.96243 2.5 2.5 4.96243 2.5 8C2.5 11.0376 4.96243 13.5 8 13.5C11.0376 13.5 13.5 11.0376 13.5 8C13.5 4.96243 11.0376 2.5 8 2.5ZM8 1.5C4.41015 1.5 1.5 4.41015 1.5 8C1.5 11.5899 4.41015 14.5 8 14.5C11.5899 14.5 14.5 11.5899 14.5 8C14.5 4.41015 11.5899 1.5 8 1.5ZM9.8071 3.87754L9.30305 4.75059C10.5907 5.26745 11.5 6.52753 11.5 7.99999C11.5 9.47288 10.5902 10.7333 9.30193 11.2498L9.806 12.1229C11.3921 11.4272 12.5 9.84295 12.5 7.99999C12.5 6.15745 11.3926 4.57356 9.8071 3.87754Z" fill="black"/>
</svg>
