<svg width="16" height="16" viewBox="0 0 16 16" fill="none" xmlns="http://www.w3.org/2000/svg">
<path fill-rule="evenodd" clip-rule="evenodd" d="M13.5 8C13.5 11.0376 11.0376 13.5 8 13.5C4.96243 13.5 2.5 11.0376 2.5 8C2.5 4.96243 4.96243 2.5 8 2.5C11.0376 2.5 13.5 4.96243 13.5 8ZM14.5 8C14.5 11.5898 11.5898 14.5 8 14.5C4.41015 14.5 1.5 11.5898 1.5 8C1.5 4.41015 4.41015 1.5 8 1.5C11.5898 1.5 14.5 4.41015 14.5 8ZM9.63724 3.8072L9.37632 4.78096C8.10033 4.2359 6.56636 4.48397 5.52517 5.52515C4.48368 6.56664 4.23578 8.1012 4.78146 9.37741L3.80765 9.63834C3.17809 8.02481 3.51489 6.12122 4.81806 4.81804C6.12093 3.51517 8.02395 3.17823 9.63724 3.8072Z" fill="black"/>
</svg>
