<svg width="16" height="16" viewBox="0 0 16 16" fill="none" xmlns="http://www.w3.org/2000/svg">
<path fill-rule="evenodd" clip-rule="evenodd" d="M7.03706 2.66672C7.03706 3.15764 6.63909 3.55561 6.14817 3.55561C5.65725 3.55561 5.25928 3.15764 5.25928 2.66672C5.25928 2.1758 5.65725 1.77783 6.14817 1.77783C6.63909 1.77783 7.03706 2.1758 7.03706 2.66672ZM2.88889 7.11127C3.37981 7.11127 3.77778 6.7133 3.77778 6.22238C3.77778 5.73147 3.37981 5.3335 2.88889 5.3335C2.39797 5.3335 2 5.73147 2 6.22238C2 6.7133 2.39797 7.11127 2.88889 7.11127ZM2.88889 10.6664C3.37981 10.6664 3.77778 10.2685 3.77778 9.77756C3.77778 9.28664 3.37981 8.88867 2.88889 8.88867C2.39797 8.88867 2 9.28664 2 9.77756C2 10.2685 2.39797 10.6664 2.88889 10.6664ZM6.14803 11.111C6.88441 11.111 7.48136 10.514 7.48136 9.77767C7.48136 9.04129 6.88441 8.44434 6.14803 8.44434C5.41165 8.44434 4.8147 9.04129 4.8147 9.77767C4.8147 10.514 5.41165 11.111 6.14803 11.111ZM7.48136 6.22201C7.48136 6.95838 6.88441 7.55534 6.14803 7.55534C5.41165 7.55534 4.8147 6.95838 4.8147 6.22201C4.8147 5.48563 5.41165 4.88867 6.14803 4.88867C6.88441 4.88867 7.48136 5.48563 7.48136 6.22201ZM6.14817 14.2221C6.63909 14.2221 7.03706 13.8241 7.03706 13.3332C7.03706 12.8423 6.63909 12.4443 6.14817 12.4443C5.65725 12.4443 5.25928 12.8423 5.25928 13.3332C5.25928 13.8241 5.65725 14.2221 6.14817 14.2221ZM12.2222 9.77756C12.2222 10.2685 12.6201 10.6664 13.1111 10.6664C13.602 10.6664 13.9999 10.2685 13.9999 9.77756C13.9999 9.28664 13.602 8.88867 13.1111 8.88867C12.6201 8.88867 12.2222 9.28664 12.2222 9.77756ZM13.1111 7.11127C12.6201 7.11127 12.2222 6.7133 12.2222 6.22238C12.2222 5.73147 12.6201 5.3335 13.1111 5.3335C13.602 5.3335 13.9999 5.73147 13.9999 6.22238C13.9999 6.7133 13.602 7.11127 13.1111 7.11127ZM8.96289 2.66672C8.96289 3.15764 9.36086 3.55561 9.85178 3.55561C10.3427 3.55561 10.7407 3.15764 10.7407 2.66672C10.7407 2.1758 10.3427 1.77783 9.85178 1.77783C9.36086 1.77783 8.96289 2.1758 8.96289 2.66672ZM9.85189 11.111C9.11551 11.111 8.51855 10.514 8.51855 9.77767C8.51855 9.04129 9.11551 8.44434 9.85189 8.44434C10.5883 8.44434 11.1852 9.04129 11.1852 9.77767C11.1852 10.514 10.5883 11.111 9.85189 11.111ZM8.51855 6.22201C8.51855 6.95838 9.11551 7.55534 9.85189 7.55534C10.5883 7.55534 11.1852 6.95838 11.1852 6.22201C11.1852 5.48563 10.5883 4.88867 9.85189 4.88867C9.11551 4.88867 8.51855 5.48563 8.51855 6.22201ZM9.85178 14.2221C9.36086 14.2221 8.96289 13.8241 8.96289 13.3332C8.96289 12.8423 9.36086 12.4443 9.85178 12.4443C10.3427 12.4443 10.7407 12.8423 10.7407 13.3332C10.7407 13.8241 10.3427 14.2221 9.85178 14.2221Z" fill="black"/>
</svg>
