<svg width="28" height="28" viewBox="0 0 28 28" fill="none" xmlns="http://www.w3.org/2000/svg">
<rect x="6.5" y="22.4529" width="1.2" height="15" rx="0.1" transform="rotate(-90 6.5 22.4529)" fill="black"/>
<rect x="10" y="19.1309" width="1.2" height="8" rx="0.1" transform="rotate(-90 10 19.1309)" fill="black"/>
<path d="M13.9917 5.44153L13.9917 14.7182" stroke="black" stroke-width="1.2"/>
<path d="M13.9958 13.8774L17.2693 10.6039C17.3474 10.5258 17.4741 10.5258 17.5522 10.6039L18.1179 11.1696C18.196 11.2477 18.196 11.3744 18.1179 11.4525L14.3494 15.2209C14.1541 15.4162 13.8375 15.4162 13.6423 15.2209L9.8821 11.4607C9.80399 11.3826 9.80399 11.256 9.8821 11.1779L10.4478 10.6122C10.5259 10.5341 10.6525 10.5341 10.7306 10.6122L13.9958 13.8774Z" fill="black"/>
</svg>
