<svg width="28" height="28" viewBox="0 0 28 28" fill="none" xmlns="http://www.w3.org/2000/svg">
<path d="M12.75 9.5C12.4739 9.5 12.25 9.72386 12.25 10V18C12.25 18.2761 12.4739 18.5 12.75 18.5H15.25C15.5261 18.5 15.75 18.2761 15.75 18V10C15.75 9.72386 15.5261 9.5 15.25 9.5H12.75Z" fill="black"/>
<path fill-rule="evenodd" clip-rule="evenodd" d="M5.5 8C5.5 7.44772 5.94772 7 6.5 7H21.5C22.0523 7 22.5 7.44772 22.5 8V20C22.5 20.5523 22.0523 21 21.5 21H6.5C5.94772 21 5.5 20.5523 5.5 20V8ZM6.7 19.8V8.2H21.3V19.8H6.7Z" fill="black"/>
</svg>
