<svg width="16" height="16" viewBox="0 0 16 16" fill="none" xmlns="http://www.w3.org/2000/svg">
<path fill-rule="evenodd" clip-rule="evenodd" d="M3.73337 1.65668C3.51246 1.65668 3.33337 1.83576 3.33337 2.05668C3.33337 2.27759 3.51246 2.45668 3.73337 2.45668H12.2667C12.4876 2.45668 12.6667 2.27759 12.6667 2.05668C12.6667 1.83576 12.4876 1.65668 12.2667 1.65668H3.73337ZM5.30014 4.99002C5.30014 4.71388 5.07629 4.49002 4.80014 4.49002C4.524 4.49002 4.30014 4.71388 4.30014 4.99002V10.6434C4.30014 12.6868 5.95669 14.3434 8.00014 14.3434C10.0436 14.3434 11.7001 12.6868 11.7001 10.6434V4.99002C11.7001 4.71388 11.4763 4.49002 11.2001 4.49002C10.924 4.49002 10.7001 4.71388 10.7001 4.99002V10.6434C10.7001 12.1345 9.49131 13.3434 8.00014 13.3434C6.50898 13.3434 5.30014 12.1345 5.30014 10.6434V4.99002Z" fill="black"/>
</svg>
