<svg width="16" height="16" viewBox="0 0 16 16" fill="none" xmlns="http://www.w3.org/2000/svg">
<path fill-rule="evenodd" clip-rule="evenodd" d="M4.54055 3.56769C4.74743 3.56748 4.93308 3.6947 5.00755 3.88772L8.06723 11.8185C8.16662 12.0761 8.03834 12.3656 7.78071 12.465C7.52307 12.5644 7.23364 12.4361 7.13425 12.1784L6.13671 9.59278H2.95805L1.96699 12.1775C1.86813 12.4353 1.57896 12.5642 1.32113 12.4653C1.06329 12.3665 0.934414 12.0773 1.03328 11.8195L4.07421 3.88868C4.14827 3.69551 4.33366 3.5679 4.54055 3.56769ZM4.5425 5.46053L5.80878 8.74278H3.28397L4.5425 5.46053ZM11.9712 6.01158C10.4072 6.01158 9.21659 7.42107 9.21659 9.25509C9.21659 11.1844 10.5025 12.4986 11.9712 12.4986C12.7453 12.4986 13.5478 12.1796 14.1 11.5776V12.0388C14.1 12.2873 14.3015 12.4888 14.55 12.4888C14.7985 12.4888 15 12.2873 15 12.0388V6.50058C15 6.25206 14.7985 6.05058 14.55 6.05058C14.3015 6.05058 14.1 6.25206 14.1 6.50058V6.95663C13.5772 6.37715 12.8115 6.01158 11.9712 6.01158ZM14.1 10.4255V7.97065C13.72 7.30304 12.9499 6.82232 12.1502 6.82232C11.218 6.82232 10.1945 7.68807 10.1945 9.25491C10.1945 10.7264 11.1227 11.6875 12.1502 11.6875C12.9764 11.6875 13.7278 11.0761 14.1 10.4255Z" fill="black"/>
</svg>
