<svg width="16" height="16" viewBox="0 0 16 16" fill="none" xmlns="http://www.w3.org/2000/svg">
<path fill-rule="evenodd" clip-rule="evenodd" d="M5.30008 2.31665C5.30008 2.04051 5.07622 1.81665 4.80008 1.81665C4.52394 1.81665 4.30008 2.04051 4.30008 2.31665V7.96998C4.30008 10.0134 5.95663 11.67 8.00008 11.67C10.0435 11.67 11.7001 10.0134 11.7001 7.96999V2.31665C11.7001 2.04051 11.4762 1.81665 11.2001 1.81665C10.9239 1.81665 10.7001 2.04051 10.7001 2.31665V7.96999C10.7001 9.46115 9.49125 10.67 8.00008 10.67C6.50891 10.67 5.30008 9.46115 5.30008 7.96998V2.31665ZM3.73337 13.3834C3.51246 13.3834 3.33337 13.5625 3.33337 13.7834C3.33337 14.0043 3.51246 14.1834 3.73337 14.1834H12.2667C12.4876 14.1834 12.6667 14.0043 12.6667 13.7834C12.6667 13.5625 12.4876 13.3834 12.2667 13.3834H3.73337Z" fill="black"/>
</svg>
