<svg width="16" height="16" viewBox="0 0 16 16" fill="none" xmlns="http://www.w3.org/2000/svg">
<path fill-rule="evenodd" clip-rule="evenodd" d="M4.08244 5.2395C2.3323 5.2395 1 6.81674 1 8.86904C1 11.028 2.43896 12.4986 4.08244 12.4986C4.97382 12.4986 5.89878 12.1206 6.51767 11.4085V11.984C6.51767 12.2325 6.71914 12.434 6.96767 12.434C7.2162 12.434 7.41767 12.2325 7.41767 11.984V5.78668C7.41767 5.53815 7.2162 5.33668 6.96767 5.33668C6.71914 5.33668 6.51767 5.53815 6.51767 5.78668V6.35737C5.9321 5.67406 5.05159 5.2395 4.08244 5.2395ZM6.51767 10.0813V7.53055C6.11441 6.73257 5.21661 6.14674 4.28277 6.14674C3.23967 6.14674 2.09427 7.11554 2.09427 8.86886C2.09427 10.5155 3.133 11.591 4.28277 11.591C5.24842 11.591 6.12274 10.8445 6.51767 10.0813ZM11.6558 5.2395C9.90563 5.2395 8.57333 6.81674 8.57333 8.86904C8.57333 11.028 10.0123 12.4986 11.6558 12.4986C12.5474 12.4986 13.4726 12.1204 14.0915 11.408V11.984C14.0915 12.2325 14.2929 12.434 14.5415 12.434C14.79 12.434 14.9915 12.2325 14.9915 11.984V5.78667C14.9915 5.53814 14.79 5.33667 14.5415 5.33667C14.2929 5.33667 14.0915 5.53814 14.0915 5.78667V6.3579C13.5059 5.67428 12.6252 5.2395 11.6558 5.2395ZM14.0915 10.0805V7.53145C13.6884 6.73301 12.7903 6.14674 11.8561 6.14674C10.813 6.14674 9.6676 7.11554 9.6676 8.86886C9.6676 10.5155 10.7063 11.591 11.8561 11.591C12.8221 11.591 13.6968 10.8439 14.0915 10.0805Z" fill="black"/>
</svg>
