<svg width="16" height="16" viewBox="0 0 16 16" fill="none" xmlns="http://www.w3.org/2000/svg">
<path fill-rule="evenodd" clip-rule="evenodd" d="M3.66669 2.10001C3.39054 2.10001 3.16669 2.32386 3.16669 2.60001V13.4C3.16669 13.6761 3.39055 13.9 3.66669 13.9H12.3334C12.6095 13.9 12.8334 13.6761 12.8334 13.4V6.36667H9.06669C8.79054 6.36667 8.56669 6.14282 8.56669 5.86667V2.10001H3.66669ZM9.56669 2.80711L12.1262 5.36667H9.56669V2.80711ZM2.16669 2.60001C2.16669 1.77158 2.83826 1.10001 3.66669 1.10001H9.06669C9.1993 1.10001 9.32647 1.15268 9.42024 1.24645L13.6869 5.51312C13.7807 5.60689 13.8334 5.73406 13.8334 5.86667V13.4C13.8334 14.2284 13.1618 14.9 12.3334 14.9H3.66669C2.83826 14.9 2.16669 14.2284 2.16669 13.4V2.60001Z" fill="black"/>
</svg>
