<svg width="16" height="16" viewBox="0 0 16 16" fill="none" xmlns="http://www.w3.org/2000/svg">
<path fill-rule="evenodd" clip-rule="evenodd" d="M7.9986 1C6.8257 1 5.86107 1.38943 5.23753 2.19361C4.73745 2.83856 4.5 3.68242 4.5 4.63325H5.5C5.5 3.84313 5.69691 3.23312 6.0278 2.80636C6.41615 2.30552 7.05152 2 7.9986 2C8.85683 2 9.46336 2.26502 9.85846 2.68623C10.2579 3.11211 10.5 3.76044 10.5 4.63601V7H3.5C2.94772 7 2.5 7.44772 2.5 8V14C2.5 14.5523 2.94772 15 3.5 15H12.5C13.0523 15 13.5 14.5523 13.5 14V8C13.5 7.44772 13.0523 7 12.5 7H11.5V4.63601C11.5 3.58135 11.2065 2.66167 10.5878 2.0021C9.96477 1.33787 9.07061 1 7.9986 1ZM3.5 8H12.5V14H3.5V8Z" fill="black"/>
</svg>
