<svg width="16" height="16" viewBox="0 0 16 16" fill="none" xmlns="http://www.w3.org/2000/svg">
<path fill-rule="evenodd" clip-rule="evenodd" d="M7.99985 0.967041C4.11581 0.967041 0.967163 4.11569 0.967163 7.99973C0.967163 11.8837 4.11581 15.0324 7.99985 15.0324C11.8839 15.0324 15.0325 11.8837 15.0325 7.99973C15.0325 4.11569 11.8839 0.967041 7.99985 0.967041ZM1.91716 7.99973C1.91716 4.64036 4.64048 1.91704 7.99985 1.91704C11.3592 1.91704 14.0825 4.64036 14.0825 7.99973C14.0825 11.3591 11.3592 14.0824 7.99985 14.0824C4.64048 14.0824 1.91716 11.3591 1.91716 7.99973ZM8.79987 4.80001C8.79987 5.24184 8.44169 5.60001 7.99987 5.60001C7.55804 5.60001 7.19987 5.24184 7.19987 4.80001C7.19987 4.35818 7.55804 4.00001 7.99987 4.00001C8.44169 4.00001 8.79987 4.35818 8.79987 4.80001ZM6.43332 6.43334H6.93332H7.99999C8.27613 6.43334 8.49999 6.6572 8.49999 6.93334V10.7H9.06666H9.56666V11.7H9.06666H7.99999H6.93332H6.43332V10.7H6.93332H7.49999V7.43334H6.93332H6.43332V6.43334Z" fill="black"/>
</svg>
