<svg width="16" height="16" viewBox="0 0 16 16" fill="none" xmlns="http://www.w3.org/2000/svg">
<path fill-rule="evenodd" clip-rule="evenodd" d="M7.47942 1.94055L7.45851 1.99084L5.95437 5.60721C5.91117 5.71108 5.81349 5.78205 5.70135 5.79104L1.79717 6.10403L1.74288 6.10839L1.41135 6.13497L1.11056 6.15908C0.84456 6.1804 0.736703 6.51236 0.939364 6.68596L1.16853 6.88227L1.42113 7.09864L1.46249 7.13407L4.43706 9.68211C4.5225 9.7553 4.55981 9.87013 4.53371 9.97956L3.62493 13.7894L3.61229 13.8423L3.53512 14.1659L3.4651 14.4594C3.40319 14.719 3.68556 14.9241 3.91329 14.785L4.17081 14.6277L4.45466 14.4544L4.50113 14.426L7.84365 12.3844C7.93966 12.3257 8.0604 12.3257 8.15641 12.3844L11.4989 14.426L11.5454 14.4544L11.8292 14.6277L12.0868 14.785C12.3145 14.9241 12.5969 14.719 12.535 14.4594L12.4649 14.1659L12.3878 13.8423L12.3751 13.7894L11.4663 9.97956C11.4402 9.87013 11.4776 9.7553 11.563 9.68211L14.5376 7.13407L14.5789 7.09864L14.8315 6.88227L15.0607 6.68596C15.2634 6.51236 15.1555 6.1804 14.8895 6.15908L14.5887 6.13496L14.2572 6.10839L14.2029 6.10403L10.2987 5.79104C10.1866 5.78205 10.0889 5.71108 10.0457 5.60721L8.54155 1.99084L8.52064 1.94055L8.39291 1.63345L8.27702 1.35483C8.17455 1.10845 7.82551 1.10845 7.72303 1.35484L7.60715 1.63345L7.47942 1.94055ZM8.00003 3.29281L6.87769 5.99124C6.69048 6.44134 6.26719 6.74888 5.78126 6.78784L2.86809 7.02139L5.08762 8.92265C5.45785 9.23979 5.61953 9.7374 5.50642 10.2116L4.82832 13.0543L7.3224 11.531C7.73842 11.2769 8.26164 11.2769 8.67766 11.531L11.1717 13.0543L10.4936 10.2116C10.3805 9.7374 10.5422 9.23979 10.9124 8.92265L13.132 7.02139L10.2188 6.78784C9.73287 6.74888 9.30958 6.44134 9.12237 5.99124L8.00003 3.29281Z" fill="black"/>
</svg>
