<svg width="16" height="16" viewBox="0 0 16 16" fill="none" xmlns="http://www.w3.org/2000/svg">
<path fill-rule="evenodd" clip-rule="evenodd" d="M6.5 5C6.5 5.82843 5.82843 6.5 5 6.5C4.17157 6.5 3.5 5.82843 3.5 5C3.5 4.17157 4.17157 3.5 5 3.5C5.82843 3.5 6.5 4.17157 6.5 5ZM11 6.5C11.8284 6.5 12.5 5.82843 12.5 5C12.5 4.17157 11.8284 3.5 11 3.5C10.1716 3.5 9.5 4.17157 9.5 5C9.5 5.82843 10.1716 6.5 11 6.5ZM11 12.5C11.8284 12.5 12.5 11.8284 12.5 11C12.5 10.1716 11.8284 9.5 11 9.5C10.1716 9.5 9.5 10.1716 9.5 11C9.5 11.8284 10.1716 12.5 11 12.5ZM5 12.5C5.82843 12.5 6.5 11.8284 6.5 11C6.5 10.1716 5.82843 9.5 5 9.5C4.17157 9.5 3.5 10.1716 3.5 11C3.5 11.8284 4.17157 12.5 5 12.5Z" fill="black"/>
</svg>
