<svg width="16" height="16" viewBox="0 0 16 16" fill="none" xmlns="http://www.w3.org/2000/svg">
<path fill-rule="evenodd" clip-rule="evenodd" d="M5.15351 2.31312C5.34877 2.50838 5.34877 2.82496 5.15351 3.02023L3.87373 4.3H9.59996C12.2325 4.3 14.3666 6.43412 14.3666 9.06667C14.3666 11.6992 12.2325 13.8333 9.59996 13.8333H5.33329C5.05715 13.8333 4.83329 13.6095 4.83329 13.3333C4.83329 13.0572 5.05715 12.8333 5.33329 12.8333H9.59996C11.6802 12.8333 13.3666 11.1469 13.3666 9.06667C13.3666 6.9864 11.6802 5.3 9.59996 5.3H3.87373L5.15351 6.57978C5.34877 6.77505 5.34877 7.09163 5.15351 7.28689C4.95825 7.48215 4.64167 7.48215 4.44641 7.28689L2.31307 5.15356C2.11781 4.9583 2.11781 4.64171 2.31307 4.44645L4.44641 2.31312C4.64167 2.11786 4.95825 2.11786 5.15351 2.31312Z" fill="black"/>
</svg>
