<svg width="16" height="16" viewBox="0 0 16 16" fill="none" xmlns="http://www.w3.org/2000/svg">
<path fill-rule="evenodd" clip-rule="evenodd" d="M5.16317 3.63167C4.96791 3.82693 4.96791 4.14352 5.16317 4.33878L7.6484 6.824C7.84366 7.01927 8.16024 7.01927 8.3555 6.824L10.8407 4.33878C11.036 4.14352 11.036 3.82693 10.8407 3.63167L8.3555 1.14645C8.16024 0.951185 7.84366 0.951184 7.6484 1.14645L5.16317 3.63167ZM8.00195 5.76334L6.22383 3.98522L8.00195 2.20711L9.78007 3.98522L8.00195 5.76334ZM9.1799 7.6484C8.98463 7.84366 8.98463 8.16024 9.1799 8.3555L11.6651 10.8407C11.8604 11.036 12.177 11.036 12.3722 10.8407L14.8575 8.3555C15.0527 8.16024 15.0527 7.84366 14.8575 7.6484L12.3722 5.16317C12.177 4.96791 11.8604 4.96791 11.6651 5.16317L9.1799 7.6484ZM12.0187 9.78007L10.2406 8.00195L12.0187 6.22383L13.7968 8.00195L12.0187 9.78007ZM5.16317 12.3722C4.96791 12.177 4.96791 11.8604 5.16317 11.6651L7.6484 9.1799C7.84366 8.98463 8.16024 8.98463 8.3555 9.1799L10.8407 11.6651C11.036 11.8604 11.036 12.177 10.8407 12.3722L8.3555 14.8575C8.16024 15.0527 7.84366 15.0527 7.6484 14.8575L5.16317 12.3722ZM6.22383 12.0187L8.00195 13.7968L9.78007 12.0187L8.00195 10.2406L6.22383 12.0187ZM1.14645 7.64855C0.951184 7.84381 0.951184 8.16039 1.14645 8.35566L3.63167 10.8409C3.82693 11.0361 4.14352 11.0361 4.33878 10.8409L6.824 8.35566C7.01927 8.16039 7.01927 7.84381 6.824 7.64855L4.33878 5.16332C4.14352 4.96806 3.82693 4.96806 3.63167 5.16332L1.14645 7.64855ZM3.98523 9.78022L2.20711 8.0021L3.98523 6.22398L5.76334 8.0021L3.98523 9.78022Z" fill="black"/>
</svg>
