<svg width="16" height="16" viewBox="0 0 16 16" fill="none" xmlns="http://www.w3.org/2000/svg">
<g clip-path="url(#clip0_4288_51428)">
<path fill-rule="evenodd" clip-rule="evenodd" d="M6.9659 9.08968L2.92632 13.1534L6.9671 13.1534L6.9671 10.8948C6.96631 10.8833 6.9659 10.8718 6.9659 10.8602L6.9659 9.08968ZM7.9671 11.0708L7.9671 13.6534C7.9671 13.9296 7.74324 14.1534 7.4671 14.1534L1.72428 14.1534C1.52232 14.1534 1.34019 14.0319 1.26263 13.8454C1.18507 13.659 1.2273 13.4442 1.36968 13.3009L7.11249 7.52377C7.11561 7.52064 7.11875 7.51756 7.12194 7.51452L12.5282 2.10824C12.622 2.01447 12.7492 1.96179 12.8818 1.96179C13.0144 1.96179 13.1416 2.01447 13.2353 2.10824L14.8353 3.70824C14.9301 3.80297 14.9828 3.93176 14.9818 4.06573C14.9807 4.1997 14.9259 4.32764 14.8297 4.42087L7.9671 11.0708ZM7.9671 9.67829L13.769 4.05618L12.8818 3.1689L7.9671 8.08357L7.9671 9.67829Z" fill="black"/>
</g>
<defs>
<clipPath id="clip0_4288_51428">
<rect width="16" height="16" fill="white"/>
</clipPath>
</defs>
</svg>
