<svg width="16" height="16" viewBox="0 0 16 16" fill="none" xmlns="http://www.w3.org/2000/svg">
<path d="M7.72303 1.35484C7.82551 1.10845 8.17455 1.10845 8.27703 1.35483L10.0457 5.60721C10.0889 5.71108 10.1866 5.78205 10.2987 5.79104L14.8895 6.15908C15.1555 6.1804 15.2634 6.51236 15.0607 6.68596L11.563 9.68211C11.4776 9.75529 11.4402 9.87013 11.4663 9.97956L12.535 14.4594C12.5969 14.719 12.3145 14.9241 12.0868 14.785L8.15641 12.3844C8.0604 12.3257 7.93966 12.3257 7.84365 12.3844L3.91329 14.785C3.68556 14.9241 3.40319 14.719 3.4651 14.4594L4.53371 9.97956C4.55981 9.87013 4.5225 9.75529 4.43706 9.68211L0.939364 6.68596C0.736703 6.51236 0.84456 6.1804 1.11056 6.15908L5.70135 5.79104C5.81349 5.78205 5.91117 5.71108 5.95437 5.60721L7.72303 1.35484Z" fill="black"/>
</svg>
