<svg width="16" height="16" viewBox="0 0 16 16" fill="none" xmlns="http://www.w3.org/2000/svg">
<path fill-rule="evenodd" clip-rule="evenodd" d="M7.99985 0.967026C4.11581 0.967026 0.967163 4.11567 0.967163 7.99971C0.967163 11.8837 4.11581 15.0324 7.99985 15.0324C11.8839 15.0324 15.0325 11.8837 15.0325 7.99971C15.0325 4.11567 11.8839 0.967026 7.99985 0.967026ZM1.91716 7.99971C1.91716 4.64034 4.64048 1.91703 7.99985 1.91703C11.3592 1.91703 14.0825 4.64034 14.0825 7.99971C14.0825 11.3591 11.3592 14.0824 7.99985 14.0824C4.64048 14.0824 1.91716 11.3591 1.91716 7.99971ZM5.34591 9.84729C5.18793 9.6208 4.87626 9.56527 4.64977 9.72325C4.42329 9.88123 4.36775 10.1929 4.52573 10.4194C5.28987 11.5149 6.56099 12.2333 7.99999 12.2333C9.43899 12.2333 10.7101 11.5149 11.4742 10.4194C11.6322 10.1929 11.5767 9.88123 11.3502 9.72325C11.1237 9.56527 10.812 9.6208 10.6541 9.84729C10.0689 10.6862 9.09832 11.2333 7.99999 11.2333C6.90166 11.2333 5.93105 10.6862 5.34591 9.84729ZM5.73332 7.30665C6.24878 7.30665 6.66665 6.8887 6.66665 6.37331C6.66665 5.85793 6.24878 5.43998 5.73332 5.43998C5.21785 5.43998 4.79998 5.85793 4.79998 6.37331C4.79998 6.8887 5.21785 7.30665 5.73332 7.30665ZM11.2 6.37331C11.2 6.8887 10.7821 7.30665 10.2666 7.30665C9.75119 7.30665 9.33331 6.8887 9.33331 6.37331C9.33331 5.85793 9.75119 5.43998 10.2666 5.43998C10.7821 5.43998 11.2 5.85793 11.2 6.37331Z" fill="black"/>
</svg>
