<svg width="16" height="16" viewBox="0 0 16 16" fill="none" xmlns="http://www.w3.org/2000/svg">
<path fill-rule="evenodd" clip-rule="evenodd" d="M9.03088 3.37902C9.7287 2.90497 10.6115 2.89541 11.2677 3.32637C11.4171 3.42446 11.5762 3.57989 11.9982 4.00191C12.4202 4.42393 12.5757 4.58307 12.6737 4.73242C13.1047 5.38865 13.0951 6.27142 12.6211 6.96924C12.5127 7.12883 12.3451 7.29958 11.9075 7.73713L11.2729 8.37175C11.0777 8.56702 11.0777 8.8836 11.2729 9.07886C11.4682 9.27412 11.7848 9.27412 11.98 9.07886L12.6147 8.44424L12.6579 8.40101L12.6579 8.40099C13.0378 8.0212 13.2796 7.77948 13.4483 7.53117C14.1381 6.51573 14.1735 5.19442 13.5096 4.18348C13.3477 3.93696 13.1116 3.7009 12.7503 3.33979L12.7053 3.2948L12.6603 3.24978L12.6603 3.24977C12.2992 2.88854 12.0632 2.65241 11.8166 2.49051C10.8057 1.8266 9.48439 1.86202 8.46895 2.55183C8.22064 2.72052 7.97891 2.96231 7.59911 3.34222L7.55588 3.38546L6.92126 4.02008C6.72599 4.21534 6.72599 4.53193 6.92126 4.72719C7.11652 4.92245 7.4331 4.92245 7.62836 4.72719L8.26298 4.09257C8.70054 3.65501 8.87128 3.48743 9.03088 3.37902ZM4.72725 7.6283C4.92251 7.43304 4.92251 7.11646 4.72725 6.9212C4.53199 6.72593 4.2154 6.72593 4.02014 6.9212L3.38552 7.55582L3.34228 7.59905L3.34228 7.59906C2.96236 7.97886 2.72058 8.22058 2.55189 8.46889C1.86208 9.48433 1.82666 10.8056 2.49057 11.8166C2.65247 12.0631 2.88861 12.2992 3.24986 12.6603L3.29486 12.7053L3.33986 12.7503C3.70097 13.1115 3.93702 13.3476 4.18354 13.5095C5.19448 14.1735 6.51579 14.138 7.53123 13.4482C7.77954 13.2795 8.02126 13.0378 8.40106 12.6579L8.40107 12.6578L8.4443 12.6146L9.07892 11.98C9.27418 11.7847 9.27418 11.4681 9.07892 11.2729C8.88366 11.0776 8.56708 11.0776 8.37181 11.2729L7.7372 11.9075C7.29964 12.345 7.12889 12.5126 6.9693 12.621C6.27148 13.0951 5.38871 13.1046 4.73248 12.6737C4.58313 12.5756 4.42399 12.4202 4.00197 11.9981C3.57995 11.5761 3.42452 11.417 3.32643 11.2676C2.89547 10.6114 2.90503 9.72863 3.37908 9.03082C3.48749 8.87122 3.65507 8.70048 4.09263 8.26292L4.72725 7.6283ZM10.1673 6.53989C10.3626 6.34463 10.3626 6.02805 10.1673 5.83279C9.97205 5.63752 9.65547 5.63752 9.46021 5.83279L5.83381 9.45918C5.63855 9.65444 5.63855 9.97102 5.83381 10.1663C6.02908 10.3615 6.34566 10.3615 6.54092 10.1663L10.1673 6.53989Z" fill="black"/>
</svg>
