<svg width="16" height="16" viewBox="0 0 16 16" fill="none" xmlns="http://www.w3.org/2000/svg">
<path fill-rule="evenodd" clip-rule="evenodd" d="M5.5 5.14686C5.5 4.27116 5.74219 3.61625 6.14323 3.18442C6.53934 2.7579 7.14582 2.48915 8.0014 2.48915C8.85745 2.48915 9.46306 2.75737 9.85823 3.18293C10.2584 3.61384 10.5 4.26793 10.5 5.1441V6.51084H5.5V5.14686ZM4.5 6.51084V5.14686C4.5 4.09233 4.79339 3.16838 5.41049 2.50391C6.03252 1.83413 6.92675 1.48915 8.0014 1.48915C9.07583 1.48915 9.96952 1.83318 10.591 2.50247C11.2076 3.16642 11.5 4.08981 11.5 5.1441V6.51084H12.5C13.0523 6.51084 13.5 6.95856 13.5 7.51084V13.5108C13.5 14.0631 13.0523 14.5108 12.5 14.5108H3.5C2.94772 14.5108 2.5 14.0631 2.5 13.5108V7.51084C2.5 6.95856 2.94772 6.51084 3.5 6.51084H4.5ZM3.5 7.51084H12.5V13.5108H3.5V7.51084Z" fill="black"/>
</svg>
