<svg width="16" height="16" viewBox="0 0 16 16" fill="none" xmlns="http://www.w3.org/2000/svg">
<path fill-rule="evenodd" clip-rule="evenodd" d="M14.565 6.37386C14.7991 6.52021 14.8703 6.82869 14.724 7.06286C14.3359 7.68378 13.8763 8.25008 13.3549 8.74567L14.3994 9.79022C14.5947 9.98549 14.5947 10.3021 14.3994 10.4973C14.2042 10.6926 13.8876 10.6926 13.6923 10.4973L12.5861 9.39114C11.8865 9.90782 11.1025 10.3096 10.2512 10.5678L10.6429 12.0299C10.7144 12.2966 10.5561 12.5708 10.2894 12.6423C10.0226 12.7137 9.74847 12.5554 9.677 12.2887L9.27668 10.7945C8.86343 10.8625 8.43731 10.8978 7.99996 10.8978C7.5626 10.8978 7.13647 10.8625 6.72322 10.7945L6.32293 12.2887C6.25146 12.5554 5.9773 12.7137 5.71057 12.6423C5.44383 12.5708 5.28553 12.2966 5.35699 12.0299L5.74869 10.5678C4.8974 10.3096 4.11339 9.90781 3.41377 9.39112L2.30757 10.4973C2.11231 10.6926 1.79573 10.6926 1.60046 10.4973C1.4052 10.3021 1.4052 9.98548 1.60046 9.79022L2.64503 8.74565C2.12359 8.25006 1.66403 7.68378 1.27596 7.06286C1.1296 6.82869 1.20079 6.52022 1.43496 6.37386C1.66912 6.2275 1.9776 6.29869 2.12396 6.53286C2.55251 7.21854 3.07551 7.82472 3.67681 8.32695C3.68729 8.33496 3.69752 8.34345 3.70747 8.35241C4.88253 9.32266 6.35297 9.89785 7.99996 9.89785C10.5078 9.89785 12.6063 8.56422 13.876 6.53286C14.0223 6.29869 14.3308 6.2275 14.565 6.37386Z" fill="black"/>
</svg>
