<svg width="16" height="16" viewBox="0 0 16 16" fill="none" xmlns="http://www.w3.org/2000/svg">
<path d="M2.5 10.7V13.7C2.5 13.9762 2.72386 14.2 3 14.2H13C13.2761 14.2 13.5 13.9762 13.5 13.7V10.7" stroke="black"/>
<path fill-rule="evenodd" clip-rule="evenodd" d="M8.00002 1.12C8.26512 1.12 8.48002 1.3349 8.48002 1.6V9.6C8.48002 9.86509 8.26512 10.08 8.00002 10.08C7.73492 10.08 7.52002 9.86509 7.52002 9.6V1.6C7.52002 1.3349 7.73492 1.12 8.00002 1.12Z" fill="black"/>
<path fill-rule="evenodd" clip-rule="evenodd" d="M4.46066 6.59393C4.64811 6.40648 4.95203 6.40648 5.13948 6.59393L8.00007 9.45452L10.8607 6.59393C11.0481 6.40648 11.352 6.40648 11.5395 6.59393C11.7269 6.78138 11.7269 7.0853 11.5395 7.27275L8.33948 10.4727C8.15203 10.6602 7.84811 10.6602 7.66066 10.4727L4.46066 7.27275C4.27321 7.0853 4.27321 6.78138 4.46066 6.59393Z" fill="black"/>
</svg>
