<svg width="16" height="16" viewBox="0 0 16 16" fill="none" xmlns="http://www.w3.org/2000/svg">
<path fill-rule="evenodd" clip-rule="evenodd" d="M7.99985 0.967178C4.11581 0.967178 0.967163 4.11582 0.967163 7.99987C0.967163 11.8839 4.11581 15.0326 7.99985 15.0326C11.8839 15.0326 15.0325 11.8839 15.0325 7.99987C15.0325 4.11582 11.8839 0.967178 7.99985 0.967178ZM1.91716 7.99987C1.91716 4.64049 4.64048 1.91718 7.99985 1.91718C11.3592 1.91718 14.0825 4.6405 14.0825 7.99987C14.0825 11.3592 11.3592 14.0826 7.99985 14.0826C4.64048 14.0826 1.91716 11.3592 1.91716 7.99987ZM10.8089 5.88774L11.0966 5.47884L10.2788 4.90334L9.99107 5.31225L6.95861 9.62154L5.69009 8.32955L5.33979 7.97277L4.62623 8.67336L4.97653 9.03014L6.66542 10.7503C6.76938 10.8562 6.91501 10.9104 7.06291 10.8983C7.21081 10.8863 7.3457 10.8091 7.4311 10.6877L10.8089 5.88774Z" fill="black"/>
</svg>
