<svg width="16" height="16" viewBox="0 0 16 16" fill="none" xmlns="http://www.w3.org/2000/svg">
<path fill-rule="evenodd" clip-rule="evenodd" d="M8.00001 0.96666C8.27615 0.96666 8.50001 1.19052 8.50001 1.46666V2.63303C11.0172 2.91417 13.0023 4.95682 13.1941 7.49999H14.5333C14.8095 7.49999 15.0333 7.72385 15.0333 7.99999C15.0333 8.27614 14.8095 8.49999 14.5333 8.49999H13.1763C12.9022 10.954 10.954 12.9022 8.50001 13.1762V14.5333C8.50001 14.8095 8.27615 15.0333 8.00001 15.0333C7.72387 15.0333 7.50001 14.8095 7.50001 14.5333V13.1941C4.95684 13.0022 2.91418 11.0172 2.63305 8.49999H1.46667C1.19053 8.49999 0.966675 8.27614 0.966675 7.99999C0.966675 7.72385 1.19053 7.49999 1.46667 7.49999H2.61521C2.81186 4.89293 4.89294 2.81184 7.50001 2.6152V1.46666C7.50001 1.19052 7.72387 0.96666 8.00001 0.96666ZM8.50001 12.1684V9.86666C8.50001 9.59052 8.27615 9.36666 8.00001 9.36666C7.72387 9.36666 7.50001 9.59052 7.50001 9.86666V12.1905C5.50958 12.0049 3.91259 10.4642 3.64085 8.49999H6.13334C6.40948 8.49999 6.63334 8.27614 6.63334 7.99999C6.63334 7.72385 6.40948 7.49999 6.13334 7.49999H3.61878C3.81031 5.44557 5.44559 3.8103 7.50001 3.61876V6.13333C7.50001 6.40947 7.72387 6.63333 8.00001 6.63333C8.27615 6.63333 8.50001 6.40947 8.50001 6.13333V3.64083C10.4642 3.91257 12.005 5.50956 12.1905 7.49999H9.86668C9.59053 7.49999 9.36668 7.72385 9.36668 7.99999C9.36668 8.27614 9.59053 8.49999 9.86668 8.49999H12.1685C11.9054 10.401 10.401 11.9054 8.50001 12.1684Z" fill="black"/>
</svg>
