<svg width="16" height="16" viewBox="0 0 16 16" fill="none" xmlns="http://www.w3.org/2000/svg">
<path fill-rule="evenodd" clip-rule="evenodd" d="M2.49432 7.79973C2.49432 10.8058 4.68131 12.8551 7.13896 13.2793C7.41108 13.3263 7.5936 13.5849 7.54663 13.8571C7.49967 14.1292 7.241 14.3117 6.96888 14.2647C4.09784 13.7692 1.49432 11.3566 1.49432 7.79973C1.49432 6.28937 2.1836 5.10223 2.98927 4.19857C3.56809 3.54936 4.23041 3.02262 4.76285 2.61905L3.13123 2.61905C2.85509 2.61905 2.63123 2.39519 2.63123 2.11905C2.63123 1.8429 2.85509 1.61905 3.13123 1.61905L6.097 1.61905C6.37315 1.61905 6.597 1.8429 6.597 2.11905L6.597 5.0753C6.597 5.35144 6.37315 5.5753 6.097 5.5753C5.82086 5.5753 5.597 5.35144 5.597 5.0753L5.597 3.24318L5.59172 3.24715L5.59161 3.24723C5.02665 3.67194 4.33488 4.19198 3.73569 4.86405C3.02786 5.65797 2.49432 6.61802 2.49432 7.79973ZM13.5057 8.20024C13.5057 5.22594 11.3651 3.18868 8.93913 2.73471C8.66769 2.68391 8.48883 2.4227 8.53963 2.15127C8.59042 1.87984 8.85163 1.70098 9.12306 1.75177C11.9572 2.28213 14.5057 4.68142 14.5057 8.20024C14.5057 9.7106 13.8165 10.8977 13.0108 11.8014C12.432 12.4506 11.7696 12.9773 11.2372 13.3809L12.8689 13.3809C13.145 13.3809 13.3689 13.6048 13.3689 13.8809C13.3689 14.1571 13.145 14.3809 12.8689 14.3809L9.90308 14.3809C9.62694 14.3809 9.40308 14.1571 9.40308 13.8809L9.40308 10.9247C9.40308 10.6485 9.62694 10.4247 9.90308 10.4247C10.1792 10.4247 10.4031 10.6485 10.4031 10.9247L10.4031 12.7568L10.4083 12.7528L10.4084 12.7527C10.9734 12.328 11.6652 11.808 12.2644 11.1359C12.9722 10.342 13.5057 9.38195 13.5057 8.20024Z" fill="black"/>
</svg>
