<svg width="16" height="16" viewBox="0 0 16 16" fill="none" xmlns="http://www.w3.org/2000/svg">
<path fill-rule="evenodd" clip-rule="evenodd" d="M7.99995 11.1C5.60285 11.1 3.57971 9.88159 2.29697 8.00003C3.57971 6.11845 5.60285 4.90002 7.99995 4.90002C10.3971 4.90002 12.4202 6.11845 13.7029 8.00003C12.4202 9.88159 10.3971 11.1 7.99995 11.1ZM7.99995 3.90002C5.10781 3.90002 2.70634 5.4464 1.27595 7.73504C1.17462 7.89717 1.17462 8.1029 1.27595 8.26504C2.70634 10.5536 5.10781 12.1 7.99995 12.1C10.8921 12.1 13.2936 10.5536 14.724 8.26504C14.8253 8.1029 14.8253 7.89717 14.724 7.73504C13.2936 5.4464 10.8921 3.90002 7.99995 3.90002ZM7.99995 9.80002C8.99406 9.80002 9.79995 8.99414 9.79995 8.00002C9.79995 7.00591 8.99406 6.20002 7.99995 6.20002C7.00584 6.20002 6.19995 7.00591 6.19995 8.00002C6.19995 8.99414 7.00584 9.80002 7.99995 9.80002Z" fill="black"/>
</svg>
