<svg width="16" height="16" viewBox="0 0 16 16" fill="none" xmlns="http://www.w3.org/2000/svg">
<path fill-rule="evenodd" clip-rule="evenodd" d="M2.38562 8.00002C2.38562 5.18518 4.5794 2.39114 7.99449 2.39114C10.7482 2.39114 12.1114 4.42617 12.6939 5.51341H10.9745C10.6983 5.51341 10.4745 5.73727 10.4745 6.01341C10.4745 6.28956 10.6983 6.51341 10.9745 6.51341H13.9544C14.2305 6.51341 14.4544 6.28956 14.4544 6.01341V3.03348C14.4544 2.75733 14.2305 2.53348 13.9544 2.53348C13.6782 2.53348 13.4544 2.75733 13.4544 3.03348V4.82188C12.751 3.58579 11.1318 1.39114 7.99449 1.39114C3.95676 1.39114 1.38562 4.70598 1.38562 8.00002C1.38562 11.2941 3.95676 14.6089 7.99449 14.6089C9.92626 14.6089 11.5347 13.8445 12.6799 12.6793C13.293 12.0554 13.7719 11.3183 14.0984 10.525C14.2035 10.2697 14.0817 9.97747 13.8263 9.87238C13.5709 9.76728 13.2787 9.8891 13.1736 10.1445C12.8948 10.8219 12.4866 11.4493 11.9667 11.9783C11.002 12.9599 9.64748 13.6089 7.99449 13.6089C4.5794 13.6089 2.38562 10.8149 2.38562 8.00002Z" fill="black"/>
</svg>
