<svg width="16" height="16" viewBox="0 0 16 16" fill="none" xmlns="http://www.w3.org/2000/svg">
<path fill-rule="evenodd" clip-rule="evenodd" d="M1.03918 7.99007C1.03918 4.15134 4.15109 1.03943 7.98983 1.03943C11.8286 1.03943 14.9405 4.15134 14.9405 7.99007C14.9405 11.8288 11.8286 14.9407 7.98983 14.9407C4.15109 14.9407 1.03918 11.8288 1.03918 7.99007ZM6.20824 2.10141C3.80241 2.8283 2.01896 4.9892 1.85199 7.59001H4.29185C4.36659 5.60056 4.99956 3.62415 6.20824 2.10141ZM7.35937 1.87135C5.87776 3.30198 5.07954 5.41573 4.99235 7.59001H7.58988V1.85222C7.51265 1.85718 7.4358 1.86356 7.35937 1.87135ZM4.29184 8.39001H1.85198C2.01891 10.9909 3.80241 13.1519 6.20832 13.8788C4.99959 12.356 4.36658 10.3795 4.29184 8.39001ZM7.35945 14.1088C5.87779 12.6781 5.07954 10.5643 4.99235 8.39001H7.58988V14.1279C7.51268 14.123 7.43586 14.1166 7.35945 14.1088ZM8.38988 1.85223V7.59001H11.0667C10.9767 5.41696 10.1528 3.30271 8.62068 1.87139C8.54416 1.86359 8.46722 1.8572 8.38988 1.85223ZM8.38988 8.39001H11.0667C10.9767 10.5631 10.1528 12.6774 8.62062 14.1088C8.54411 14.1166 8.46719 14.1229 8.38988 14.1279V8.39001ZM11.7673 8.39001C11.6903 10.3768 11.0395 12.3493 9.79893 13.8703C12.1909 13.1353 13.9614 10.9809 14.1277 8.39001H11.7673ZM9.79899 2.10981C11.0395 3.63083 11.6903 5.60326 11.7673 7.59001H14.1277C13.9613 4.99915 12.1909 2.84484 9.79899 2.10981Z" fill="black"/>
</svg>
