<svg width="16" height="16" viewBox="0 0 16 16" fill="none" xmlns="http://www.w3.org/2000/svg">
<path d="M3 3H5V4H4V5H3V3Z" fill="black" fill-opacity="0.9"/>
<path d="M13 3H11V4L12 4V5H13V3Z" fill="black" fill-opacity="0.9"/>
<path d="M3 13V11H4V12H5V13H3Z" fill="black" fill-opacity="0.9"/>
<path d="M13 13H11V12H12V11H13V13Z" fill="black" fill-opacity="0.9"/>
<path d="M3 6.5H4V9.5H3V6.5Z" fill="black" fill-opacity="0.9"/>
<path d="M13 6.5H12V9.5H13V6.5Z" fill="black" fill-opacity="0.9"/>
<path d="M9.5 3V4L6.5 4V3H9.5Z" fill="black" fill-opacity="0.9"/>
<path d="M9.5 13V12H6.5V13H9.5Z" fill="black" fill-opacity="0.9"/>
</svg>
