<svg width="16" height="16" viewBox="0 0 16 16" fill="none" xmlns="http://www.w3.org/2000/svg">
<path fill-rule="evenodd" clip-rule="evenodd" d="M2.27363 1.40503C1.79398 1.40503 1.40515 1.79386 1.40515 2.27351V13.7265C1.40515 14.2062 1.79398 14.595 2.27363 14.595H13.7267C14.2063 14.595 14.5952 14.2062 14.5952 13.7265V2.27351C14.5952 1.79386 14.2063 1.40503 13.7267 1.40503H2.27363ZM2.44732 2.4472V10.5633L4.90956 8.10104C5.28264 7.72796 5.88752 7.72795 6.2606 8.10103L7.33024 9.17068L10.4257 6.07514C10.7988 5.70206 11.4037 5.70206 11.7768 6.07513L13.553 7.85132V2.4472H2.44732ZM13.553 9.32518L11.1013 6.87347L8.06717 9.90761L11.7124 13.5529H13.553V9.32518ZM2.44732 13.5529V12.0372L5.58508 8.89937L10.2386 13.5529H2.44732Z" fill="black"/>
</svg>
