<svg width="16" height="16" viewBox="0 0 16 16" fill="none" xmlns="http://www.w3.org/2000/svg">
<g opacity="0.5">
<path d="M10.0028 5.80114C9.95169 5.36932 9.74431 5.03409 9.38067 4.79545C9.01703 4.55682 8.57101 4.4375 8.0426 4.4375C7.65624 4.4375 7.31817 4.5 7.0284 4.625C6.74147 4.75 6.51703 4.92188 6.3551 5.14062C6.19601 5.35938 6.11647 5.60795 6.11647 5.88636C6.11647 6.11932 6.17186 6.3196 6.28266 6.48722C6.3963 6.65199 6.54118 6.78977 6.71732 6.90057C6.89345 7.00852 7.07811 7.09801 7.2713 7.16903C7.46448 7.23722 7.64203 7.29261 7.80397 7.33523L8.69033 7.57386C8.9176 7.63352 9.17044 7.71591 9.44885 7.82102C9.7301 7.92614 9.99857 8.0696 10.2543 8.25142C10.5128 8.4304 10.7258 8.66051 10.8935 8.94176C11.0611 9.22301 11.1449 9.56818 11.1449 9.97727C11.1449 10.4489 11.0213 10.875 10.7741 11.2557C10.5298 11.6364 10.1719 11.9389 9.70027 12.1634C9.23152 12.3878 8.66192 12.5 7.99147 12.5C7.36647 12.5 6.82527 12.3991 6.36789 12.1974C5.91334 11.9957 5.55539 11.7145 5.29402 11.3537C5.0355 10.9929 4.88919 10.5739 4.8551 10.0966H5.94601C5.97442 10.4261 6.08522 10.6989 6.2784 10.9148C6.47442 11.1278 6.72158 11.2869 7.01988 11.392C7.32101 11.4943 7.64488 11.5455 7.99147 11.5455C8.39488 11.5455 8.75709 11.4801 9.07811 11.3494C9.39914 11.2159 9.6534 11.0313 9.8409 10.7955C10.0284 10.5568 10.1221 10.2784 10.1221 9.96023C10.1221 9.67045 10.0412 9.43466 9.87925 9.25284C9.71732 9.07102 9.50425 8.9233 9.24005 8.80966C8.97584 8.69602 8.69033 8.59659 8.38351 8.51136L7.30965 8.20455C6.62783 8.00852 6.08806 7.72869 5.69033 7.36506C5.2926 7.00142 5.09374 6.52557 5.09374 5.9375C5.09374 5.44886 5.22584 5.02273 5.49005 4.65909C5.75709 4.29261 6.11505 4.00852 6.56391 3.80682C7.01561 3.60227 7.51988 3.5 8.07669 3.5C8.63919 3.5 9.13919 3.60085 9.57669 3.80256C10.0142 4.00142 10.3608 4.27415 10.6165 4.62074C10.875 4.96733 11.0114 5.3608 11.0256 5.80114H10.0028Z" fill="black"/>
</g>
</svg>
