<svg width="16" height="16" viewBox="0 0 16 16" fill="none" xmlns="http://www.w3.org/2000/svg">
<g opacity="0.5">
<path d="M9.42331 3.57666H10.4801V9.8153C10.4801 10.3721 10.3779 10.8451 10.1733 11.2343C9.96876 11.6235 9.68041 11.919 9.30825 12.1207C8.93609 12.3224 8.49717 12.4233 7.99149 12.4233C7.51422 12.4233 7.0895 12.3366 6.71734 12.1633C6.34518 11.9872 6.05257 11.7372 5.8395 11.4133C5.62643 11.0894 5.5199 10.7045 5.5199 10.2585H6.55967C6.55967 10.5056 6.62075 10.7215 6.74291 10.9062C6.86791 11.088 7.03836 11.2301 7.25427 11.3323C7.47018 11.4346 7.71592 11.4858 7.99149 11.4858C8.29547 11.4858 8.55399 11.4218 8.76706 11.294C8.98012 11.1661 9.14206 10.9786 9.25285 10.7315C9.36649 10.4815 9.42331 10.1761 9.42331 9.8153V3.57666Z" fill="black"/>
</g>
</svg>
