<svg width="16" height="16" viewBox="0 0 16 16" fill="none" xmlns="http://www.w3.org/2000/svg">
<g opacity="0.5">
<path d="M10.3352 3.55969H11.392V9.3381C11.392 9.93469 11.2514 10.4674 10.9701 10.9361C10.6917 11.402 10.2983 11.7699 9.78973 12.0398C9.28121 12.3069 8.68462 12.4404 7.99996 12.4404C7.3153 12.4404 6.71871 12.3069 6.21018 12.0398C5.70166 11.7699 5.30677 11.402 5.02552 10.9361C4.74711 10.4674 4.60791 9.93469 4.60791 9.3381V3.55969H5.66473V9.25287C5.66473 9.67901 5.75848 10.0583 5.94598 10.3907C6.13348 10.7202 6.40052 10.9801 6.74711 11.1705C7.09655 11.358 7.51416 11.4517 7.99996 11.4517C8.48575 11.4517 8.90337 11.358 9.2528 11.1705C9.60223 10.9801 9.86927 10.7202 10.0539 10.3907C10.2414 10.0583 10.3352 9.67901 10.3352 9.25287V3.55969Z" fill="black"/>
</g>
</svg>
