<svg width="16" height="16" viewBox="0 0 16 16" fill="none" xmlns="http://www.w3.org/2000/svg">
<g opacity="0.5">
<path d="M8.00851 12.483C7.44601 12.483 6.94459 12.3864 6.50425 12.1932C6.06675 12 5.71874 11.7316 5.46022 11.3878C5.20453 11.0412 5.06533 10.6392 5.0426 10.1819H6.11647C6.13919 10.4631 6.23578 10.706 6.40624 10.9106C6.57669 11.1123 6.7997 11.2685 7.07527 11.3793C7.35084 11.4901 7.65624 11.5455 7.99147 11.5455C8.36647 11.5455 8.69885 11.4802 8.98863 11.3495C9.2784 11.2188 9.50567 11.037 9.67044 10.804C9.83522 10.5711 9.9176 10.3012 9.9176 9.99436C9.9176 9.67334 9.83806 9.39067 9.67897 9.14635C9.51988 8.89919 9.28692 8.70601 8.9801 8.56681C8.67328 8.4276 8.29828 8.358 7.8551 8.358H7.15624V7.4205H7.8551C8.20169 7.4205 8.50567 7.358 8.76703 7.233C9.03124 7.108 9.2372 6.93186 9.38493 6.70459C9.5355 6.47732 9.61078 6.21027 9.61078 5.90345C9.61078 5.608 9.54544 5.3509 9.41476 5.13215C9.28408 4.9134 9.09942 4.74294 8.86078 4.62078C8.62499 4.49862 8.34658 4.43754 8.02556 4.43754C7.72442 4.43754 7.44033 4.49294 7.17328 4.60374C6.90908 4.71169 6.69317 4.86936 6.52556 5.07675C6.35794 5.28129 6.26703 5.52845 6.25283 5.81823H5.2301C5.24715 5.36084 5.38493 4.96027 5.64345 4.61652C5.90198 4.26993 6.24005 4.00004 6.65766 3.80686C7.07811 3.61368 7.53976 3.51709 8.0426 3.51709C8.58238 3.51709 9.04544 3.62646 9.43181 3.84521C9.81817 4.06112 10.115 4.34663 10.3224 4.70175C10.5298 5.05686 10.6335 5.44039 10.6335 5.85232C10.6335 6.34379 10.5043 6.76283 10.2457 7.10942C9.99005 7.45601 9.64204 7.69607 9.20169 7.82959V7.89777C9.75283 7.98868 10.1832 8.22306 10.4929 8.6009C10.8025 8.9759 10.9574 9.44039 10.9574 9.99436C10.9574 10.4688 10.8281 10.8949 10.5696 11.2728C10.3139 11.6478 9.96448 11.9432 9.5213 12.1591C9.07811 12.375 8.57385 12.483 8.00851 12.483Z" fill="black"/>
</g>
</svg>
