<svg width="16" height="16" viewBox="0 0 16 16" fill="none" xmlns="http://www.w3.org/2000/svg">
<g opacity="0.5">
<path d="M7.91476 12.4233C7.41476 12.4233 6.96447 12.3238 6.5639 12.125C6.16334 11.9261 5.84231 11.6534 5.60084 11.3068C5.35936 10.9602 5.22726 10.5653 5.20453 10.1221H6.22726C6.26703 10.517 6.44601 10.8437 6.76419 11.1022C7.08521 11.3579 7.46873 11.4858 7.91476 11.4858C8.27271 11.4858 8.59089 11.4019 8.8693 11.2343C9.15055 11.0667 9.37072 10.8366 9.52981 10.544C9.69174 10.2485 9.77271 9.91473 9.77271 9.54257C9.77271 9.16189 9.6889 8.8224 9.52129 8.5241C9.35652 8.22297 9.12925 7.98575 8.83947 7.81246C8.5497 7.63916 8.21873 7.55109 7.84657 7.54825C7.57953 7.54541 7.30538 7.5866 7.02413 7.67183C6.74288 7.75422 6.51135 7.86075 6.32953 7.99143L5.34089 7.87212L5.8693 3.57666H10.4034V4.51416H6.75567L6.44885 7.08802H6.49998C6.67896 6.94598 6.90339 6.82808 7.17328 6.73433C7.44317 6.64058 7.72442 6.59371 8.01703 6.59371C8.55112 6.59371 9.02697 6.72155 9.44459 6.97723C9.86504 7.23007 10.1946 7.57666 10.4332 8.017C10.6747 8.45734 10.7954 8.96018 10.7954 9.52552C10.7954 10.0823 10.6704 10.5795 10.4204 11.017C10.1733 11.4517 9.83237 11.7954 9.39771 12.0483C8.96305 12.2983 8.46873 12.4233 7.91476 12.4233Z" fill="black"/>
</g>
</svg>
