<svg width="16" height="16" viewBox="0 0 16 16" fill="none" xmlns="http://www.w3.org/2000/svg">
<g opacity="0.5">
<path d="M4.87219 12.3636V3.63635H7.82106C8.50287 3.63635 9.06253 3.75283 9.50003 3.98578C9.93753 4.2159 10.2614 4.53266 10.4716 4.93607C10.6819 5.33948 10.787 5.79828 10.787 6.31249C10.787 6.82669 10.6819 7.28266 10.4716 7.68039C10.2614 8.07811 9.93895 8.39061 9.50429 8.61789C9.06964 8.84232 8.51424 8.95453 7.8381 8.95453H5.45174V7.99999H7.80401C8.26992 7.99999 8.64492 7.93181 8.92901 7.79544C9.21594 7.65908 9.42333 7.4659 9.55117 7.2159C9.68185 6.96306 9.74719 6.66192 9.74719 6.31249C9.74719 5.96306 9.68185 5.65766 9.55117 5.3963C9.42049 5.13493 9.21168 4.93323 8.92475 4.79118C8.63782 4.6463 8.25856 4.57385 7.78697 4.57385H5.92901V12.3636H4.87219ZM8.98015 8.44317L11.1279 12.3636H9.9006L7.78697 8.44317H8.98015Z" fill="black"/>
</g>
</svg>
