<svg width="16" height="16" viewBox="0 0 16 16" fill="none" xmlns="http://www.w3.org/2000/svg">
<g opacity="0.5">
<path d="M11.8523 8.00004C11.8523 8.9205 11.6861 9.71595 11.3537 10.3864C11.0213 11.0569 10.5653 11.5739 9.98577 11.9375C9.40623 12.3012 8.7443 12.483 7.99998 12.483C7.25566 12.483 6.59373 12.3012 6.01418 11.9375C5.43464 11.5739 4.97867 11.0569 4.64628 10.3864C4.3139 9.71595 4.14771 8.9205 4.14771 8.00004C4.14771 7.07959 4.3139 6.28414 4.64628 5.61368C4.97867 4.94323 5.43464 4.42618 6.01418 4.06254C6.59373 3.69891 7.25566 3.51709 7.99998 3.51709C8.7443 3.51709 9.40623 3.69891 9.98577 4.06254C10.5653 4.42618 11.0213 4.94323 11.3537 5.61368C11.6861 6.28414 11.8523 7.07959 11.8523 8.00004ZM10.8295 8.00004C10.8295 7.24436 10.7031 6.60658 10.4503 6.08669C10.2003 5.56681 9.86077 5.17334 9.4318 4.90629C9.00566 4.63925 8.52839 4.50573 7.99998 4.50573C7.47157 4.50573 6.99288 4.63925 6.5639 4.90629C6.13776 5.17334 5.79827 5.56681 5.54543 6.08669C5.29543 6.60658 5.17043 7.24436 5.17043 8.00004C5.17043 8.75573 5.29543 9.39351 5.54543 9.9134C5.79827 10.4333 6.13776 10.8267 6.5639 11.0938C6.99288 11.3608 7.47157 11.4944 7.99998 11.4944C8.52839 11.4944 9.00566 11.3608 9.4318 11.0938C9.86077 10.8267 10.2003 10.4333 10.4503 9.9134C10.7031 9.39351 10.8295 8.75573 10.8295 8.00004Z" fill="black"/>
</g>
</svg>
