<svg width="16" height="16" viewBox="0 0 16 16" fill="none" xmlns="http://www.w3.org/2000/svg">
<g opacity="0.5">
<path d="M5.24713 12.4233V11.6562L8.12781 8.5028C8.46588 8.13348 8.74429 7.81246 8.96304 7.53973C9.18179 7.26416 9.34372 7.00564 9.44884 6.76416C9.55679 6.51984 9.61077 6.26416 9.61077 5.99711C9.61077 5.6903 9.5369 5.42467 9.38918 5.20024C9.24429 4.97581 9.04543 4.80251 8.79259 4.68035C8.53975 4.55819 8.25565 4.49711 7.94031 4.49711C7.60509 4.49711 7.31247 4.56672 7.06247 4.70592C6.81531 4.84228 6.62355 5.03405 6.48719 5.28121C6.35367 5.52836 6.2869 5.81814 6.2869 6.15052H5.28122C5.28122 5.63916 5.39912 5.1903 5.63492 4.80393C5.87071 4.41757 6.19173 4.11643 6.59798 3.90052C7.00707 3.68461 7.46588 3.57666 7.9744 3.57666C8.48577 3.57666 8.93889 3.68461 9.33378 3.90052C9.72867 4.11643 10.0383 4.40763 10.2628 4.7741C10.4872 5.14058 10.5994 5.54825 10.5994 5.99711C10.5994 6.31814 10.5412 6.63206 10.4247 6.93888C10.3111 7.24285 10.1122 7.58234 9.8281 7.95734C9.54685 8.3295 9.15622 8.78405 8.65622 9.32098L6.69599 11.4176V11.4858H10.7528V12.4233H5.24713Z" fill="black"/>
</g>
</svg>
