<svg width="16" height="16" viewBox="0 0 16 16" fill="none" xmlns="http://www.w3.org/2000/svg">
<g opacity="0.5">
<path d="M8.00005 12.483C7.41482 12.483 6.89777 12.3793 6.44891 12.1719C6.00289 11.9617 5.65488 11.6733 5.40488 11.3069C5.15488 10.9375 5.0313 10.5171 5.03414 10.0455C5.0313 9.67618 5.10374 9.33527 5.25147 9.02277C5.39919 8.70743 5.6009 8.44465 5.85658 8.23442C6.1151 8.02135 6.40346 7.88641 6.72164 7.82959V7.77845C6.30402 7.6705 5.97164 7.43612 5.72448 7.07533C5.47732 6.71169 5.35516 6.29834 5.358 5.83527C5.35516 5.39209 5.46738 4.99578 5.69465 4.64635C5.92192 4.29692 6.23442 4.02135 6.63215 3.81965C7.03272 3.61794 7.48868 3.51709 8.00005 3.51709C8.50573 3.51709 8.95743 3.61794 9.35516 3.81965C9.75289 4.02135 10.0654 4.29692 10.2927 4.64635C10.5228 4.99578 10.6393 5.39209 10.6421 5.83527C10.6393 6.29834 10.5128 6.71169 10.2628 7.07533C10.0157 7.43612 9.68755 7.6705 9.27846 7.77845V7.82959C9.5938 7.88641 9.87789 8.02135 10.1307 8.23442C10.3836 8.44465 10.5853 8.70743 10.7358 9.02277C10.8864 9.33527 10.9631 9.67618 10.966 10.0455C10.9631 10.5171 10.8353 10.9375 10.5824 11.3069C10.3324 11.6733 9.98442 11.9617 9.5384 12.1719C9.09522 12.3793 8.58243 12.483 8.00005 12.483ZM8.00005 11.5455C8.39493 11.5455 8.73584 11.4816 9.02277 11.3537C9.30971 11.2259 9.5313 11.0455 9.68755 10.8125C9.8438 10.5796 9.92334 10.3069 9.92618 9.99436C9.92334 9.66482 9.83811 9.37362 9.6705 9.12078C9.50289 8.86794 9.2742 8.66908 8.98442 8.52419C8.69749 8.37931 8.36937 8.30686 8.00005 8.30686C7.62789 8.30686 7.2955 8.37931 7.00289 8.52419C6.71312 8.66908 6.48442 8.86794 6.31681 9.12078C6.15204 9.37362 6.07107 9.66482 6.07391 9.99436C6.07107 10.3069 6.14635 10.5796 6.29976 10.8125C6.45601 11.0455 6.67902 11.2259 6.9688 11.3537C7.25857 11.4816 7.60232 11.5455 8.00005 11.5455ZM8.00005 7.40345C8.31255 7.40345 8.58954 7.34095 8.83101 7.21595C9.07533 7.09095 9.26709 6.91624 9.4063 6.69181C9.5455 6.46737 9.61652 6.20459 9.61937 5.90345C9.61652 5.608 9.54692 5.3509 9.41056 5.13215C9.27419 4.91056 9.08527 4.7401 8.8438 4.62078C8.60232 4.49862 8.32107 4.43754 8.00005 4.43754C7.67334 4.43754 7.38783 4.49862 7.14351 4.62078C6.89919 4.7401 6.71027 4.91056 6.57675 5.13215C6.44323 5.3509 6.37789 5.608 6.38073 5.90345C6.37789 6.20459 6.44465 6.46737 6.58101 6.69181C6.72022 6.91624 6.91198 7.09095 7.1563 7.21595C7.40062 7.34095 7.68187 7.40345 8.00005 7.40345Z" fill="black"/>
</g>
</svg>
