<svg width="16" height="16" viewBox="0 0 16 16" fill="none" xmlns="http://www.w3.org/2000/svg">
<g opacity="0.5">
<path d="M8.0596 12.4829C7.70165 12.4772 7.34369 12.409 6.98574 12.2783C6.62779 12.1476 6.30108 11.9275 6.00563 11.6178C5.71017 11.3053 5.47296 10.8834 5.29398 10.3522C5.115 9.8181 5.02551 9.14765 5.02551 8.34083C5.02551 7.5681 5.09796 6.88344 5.24284 6.28685C5.38773 5.68742 5.59796 5.18316 5.87352 4.77407C6.14909 4.36214 6.48148 4.04964 6.87068 3.83657C7.26273 3.6235 7.70449 3.51697 8.19597 3.51697C8.6846 3.51697 9.11926 3.61498 9.49994 3.811C9.88347 4.00418 10.196 4.27407 10.4374 4.62066C10.6789 4.96725 10.8352 5.3664 10.9062 5.8181H9.86642C9.76983 5.42606 9.58233 5.10077 9.30392 4.84225C9.02551 4.58373 8.65619 4.45447 8.19597 4.45447C7.51983 4.45447 6.98716 4.7485 6.59796 5.33657C6.21159 5.92464 6.01699 6.74992 6.01415 7.81242H6.08233C6.24142 7.57095 6.43034 7.36498 6.64909 7.19452C6.87068 7.02123 7.115 6.88771 7.38205 6.79396C7.64909 6.70021 7.93176 6.65333 8.23006 6.65333C8.73006 6.65333 9.18744 6.77833 9.60222 7.02833C10.017 7.27549 10.3494 7.61782 10.5994 8.05532C10.8494 8.48998 10.9744 8.98856 10.9744 9.55106C10.9744 10.0908 10.8536 10.5851 10.6122 11.034C10.3707 11.48 10.0312 11.8351 9.59369 12.0994C9.15904 12.3607 8.64767 12.4886 8.0596 12.4829ZM8.0596 11.5454C8.41756 11.5454 8.73858 11.4559 9.02267 11.2769C9.3096 11.0979 9.53546 10.8579 9.70023 10.5567C9.86784 10.2556 9.95165 9.92038 9.95165 9.55106C9.95165 9.19026 9.87068 8.86214 9.70875 8.56668C9.54966 8.26839 9.32949 8.03117 9.04824 7.85504C8.76983 7.6789 8.45165 7.59083 8.09369 7.59083C7.82381 7.59083 7.57239 7.64481 7.33943 7.75276C7.10648 7.85788 6.90193 8.00276 6.7258 8.18742C6.5525 8.37208 6.41614 8.58373 6.31671 8.82237C6.21727 9.05816 6.16756 9.30674 6.16756 9.5681C6.16756 9.91469 6.24852 10.2386 6.41046 10.5397C6.57523 10.8408 6.79966 11.0837 7.08375 11.2684C7.37068 11.453 7.69597 11.5454 8.0596 11.5454Z" fill="black"/>
</g>
</svg>
