<svg width="16" height="16" viewBox="0 0 16 16" fill="none" xmlns="http://www.w3.org/2000/svg">
<path fill-rule="evenodd" clip-rule="evenodd" d="M10.5 6.6001H11C11.5523 6.6001 12 7.0478 12 7.6001V12.0001C12 12.5524 11.5523 13.0001 11 13.0001H5C4.44772 13.0001 4 12.5524 4 12.0001V7.6001C4 7.0478 4.44772 6.6001 5 6.6001H5.5V4.5C5.5 4.16733 5.56365 3.84823 5.69096 3.54269C5.81872 3.23608 6.00053 2.96732 6.2364 2.73643C6.46733 2.50054 6.7361 2.31872 7.0427 2.19096C7.34823 2.06365 7.66733 2 8 2C8.33267 2 8.65177 2.06365 8.9573 2.19096C9.2639 2.31872 9.53267 2.50054 9.7636 2.73642C9.99947 2.96731 10.1813 3.23607 10.309 3.54269C10.4363 3.84823 10.5 4.16733 10.5 4.5V6.6001ZM6.5 6.6001V4.5C6.5 4.08367 6.64627 3.73308 6.9388 3.44824L6.9436 3.44359L6.9482 3.43881C7.23307 3.14627 7.58367 3 8 3C8.41633 3 8.76693 3.14627 9.0518 3.43881L9.0564 3.44359L9.0612 3.44824C9.35373 3.73308 9.5 4.08367 9.5 4.5V6.6001H6.5Z" fill="black" fill-opacity="0.9"/>
<path d="M5 7.10059H11C11.2762 7.10059 11.5 7.32443 11.5 7.60059V12C11.5 12.2762 11.2762 12.5 11 12.5H5C4.72386 12.5 4.5 12.2762 4.5 12V7.60059C4.5 7.32443 4.72386 7.10059 5 7.10059Z" stroke="black" stroke-opacity="0.9"/>
</svg>
