<svg width="28" height="28" viewBox="0 0 28 28" fill="none" xmlns="http://www.w3.org/2000/svg">
<path fill-rule="evenodd" clip-rule="evenodd" d="M10.5 6.80422C11.5572 6.28905 12.7449 6 14 6C18.4183 6 22 9.58172 22 14C22 18.4183 18.4183 22 14 22C9.58172 22 6 18.4183 6 14C6 14 6 14 6 14C6 10.8369 7.8358 8.10251 10.5 6.80422C10.5 6.80422 10.5 6.80421 10.5 6.80422ZM20.8 14C20.8 17.7555 17.7555 20.8 14 20.8C13.2179 20.8 12.4667 20.668 11.7673 20.425C13.729 18.967 15 16.6319 15 14C15 11.368 13.729 9.03296 11.7674 7.575C12.4667 7.33203 13.2179 7.2 14 7.2C17.7555 7.2 20.8 10.2445 20.8 14Z" fill="black"/>
</svg>
