<svg width="16" height="16" viewBox="0 0 16 16" fill="none" xmlns="http://www.w3.org/2000/svg">
<path fill-rule="evenodd" clip-rule="evenodd" d="M2.97058 8.00263C2.97058 9.85232 4.05599 11.458 5.61667 12.203C7.18377 11.458 8.26918 9.85232 8.26918 8.00263C8.26918 6.15294 7.18377 4.55373 5.62309 3.80229C4.05599 4.55373 2.97058 6.15294 2.97058 8.00263Z" fill="black" fill-opacity="0.9"/>
<path fill-rule="evenodd" clip-rule="evenodd" d="M2.97058 8.00263C2.97058 9.85232 4.05599 11.458 5.61667 12.203C7.18377 11.458 8.26918 9.85232 8.26918 8.00263C8.26918 6.15294 7.18377 4.55373 5.62309 3.80229C4.05599 4.55373 2.97058 6.15294 2.97058 8.00263Z" stroke="black" stroke-opacity="0.9"/>
<path fill-rule="evenodd" clip-rule="evenodd" d="M12.1373 8.00072C12.1373 10.532 10.0853 12.5841 7.55394 12.5841C5.02262 12.5841 2.97058 10.532 2.97058 8.00072C2.97058 5.4694 5.02262 3.41736 7.55394 3.41736C10.0853 3.41736 12.1373 5.4694 12.1373 8.00072Z" stroke="black" stroke-opacity="0.9"/>
</svg>
