<svg width="28" height="28" viewBox="0 0 28 28" fill="none" xmlns="http://www.w3.org/2000/svg">
<path d="M6.6 9.2C6.54477 9.2 6.5 9.15523 6.5 9.1L6.5 8.1C6.5 8.04477 6.54477 8 6.6 8L21.4 8C21.4552 8 21.5 8.04477 21.5 8.1V9.1C21.5 9.15523 21.4552 9.2 21.4 9.2L6.6 9.2Z" fill="black"/>
<path d="M6.6 14.912C6.54477 14.912 6.5 14.8673 6.5 14.812L6.5 13.812C6.5 13.7568 6.54477 13.712 6.6 13.712L21.4 13.712C21.4552 13.712 21.5 13.7568 21.5 13.812V14.812C21.5 14.8673 21.4552 14.912 21.4 14.912L6.6 14.912Z" fill="black"/>
<path d="M6.6 20.6022C6.54477 20.6022 6.5 20.5575 6.5 20.5022L6.5 19.5022C6.5 19.447 6.54477 19.4022 6.6 19.4022L21.4 19.4022C21.4552 19.4022 21.5 19.447 21.5 19.5022V20.5022C21.5 20.5575 21.4552 20.6022 21.4 20.6022L6.6 20.6022Z" fill="black"/>
</svg>
