<svg width="28" height="28" viewBox="0 0 28 28" fill="none" xmlns="http://www.w3.org/2000/svg">
<path fill-rule="evenodd" clip-rule="evenodd" d="M18.2949 13.6388C20.5049 13.6388 22.2949 15.4288 22.2949 17.6388C22.2949 19.8488 20.5049 21.6388 18.2949 21.6388C16.0849 21.6388 14.2949 19.8488 14.2949 17.6388C14.2949 15.4288 16.0849 13.6388 18.2949 13.6388ZM17.9116 19.2555C17.8116 19.3555 17.7616 19.4755 17.7616 19.6355C17.7616 19.7955 17.8116 19.9155 17.9116 20.0155C18.0116 20.1155 18.1416 20.1755 18.2916 20.1755C18.4416 20.1755 18.5716 20.1255 18.6716 20.0255C18.7716 19.9255 18.8316 19.7955 18.8316 19.6355C18.8316 19.4755 18.7716 19.3555 18.6816 19.2555C18.5716 19.1555 18.4416 19.1055 18.2916 19.1055C18.1416 19.1055 18.0116 19.1555 17.9116 19.2555ZM17.6449 15.0388L17.8949 18.6388H18.6949L18.9449 15.0388H17.6449Z" fill="#ECB40D"/>
<path fill-rule="evenodd" clip-rule="evenodd" d="M5.70508 20.6388L11.0851 6.63879H13.7063L16.1001 12.8681C15.302 13.2358 14.6121 13.7978 14.0908 14.4936L12.4207 9.88174L10.5049 15.1718H13.6594C13.2683 15.9053 13.0462 16.7426 13.0451 17.6318H9.61406L8.52508 20.6388H5.70508Z" fill="black"/>
</svg>
