<svg width="16" height="16" viewBox="0 0 16 16" fill="none" xmlns="http://www.w3.org/2000/svg">
<path fill-rule="evenodd" clip-rule="evenodd" d="M6.81291 2.31517C6.81291 1.46963 7.49835 0.78418 8.3439 0.78418C9.18944 0.78418 9.87489 1.46963 9.87489 2.31517V3.06568C10.0741 2.97078 10.2971 2.91767 10.5325 2.91767C11.378 2.91767 12.0634 3.60311 12.0634 4.44866V4.78276C12.2624 4.68811 12.485 4.63513 12.7199 4.63513C13.5648 4.63513 14.2498 5.32006 14.2498 6.16495V9.96741C14.2498 12.866 11.9 15.2157 9.00146 15.2157H8.63837C7.34918 15.2157 6.12575 14.6466 5.29525 13.6605L2.02095 9.77298C1.49303 8.94774 1.76056 7.84834 2.60902 7.35848C3.27373 6.97471 4.08826 7.08552 4.6265 7.57673V3.98055C4.6265 3.13565 5.31142 2.45073 6.15632 2.45073C6.39132 2.45073 6.61395 2.50372 6.81291 2.5984V2.31517ZM5.50068 8.87584C5.50068 9.01024 5.35572 9.09456 5.23921 9.02754C4.88179 8.82193 4.27595 8.47279 4.19925 8.42452C4.11165 8.3694 3.44986 7.88243 3.04611 8.11554C2.62922 8.35623 2.49769 8.89626 2.75721 9.3017L2.75772 9.30249C2.75772 9.30249 4.03704 11.0179 4.97578 12.008C5.37746 12.4316 5.79102 12.8802 6.17968 13.2442C6.40013 13.4507 6.612 13.6323 6.79768 13.7834C7.21881 14.1261 7.74012 14.3093 8.2803 14.3641C11.1149 14.6512 13.5555 12.3802 13.4731 9.53231L13.3756 6.16495C13.3756 5.80285 13.082 5.50931 12.7199 5.50931C12.3578 5.50931 12.0643 5.80285 12.0643 6.16495V8.842C12.0643 8.93856 11.986 9.01683 11.8895 9.01683H11.3649C11.2684 9.01683 11.1901 8.93858 11.1901 8.84203L11.1893 4.44866C11.1893 4.08591 10.8952 3.79185 10.5325 3.79185C10.1697 3.79185 9.87565 4.08591 9.87565 4.44866V8.14073C9.87565 8.23729 9.79737 8.31557 9.70081 8.31557H9.17628C9.07973 8.31557 9.00146 8.2373 9.00144 8.14075L9.00071 2.31517C9.00071 1.95242 8.70664 1.65836 8.3439 1.65836C7.98115 1.65836 7.68709 1.95242 7.68709 2.31517V7.42548H7.68614V7.67379C7.68614 7.77035 7.60786 7.84863 7.5113 7.84863H6.98679C6.89023 7.84863 6.81196 7.77035 6.81196 7.67379V3.98055C6.81196 3.61845 6.51842 3.32491 6.15632 3.32491C5.79422 3.32491 5.50068 3.61845 5.50068 3.98055V8.87584Z" fill="black"/>
</svg>
