<svg width="28" height="28" viewBox="0 0 28 28" fill="none" xmlns="http://www.w3.org/2000/svg">
<path fill-rule="evenodd" clip-rule="evenodd" d="M10.1559 21.1673L6.47521 21.5953C6.34707 21.6102 6.23855 21.5017 6.25345 21.3735L6.68143 17.6929C6.68664 17.6481 6.70681 17.6064 6.73867 17.5745L17.8915 6.42168C18.2821 6.03115 18.9152 6.03115 19.3057 6.42168L21.4271 8.543C21.8176 8.93352 21.8176 9.56669 21.4271 9.95721L10.2742 21.1101C10.2423 21.1419 10.2006 21.1621 10.1559 21.1673ZM16.6187 9.25018L18.5986 7.27021L20.5785 9.2501L18.5986 11.2301L16.6187 9.25018ZM15.8408 10.028L7.7379 18.1309L7.47739 20.3713L9.7178 20.1108L17.8207 12.0079L15.8408 10.028Z" fill="black"/>
</svg>
