<svg width="16" height="16" viewBox="0 0 16 16" fill="none" xmlns="http://www.w3.org/2000/svg">
<path fill-rule="evenodd" clip-rule="evenodd" d="M4.66484 14.3611L1.45957 14.7338C1.34798 14.7468 1.25348 14.6523 1.26645 14.5407L1.63916 11.3354C1.64369 11.2964 1.66126 11.2601 1.68901 11.2324L11.4013 1.52008C11.7414 1.17999 12.2928 1.17999 12.6329 1.52008L14.4802 3.3674C14.8203 3.70748 14.8203 4.25887 14.4802 4.59895L4.76788 14.3113C4.74013 14.339 4.70382 14.3566 4.66484 14.3611ZM10.2929 3.98324L12.0171 2.25901L13.7413 3.98317L12.017 5.70741L10.2929 3.98324ZM9.61551 4.6606L2.55917 11.7169L2.33231 13.668L4.28334 13.4411L11.3397 6.38476L9.61551 4.6606Z" fill="black"/>
</svg>
