<svg width="28" height="28" viewBox="0 0 28 28" fill="none" xmlns="http://www.w3.org/2000/svg">
<path d="M8 12.5C8 12.7761 8.22386 13 8.5 13L19.5 13C19.7761 13 20 12.7761 20 12.5V10C20 9.72386 19.7761 9.5 19.5 9.5L8.5 9.5C8.22386 9.5 8 9.72386 8 10L8 12.5Z" fill="black"/>
<path fill-rule="evenodd" clip-rule="evenodd" d="M5.5 8C5.5 7.44772 5.94772 7 6.5 7H21.5C22.0523 7 22.5 7.44772 22.5 8V20C22.5 20.5523 22.0523 21 21.5 21H6.5C5.94772 21 5.5 20.5523 5.5 20V8ZM6.7 19.8V8.2H21.3V19.8H6.7Z" fill="black"/>
</svg>
