<svg width="16" height="16" viewBox="0 0 16 16" fill="none" xmlns="http://www.w3.org/2000/svg">
<path fill-rule="evenodd" clip-rule="evenodd" d="M1.44263 5.23233C1.44263 3.14129 3.13171 1.44263 5.21968 1.44263C6.67485 1.44263 7.31793 2.05156 8 3.13113C8.68208 2.05156 9.32516 1.44263 10.7803 1.44263C12.8683 1.44263 14.5574 3.14129 14.5574 5.23233C14.5574 7.18976 13.4414 9.07207 12.1608 10.6339C10.9479 12.1132 9.51672 13.3875 8.53973 14.2575C8.4762 14.314 8.41459 14.3689 8.35508 14.422C8.15278 14.6025 7.84723 14.6025 7.64493 14.422C7.58542 14.3689 7.52381 14.314 7.46028 14.2575C6.48329 13.3875 5.05215 12.1132 3.83919 10.6339C2.55862 9.07207 1.44263 7.18976 1.44263 5.23233Z" fill="black"/>
</svg>
