<svg width="16" height="16" viewBox="0 0 16 16" fill="none" xmlns="http://www.w3.org/2000/svg">
<path fill-rule="evenodd" clip-rule="evenodd" d="M9.39063 2.131C9.5859 1.93574 9.90248 1.93574 10.0977 2.131L11.2291 3.26238L12.7376 4.77087L13.869 5.90224C14.0642 6.0975 14.0642 6.41409 13.869 6.60935C13.6737 6.80461 13.3571 6.80461 13.1619 6.60935L12.4381 5.88563L8.51876 11.1115L9.72062 12.3133C9.91588 12.5086 9.91588 12.8252 9.72062 13.0204C9.52535 13.2157 9.20877 13.2157 9.01351 13.0204L7.50502 11.512L6.3493 10.3562C6.34202 10.3645 6.33442 10.3727 6.3265 10.3806L2.83811 13.869C2.64285 14.0642 2.32627 14.0642 2.131 13.869C1.93574 13.6737 1.93574 13.3571 2.131 13.1619L5.6194 9.67348C5.62732 9.66556 5.63544 9.65796 5.64374 9.65068L4.48803 8.49497L2.97953 6.98647C2.78427 6.79121 2.78427 6.47463 2.97953 6.27936C3.1748 6.0841 3.49138 6.0841 3.68664 6.27936L4.8885 7.48122L10.1144 3.56183L9.39063 2.83811C9.19537 2.64285 9.19537 2.32627 9.39063 2.131Z" fill="black"/>
</svg>
