<svg width="16" height="16" viewBox="0 0 16 16" fill="none" xmlns="http://www.w3.org/2000/svg">
<path fill-rule="evenodd" clip-rule="evenodd" d="M5.21967 2.47595C3.70619 2.47595 2.47595 3.70818 2.47595 5.23232C2.47595 6.81902 3.39646 8.46417 4.63826 9.97868C5.73785 11.3198 7.0317 12.4909 8 13.3543C8.9683 12.4909 10.2621 11.3198 11.3617 9.97868C12.6035 8.46417 13.524 6.81902 13.524 5.23232C13.524 3.70818 12.2938 2.47595 10.7803 2.47595C9.8793 2.47595 9.38838 2.79 9.08404 3.13353C8.80155 3.45239 8.65791 3.81314 8.52866 4.13774C8.50625 4.19401 8.48428 4.24919 8.46209 4.30288C8.3848 4.48992 8.20238 4.61191 8 4.61191C7.79762 4.61191 7.6152 4.48992 7.53791 4.30289C7.51571 4.24919 7.49373 4.19399 7.47132 4.13771C7.34207 3.81311 7.19843 3.45238 6.91595 3.13353C6.61161 2.79 6.12069 2.47595 5.21967 2.47595ZM1.47595 5.23232C1.47595 3.15957 3.15024 1.47595 5.21967 1.47595C6.39964 1.47595 7.16555 1.90726 7.66446 2.4704C7.79528 2.61806 7.90592 2.77369 8 2.92752C8.09408 2.77369 8.20471 2.61806 8.33553 2.4704C8.83444 1.90726 9.60035 1.47595 10.7803 1.47595C12.8498 1.47595 14.524 3.15957 14.524 5.23232C14.524 7.17779 13.4144 9.05245 12.135 10.6127C10.9238 12.09 9.49445 13.3627 8.51731 14.2328C8.45386 14.2893 8.39233 14.3441 8.33288 14.3971C8.14322 14.5663 7.85677 14.5663 7.66711 14.3971C7.60766 14.3441 7.54613 14.2893 7.48268 14.2328C6.50554 13.3627 5.07619 12.09 3.86496 10.6127C2.58564 9.05245 1.47595 7.17779 1.47595 5.23232Z" fill="black"/>
</svg>
