<svg width="28" height="28" viewBox="0 0 28 28" fill="none" xmlns="http://www.w3.org/2000/svg">
<path d="M15.4336 7.7769H19.2205L10.9984 15.999V12.2121C10.9984 12.1016 10.9089 12.0121 10.7984 12.0121H9.9984C9.88794 12.0121 9.7984 12.1016 9.7984 12.2121V17.5415C9.7984 17.8177 10.0223 18.0415 10.2984 18.0415H15.6161C15.7266 18.0415 15.8161 17.952 15.8161 17.8415V17.0415C15.8161 16.9311 15.7266 16.8415 15.6161 16.8415H11.8529L20.063 8.63145V12.3946C20.063 12.5051 20.1526 12.5946 20.263 12.5946H21.063C21.1735 12.5946 21.263 12.5051 21.263 12.3946V7.0769C21.263 6.80076 21.0392 6.5769 20.763 6.5769H15.4336C15.3231 6.5769 15.2336 6.66645 15.2336 6.7769V7.5769C15.2336 7.68736 15.3231 7.7769 15.4336 7.7769Z" fill="black"/>
<path d="M7.47315 6.63228C6.92086 6.63228 6.47314 7.07999 6.47314 7.63228V20.3578C6.47314 20.9101 6.92086 21.3578 7.47314 21.3578H20.1987C20.751 21.3578 21.1987 20.9101 21.1987 20.3578V16.6466C21.1987 16.5462 21.1173 16.4648 21.0169 16.4648H20.2897C20.1893 16.4648 20.1079 16.5462 20.1079 16.6466V20.0671C20.1079 20.1775 20.0184 20.2671 19.9079 20.2671H7.76393C7.65347 20.2671 7.56393 20.1775 7.56393 20.0671V7.92306C7.56393 7.8126 7.65347 7.72306 7.76393 7.72306H11.1095C11.2099 7.72306 11.2913 7.64166 11.2913 7.54126V6.81407C11.2913 6.71367 11.2099 6.63228 11.1095 6.63228H7.47315Z" fill="black"/>
</svg>
