<svg width="28" height="28" viewBox="0 0 28 28" fill="none" xmlns="http://www.w3.org/2000/svg">
<path fill-rule="evenodd" clip-rule="evenodd" d="M5.7124 7.6C5.7124 6.71634 6.42875 6 7.3124 6H20.141C21.0247 6 21.741 6.71634 21.741 7.6V11.1072C21.741 11.2176 21.6515 11.3072 21.541 11.3072H20.741C20.6306 11.3072 20.541 11.2176 20.541 11.1072V7.6C20.541 7.37909 20.3619 7.2 20.141 7.2H7.3124C7.09149 7.2 6.9124 7.37909 6.9124 7.6V20.4286C6.9124 20.6495 7.09149 20.8286 7.3124 20.8286H10.8196C10.93 20.8286 11.0196 20.9182 11.0196 21.0286V21.8286C11.0196 21.9391 10.93 22.0286 10.8196 22.0286H7.3124C6.42875 22.0286 5.7124 21.3123 5.7124 20.4286V7.6Z" fill="black"/>
<path d="M21.5518 16.2307C22.0079 16.5518 22.0038 17.2293 21.5438 17.5447L15.2524 21.8587C14.7215 22.2227 14 21.8426 14 21.1989L14 12.4564C14 11.8082 14.7305 11.4291 15.2605 11.8022L21.5518 16.2307Z" fill="black"/>
</svg>
