<svg width="16" height="16" viewBox="0 0 16 16" fill="none" xmlns="http://www.w3.org/2000/svg">
<path fill-rule="evenodd" clip-rule="evenodd" d="M7.99999 0.99999C4.134 0.99999 0.99999 4.134 0.99999 7.99999C0.99999 11.866 4.134 15 7.99999 15C11.866 15 15 11.866 15 7.99999H14.1013C14.1013 11.3696 11.3696 14.1013 7.99999 14.1013C4.63035 14.1013 1.89871 11.3696 1.89871 7.99999C1.89871 4.63035 4.63035 1.89871 7.99999 1.89871V0.99999ZM8 4.57561C6.10876 4.57561 4.57561 6.10876 4.57561 8C4.57561 9.89123 6.10876 11.4244 8 11.4244C9.89123 11.4244 11.4244 9.89123 11.4244 8H10.5756C10.5756 9.42245 9.42245 10.5756 8 10.5756C6.57754 10.5756 5.42439 9.42245 5.42439 8C5.42439 6.57753 6.57753 5.42439 8 5.42439V4.57561Z" fill="black"/>
</svg>
