<svg width="28" height="28" viewBox="0 0 28 28" fill="none" xmlns="http://www.w3.org/2000/svg">
<path d="M9.13867 6.25818C9.08344 6.25818 9.03867 6.30295 9.03867 6.35818V9.15818H6.23867C6.18344 9.15818 6.13867 9.20295 6.13867 9.25818V10.2582C6.13867 10.3134 6.18344 10.3582 6.23867 10.3582H9.03867V13.1582C9.03867 13.2134 9.08344 13.2582 9.13867 13.2582H10.1387C10.1939 13.2582 10.2387 13.2134 10.2387 13.1582V10.3582H13.0387C13.0939 10.3582 13.1387 10.3134 13.1387 10.2582V9.25818C13.1387 9.20295 13.0939 9.15818 13.0387 9.15818H10.2387V6.35818C10.2387 6.30295 10.1939 6.25818 10.1387 6.25818H9.13867Z" fill="black"/>
<path fill-rule="evenodd" clip-rule="evenodd" d="M14.7842 9.75813C14.7842 7.93559 16.2616 6.45813 18.0842 6.45813C19.9067 6.45813 21.3842 7.93559 21.3842 9.75813C21.3842 11.5807 19.9067 13.0581 18.0842 13.0581C16.2616 13.0581 14.7842 11.5807 14.7842 9.75813ZM18.0842 11.8581C16.9244 11.8581 15.9842 10.9179 15.9842 9.75813C15.9842 8.59833 16.9244 7.65813 18.0842 7.65813C19.244 7.65813 20.1842 8.59833 20.1842 9.75813C20.1842 10.9179 19.244 11.8581 18.0842 11.8581Z" fill="black"/>
<path fill-rule="evenodd" clip-rule="evenodd" d="M6.48877 15.6927C6.48877 15.4166 6.71263 15.1927 6.98877 15.1927H12.2888C12.5649 15.1927 12.7888 15.4166 12.7888 15.6927V20.9937C12.7888 21.2699 12.5649 21.4937 12.2888 21.4937H6.98877C6.71263 21.4937 6.48877 21.2699 6.48877 20.9937V15.6927ZM7.68877 20.2937V16.3927H11.5888V20.2937H7.68877Z" fill="black"/>
<path fill-rule="evenodd" clip-rule="evenodd" d="M18.4379 14.1015C18.2427 13.9062 17.9261 13.9062 17.7308 14.1015L14.0532 17.7791C13.8579 17.9744 13.8579 18.2909 14.0532 18.4862L17.7301 22.1632C17.9254 22.3584 18.242 22.3584 18.4372 22.1632L22.1149 18.4855C22.3101 18.2903 22.3101 17.9737 22.1149 17.7784L18.4379 14.1015ZM18.0844 15.445L15.3967 18.1326L18.0837 20.8197L20.7714 18.132L18.0844 15.445Z" fill="black"/>
</svg>
