<svg width="16" height="16" viewBox="0 0 16 16" fill="none" xmlns="http://www.w3.org/2000/svg">
<path d="M3.56742 0.971191C3.51905 0.971191 3.47984 1.0104 3.47984 1.05877V3.51097H1.02764C0.979274 3.51097 0.940063 3.55018 0.940063 3.59855V4.47434C0.940063 4.52271 0.979273 4.56192 1.02764 4.56192H3.47984V7.01412C3.47984 7.06249 3.51905 7.1017 3.56742 7.1017H4.44321C4.49158 7.1017 4.53079 7.06249 4.53079 7.01412V4.56192H6.98299C7.03136 4.56191 7.07057 4.52271 7.07057 4.47434V3.59855C7.07057 3.55018 7.03136 3.51097 6.98299 3.51097H4.53079V1.05877C4.53079 1.0104 4.49158 0.971191 4.44321 0.971191H3.56742Z" fill="black"/>
<path fill-rule="evenodd" clip-rule="evenodd" d="M8.51168 4.0364C8.51168 2.44025 9.80562 1.14631 11.4018 1.14631C12.9979 1.14631 14.2919 2.44025 14.2919 4.0364C14.2919 5.63256 12.9979 6.9265 11.4018 6.9265C9.80562 6.9265 8.51168 5.63256 8.51168 4.0364ZM11.4018 5.87555C10.386 5.87555 9.56263 5.05214 9.56263 4.0364C9.56263 3.02067 10.386 2.19725 11.4018 2.19725C12.4175 2.19725 13.2409 3.02067 13.2409 4.0364C13.2409 5.05214 12.4175 5.87555 11.4018 5.87555Z" fill="black"/>
<path fill-rule="evenodd" clip-rule="evenodd" d="M1.24667 9.23386C1.24667 8.99202 1.44273 8.79597 1.68457 8.79597H6.32624C6.56808 8.79597 6.76413 8.99202 6.76413 9.23386V13.8764C6.76413 14.1182 6.56808 14.3143 6.32624 14.3143H1.68457C1.44273 14.3143 1.24667 14.1182 1.24667 13.8764V9.23386ZM2.29762 13.2633V9.84691H5.71319V13.2633H2.29762Z" fill="black"/>
<path fill-rule="evenodd" clip-rule="evenodd" d="M11.7116 7.84023C11.5406 7.66923 11.2633 7.66923 11.0923 7.84023L7.87149 11.0611C7.70048 11.2321 7.70048 11.5093 7.87149 11.6803L11.0917 14.9006C11.2627 15.0716 11.54 15.0716 11.711 14.9006L14.9318 11.6797C15.1028 11.5087 15.1028 11.2315 14.9318 11.0605L11.7116 7.84023ZM11.4019 9.01686L9.04811 11.3707L11.4014 13.7239L13.7552 11.3701L11.4019 9.01686Z" fill="black"/>
</svg>
