<svg width="28" height="28" viewBox="0 0 28 28" fill="none" xmlns="http://www.w3.org/2000/svg">
<path d="M17.7374 8.39949L14.7244 8.39967C14.6139 8.39968 14.5244 8.31013 14.5244 8.19967V7.39967C14.5244 7.28922 14.6139 7.19968 14.7244 7.19967L19.2792 7.19946C19.5554 7.19945 19.7792 7.4233 19.7793 7.69945L19.7794 12.3251C19.7794 12.4355 19.6899 12.5251 19.5794 12.5251H18.7794C18.669 12.5251 18.5794 12.4356 18.5794 12.3251L18.5793 9.25471L11.6159 16.2181L14.6863 16.2182C14.7968 16.2182 14.8863 16.3078 14.8863 16.4182V17.2182C14.8863 17.3287 14.7968 17.4182 14.6863 17.4182L10.0607 17.418C9.78451 17.418 9.56066 17.1942 9.56067 16.918L9.56089 12.3632C9.56089 12.2527 9.65043 12.1632 9.76089 12.1632H10.5609C10.6713 12.1632 10.7609 12.2527 10.7609 12.3632L10.7607 15.3762L17.7374 8.39949Z" fill="black"/>
<path d="M6.79143 8.81438C6.79143 8.59347 6.97052 8.41438 7.19143 8.41438H10.37V7.21438H7.19143C6.30778 7.21438 5.59143 7.93072 5.59143 8.81438V19.8144C5.59143 20.698 6.30777 21.4144 7.19143 21.4144H18.1914C19.0751 21.4144 19.7914 20.698 19.7914 19.8144V16.6358H18.5914V19.8144C18.5914 20.0353 18.4123 20.2144 18.1914 20.2144H7.19143C6.97052 20.2144 6.79143 20.0353 6.79143 19.8144V8.81438Z" fill="black"/>
</svg>
