<svg width="16" height="16" viewBox="0 0 16 16" fill="none" xmlns="http://www.w3.org/2000/svg">
<path fill-rule="evenodd" clip-rule="evenodd" d="M8.00006 1.03098C8.27621 1.03098 8.50006 1.25483 8.50006 1.53098V3.37928C8.50006 3.65542 8.27621 3.87928 8.00006 3.87928C7.72392 3.87928 7.50006 3.65542 7.50006 3.37928V1.53098C7.50006 1.25483 7.72392 1.03098 8.00006 1.03098ZM3.0722 3.07217C3.26746 2.8769 3.58404 2.8769 3.7793 3.07217L5.08625 4.37911C5.28151 4.57437 5.28151 4.89096 5.08625 5.08622C4.89099 5.28148 4.5744 5.28148 4.37914 5.08622L3.0722 3.77927C2.87693 3.58401 2.87693 3.26743 3.0722 3.07217ZM1.53101 7.50003C1.25486 7.50003 1.03101 7.72389 1.03101 8.00003C1.03101 8.27618 1.25486 8.50003 1.53101 8.50003H3.37931C3.65545 8.50003 3.87931 8.27618 3.87931 8.00003C3.87931 7.72389 3.65545 7.50003 3.37931 7.50003H1.53101ZM3.0722 12.9279C2.87693 12.7326 2.87693 12.4161 3.0722 12.2208L4.37914 10.9138C4.57441 10.7186 4.89099 10.7186 5.08625 10.9138C5.28151 11.1091 5.28151 11.4257 5.08625 11.621L3.7793 12.9279C3.58404 13.1232 3.26746 13.1232 3.0722 12.9279ZM12.6208 7.50003C12.3447 7.50003 12.1208 7.72389 12.1208 8.00003C12.1208 8.27618 12.3447 8.50003 12.6208 8.50003H14.4691C14.7453 8.50003 14.9691 8.27618 14.9691 8.00003C14.9691 7.72389 14.7453 7.50003 14.4691 7.50003H12.6208ZM10.9139 5.08622C10.7186 4.89096 10.7186 4.57437 10.9139 4.37911L12.2208 3.07217C12.4161 2.8769 12.7327 2.8769 12.9279 3.07217C13.1232 3.26743 13.1232 3.58401 12.9279 3.77927L11.621 5.08622C11.4257 5.28148 11.1091 5.28148 10.9139 5.08622ZM8.50006 12.6208C8.50006 12.3446 8.27621 12.1208 8.00006 12.1208C7.72392 12.1208 7.50006 12.3446 7.50006 12.6208V14.4691C7.50006 14.7452 7.72392 14.9691 8.00006 14.9691C8.27621 14.9691 8.50006 14.7452 8.50006 14.4691V12.6208ZM10.9139 10.9138C11.1091 10.7186 11.4257 10.7186 11.621 10.9138L12.9279 12.2208C13.1232 12.4161 13.1232 12.7326 12.9279 12.9279C12.7327 13.1232 12.4161 13.1232 12.2208 12.9279L10.9139 11.621C10.7186 11.4257 10.7186 11.1091 10.9139 10.9138ZM6.18969 8.00003C6.18969 7.00019 7.00022 6.18966 8.00006 6.18966C8.99991 6.18966 9.81044 7.00019 9.81044 8.00003C9.81044 8.99988 8.99991 9.81041 8.00006 9.81041C7.00022 9.81041 6.18969 8.99988 6.18969 8.00003ZM8.00006 5.18966C6.44794 5.18966 5.18969 6.4479 5.18969 8.00003C5.18969 9.55216 6.44794 10.8104 8.00006 10.8104C9.55219 10.8104 10.8104 9.55216 10.8104 8.00003C10.8104 6.4479 9.55219 5.18966 8.00006 5.18966Z" fill="black"/>
</svg>
