<svg width="16" height="16" viewBox="0 0 16 16" fill="none" xmlns="http://www.w3.org/2000/svg">
<path fill-rule="evenodd" clip-rule="evenodd" d="M1.46362 4.00128C1.46362 3.72514 1.68748 3.50128 1.96362 3.50128H14.1249C14.401 3.50128 14.6249 3.72514 14.6249 4.00128C14.6249 4.27742 14.401 4.50128 14.1249 4.50128H1.96362C1.68748 4.50128 1.46362 4.27742 1.46362 4.00128ZM4.18036 8.00002C4.18036 7.72388 4.40422 7.50002 4.68036 7.50002H11.322C11.5981 7.50002 11.822 7.72388 11.822 8.00002C11.822 8.27616 11.5981 8.50002 11.322 8.50002H4.68036C4.40422 8.50002 4.18036 8.27616 4.18036 8.00002ZM2.67827 12.0104C2.67827 11.7343 2.90213 11.5104 3.17827 11.5104H3.1978H3.21732H3.23683H3.25634H3.27585H3.29535H3.31484H3.33433H3.35382H3.3733H3.39277H3.41225H3.43171H3.45117H3.47063H3.49008H3.50953H3.52898H3.54841H3.56785H3.58728H3.6067H3.62612H3.64554H3.66495H3.68436H3.70376H3.72316H3.74255H3.76194H3.78133H3.80071H3.82008H3.83946H3.85882H3.87819H3.89755H3.9169H3.93625H3.9556H3.97494H3.99428H4.01361H4.03294H4.05227H4.07159H4.09091H4.11022H4.12953H4.14883H4.16814H4.18743H4.20673H4.22602H4.2453H4.26458H4.28386H4.30314H4.32241H4.34167H4.36093H4.38019H4.39945H4.4187H4.43795H4.45719H4.47643H4.49567H4.5149H4.53413H4.55336H4.57258H4.5918H4.61101H4.63022H4.64943H4.66863H4.68784H4.70703H4.72623H4.74542H4.7646H4.78379H4.80297H4.82215H4.84132H4.86049H4.87966H4.89882H4.91798H4.93714H4.9563H4.97545H4.99459H5.01374H5.03288H5.05202H5.07116H5.09029H5.10942H5.12854H5.14767H5.16679H5.18591H5.20502H5.22413H5.24324H5.26235H5.28145H5.30055H5.31965H5.33874H5.35783H5.37692H5.39601H5.41509H5.43417H5.45325H5.47233H5.4914H5.51047H5.52954H5.5486H5.56766H5.58672H5.60578H5.62483H5.64389H5.66294H5.68198H5.70103H5.72007H5.73911H5.75815H5.77718H5.79622H5.81525H5.83427H5.8533H5.87232H5.89135H5.91036H5.92938H5.9484H5.96741H5.98642H6.00543H6.02443H6.04344H6.06244H6.08144H6.10044H6.11943H6.13843H6.15742H6.17641H6.1954H6.21438H6.23337H6.25235H6.27133H6.29031H6.30929H6.32826H6.34724H6.36621H6.38518H6.40415H6.42311H6.44208H6.46104H6.48H6.49896H6.51792H6.53687H6.55583H6.57478H6.59374H6.61269H6.63163H6.65058H6.66953H6.68847H6.70742H6.72636H6.7453H6.76424H6.78317H6.80211H6.82104H6.83998H6.85891H6.87784H6.89677H6.9157H6.93463H6.95356H6.97248H6.99141H7.01033H7.02925H7.04817H7.06709H7.08601H7.10493H7.12384H7.14276H7.16167H7.18059H7.1995H7.21841H7.23733H7.25624H7.27515H7.29405H7.31296H7.33187H7.35078H7.36968H7.38859H7.40749H7.4264H7.4453H7.4642H7.4831H7.502H7.5209H7.5398H7.5587H7.5776H7.5965H7.6154H7.6343H7.65319H7.67209H7.69099H7.70988H7.72878H7.74767H7.76657H7.78546H7.80436H7.82325H7.84214H7.86104H7.87993H7.89882H7.91772H7.93661H7.9555H7.97439H7.99329H8.01218H8.03107H8.04996H8.06886H8.08775H8.10664H8.12553H8.14442H8.16332H8.18221H8.2011H8.21999H8.23889H8.25778H8.27667H8.29557H8.31446H8.33335H8.35225H8.37114H8.39004H8.40893H8.42783H8.44672H8.46562H8.48452H8.50341H8.52231H8.54121H8.56011H8.57901H8.59791H8.61681H8.63571H8.65461H8.67351H8.69241H8.71132H8.73022H8.74912H8.76803H8.78693H8.80584H8.82475H8.84366H8.86256H8.88147H8.90038H8.9193H8.93821H8.95712H8.97604H8.99495H9.01387H9.03278H9.0517H9.07062H9.08954H9.10846H9.12738H9.14631H9.16523H9.18415H9.20308H9.22201H9.24094H9.25987H9.2788H9.29773H9.31667H9.3356H9.35454H9.37347H9.39241H9.41135H9.4303H9.44924H9.46818H9.48713H9.50608H9.52502H9.54398H9.56293H9.58188H9.60084H9.61979H9.63875H9.65771H9.67667H9.69563H9.7146H9.73356H9.75253H9.7715H9.79047H9.80945H9.82842H9.8474H9.86638H9.88536H9.90434H9.92332H9.94231H9.9613H9.98029H9.99928H10.0183H10.0373H10.0563H10.0753H10.0943H10.1133H10.1323H10.1513H10.1703H10.1893H10.2083H10.2273H10.2464H10.2654H10.2844H10.3034H10.3225H10.3415H10.3605H10.3796H10.3986H10.4176H10.4367H10.4557H10.4748H10.4938H10.5129H10.5319H10.551H10.57H10.5891H10.6082H10.6272H10.6463H10.6654H10.6845H10.7035H10.7226H10.7417H10.7608H10.7799H10.799H10.8181H10.8372H10.8563H10.8754H10.8945H10.9136H10.9327H10.9518H10.9709H10.99H11.0092H11.0283H11.0474H11.0666H11.0857H11.1048H11.124H11.1431H11.1623H11.1814H11.2006H11.2197H11.2389H11.2581H11.2772H11.2964H11.3156H11.3347H11.3539H11.3731H11.3923H11.4115H11.4307H11.4499H11.4691H11.4883H11.5075H11.5267H11.5459H11.5651H11.5844H11.6036H11.6228H11.642H11.6613H11.6805H11.6998H11.719H11.7383H11.7575H11.7768H11.796H11.8153H11.8346H11.8538H11.8731H11.8924H11.9117H11.931H11.9503H11.9696H11.9889H12.0082H12.0275H12.0468H12.0661H12.0854H12.1048H12.1241H12.1434H12.1628H12.1821H12.2015H12.2208H12.2402H12.2595H12.2789H12.2983H12.3176H12.337H12.3564H12.3758H12.3952H12.4146H12.4339H12.4534H12.4728H12.4922H12.5116H12.531H12.5504H12.5699H12.5893H12.6087H12.6282H12.6476H12.6671H12.6865H12.706H12.7255H12.7449H12.7644H12.7839H12.8034H12.8229H12.8424H12.8619H12.8814H12.9009H12.9204H12.9399H12.9594C13.2356 11.5104 13.4594 11.7343 13.4594 12.0104C13.4594 12.2866 13.2356 12.5104 12.9594 12.5104H12.9399H12.9204H12.9009H12.8814H12.8619H12.8424H12.8229H12.8034H12.7839H12.7644H12.7449H12.7255H12.706H12.6865H12.6671H12.6476H12.6282H12.6087H12.5893H12.5699H12.5504H12.531H12.5116H12.4922H12.4728H12.4534H12.4339H12.4146H12.3952H12.3758H12.3564H12.337H12.3176H12.2983H12.2789H12.2595H12.2402H12.2208H12.2015H12.1821H12.1628H12.1434H12.1241H12.1048H12.0854H12.0661H12.0468H12.0275H12.0082H11.9889H11.9696H11.9503H11.931H11.9117H11.8924H11.8731H11.8538H11.8346H11.8153H11.796H11.7768H11.7575H11.7383H11.719H11.6998H11.6805H11.6613H11.642H11.6228H11.6036H11.5844H11.5651H11.5459H11.5267H11.5075H11.4883H11.4691H11.4499H11.4307H11.4115H11.3923H11.3731H11.3539H11.3347H11.3156H11.2964H11.2772H11.2581H11.2389H11.2197H11.2006H11.1814H11.1623H11.1431H11.124H11.1048H11.0857H11.0666H11.0474H11.0283H11.0092H10.99H10.9709H10.9518H10.9327H10.9136H10.8945H10.8754H10.8563H10.8372H10.8181H10.799H10.7799H10.7608H10.7417H10.7226H10.7035H10.6845H10.6654H10.6463H10.6272H10.6082H10.5891H10.57H10.551H10.5319H10.5129H10.4938H10.4748H10.4557H10.4367H10.4176H10.3986H10.3796H10.3605H10.3415H10.3225H10.3034H10.2844H10.2654H10.2464H10.2273H10.2083H10.1893H10.1703H10.1513H10.1323H10.1133H10.0943H10.0753H10.0563H10.0373H10.0183H9.99928H9.98029H9.9613H9.94231H9.92332H9.90434H9.88536H9.86638H9.8474H9.82842H9.80945H9.79047H9.7715H9.75253H9.73356H9.7146H9.69563H9.67667H9.65771H9.63875H9.61979H9.60084H9.58188H9.56293H9.54398H9.52502H9.50608H9.48713H9.46818H9.44924H9.4303H9.41135H9.39241H9.37347H9.35454H9.3356H9.31667H9.29773H9.2788H9.25987H9.24094H9.22201H9.20308H9.18415H9.16523H9.14631H9.12738H9.10846H9.08954H9.07062H9.0517H9.03278H9.01387H8.99495H8.97604H8.95712H8.93821H8.9193H8.90038H8.88147H8.86256H8.84366H8.82475H8.80584H8.78693H8.76803H8.74912H8.73022H8.71132H8.69241H8.67351H8.65461H8.63571H8.61681H8.59791H8.57901H8.56011H8.54121H8.52231H8.50341H8.48452H8.46562H8.44672H8.42783H8.40893H8.39004H8.37114H8.35225H8.33335H8.31446H8.29557H8.27667H8.25778H8.23889H8.21999H8.2011H8.18221H8.16332H8.14442H8.12553H8.10664H8.08775H8.06886H8.04996H8.03107H8.01218H7.99329H7.97439H7.9555H7.93661H7.91772H7.89882H7.87993H7.86104H7.84214H7.82325H7.80436H7.78546H7.76657H7.74767H7.72878H7.70988H7.69099H7.67209H7.65319H7.6343H7.6154H7.5965H7.5776H7.5587H7.5398H7.5209H7.502H7.4831H7.4642H7.4453H7.4264H7.40749H7.38859H7.36968H7.35078H7.33187H7.31296H7.29405H7.27515H7.25624H7.23733H7.21841H7.1995H7.18059H7.16167H7.14276H7.12384H7.10493H7.08601H7.06709H7.04817H7.02925H7.01033H6.99141H6.97248H6.95356H6.93463H6.9157H6.89677H6.87784H6.85891H6.83998H6.82104H6.80211H6.78317H6.76424H6.7453H6.72636H6.70742H6.68847H6.66953H6.65058H6.63163H6.61269H6.59374H6.57478H6.55583H6.53687H6.51792H6.49896H6.48H6.46104H6.44208H6.42311H6.40415H6.38518H6.36621H6.34724H6.32826H6.30929H6.29031H6.27133H6.25235H6.23337H6.21438H6.1954H6.17641H6.15742H6.13843H6.11943H6.10044H6.08144H6.06244H6.04344H6.02443H6.00543H5.98642H5.96741H5.9484H5.92938H5.91036H5.89135H5.87232H5.8533H5.83427H5.81525H5.79622H5.77718H5.75815H5.73911H5.72007H5.70103H5.68198H5.66294H5.64389H5.62483H5.60578H5.58672H5.56766H5.5486H5.52954H5.51047H5.4914H5.47233H5.45325H5.43417H5.41509H5.39601H5.37692H5.35783H5.33874H5.31965H5.30055H5.28145H5.26235H5.24324H5.22413H5.20502H5.18591H5.16679H5.14767H5.12854H5.10942H5.09029H5.07116H5.05202H5.03288H5.01374H4.99459H4.97545H4.9563H4.93714H4.91798H4.89882H4.87966H4.86049H4.84132H4.82215H4.80297H4.78379H4.7646H4.74542H4.72623H4.70703H4.68784H4.66863H4.64943H4.63022H4.61101H4.5918H4.57258H4.55336H4.53413H4.5149H4.49567H4.47643H4.45719H4.43795H4.4187H4.39945H4.38019H4.36093H4.34167H4.32241H4.30314H4.28386H4.26458H4.2453H4.22602H4.20673H4.18743H4.16814H4.14883H4.12953H4.11022H4.09091H4.07159H4.05227H4.03294H4.01361H3.99428H3.97494H3.9556H3.93625H3.9169H3.89755H3.87819H3.85882H3.83946H3.82008H3.80071H3.78133H3.76194H3.74255H3.72316H3.70376H3.68436H3.66495H3.64554H3.62612H3.6067H3.58728H3.56785H3.54841H3.52898H3.50953H3.49008H3.47063H3.45117H3.43171H3.41225H3.39277H3.3733H3.35382H3.33433H3.31484H3.29535H3.27585H3.25634H3.23683H3.21732H3.1978H3.17827C2.90213 12.5104 2.67827 12.2866 2.67827 12.0104Z" fill="black"/>
</svg>
