<svg width="16" height="16" viewBox="0 0 16 16" fill="none" xmlns="http://www.w3.org/2000/svg">
<path d="M2.39774 2.05115H3.14974L3.14874 6.41515H2.35874V2.82015H2.33274L1.31274 3.47215V2.74815L2.39774 2.05115Z" fill="black"/>
<path d="M1.37477 13.6802H4.36577V13.0192H2.46577V12.9892L3.21777 12.2252C4.06577 11.4112 4.29977 11.0142 4.29977 10.5222C4.29977 9.79118 3.70577 9.25718 2.82777 9.25718C1.96277 9.25718 1.34877 9.79318 1.34877 10.6222H2.10077C2.10077 10.1772 2.38277 9.89818 2.81677 9.89818C3.23177 9.89818 3.54177 10.1512 3.54177 10.5632C3.54177 10.9272 3.31977 11.1872 2.88977 11.6242L1.37477 13.1092V13.6802Z" fill="black"/>
<path d="M6.81277 2.79378C6.53662 2.79378 6.31277 3.01764 6.31277 3.29378C6.31277 3.56992 6.53662 3.79378 6.81277 3.79378H14.4046C14.6808 3.79378 14.9046 3.56992 14.9046 3.29378C14.9046 3.01764 14.6808 2.79378 14.4046 2.79378H6.81277Z" fill="black"/>
<path d="M6.31277 8.01173C6.31277 7.73559 6.53662 7.51173 6.81277 7.51173H14.4046C14.6808 7.51173 14.9046 7.73559 14.9046 8.01173C14.9046 8.28788 14.6808 8.51173 14.4046 8.51173L10.5 8.50993L6.81277 8.51173C6.53662 8.51173 6.31277 8.28788 6.31277 8.01173Z" fill="black"/>
<path d="M6.81277 12.2108C6.53662 12.2108 6.31277 12.4347 6.31277 12.7108C6.31277 12.9869 6.53662 13.2108 6.81277 13.2108H14.4046C14.6808 13.2108 14.9046 12.9869 14.9046 12.7108C14.9046 12.4347 14.6808 12.2108 14.4046 12.2108H6.81277Z" fill="black"/>
</svg>
