<svg width="16" height="16" viewBox="0 0 16 16" fill="none" xmlns="http://www.w3.org/2000/svg">
<path fill-rule="evenodd" clip-rule="evenodd" d="M1.94702 2.21704C1.67088 2.21704 1.44702 2.4409 1.44702 2.71704C1.44702 2.99318 1.67088 3.21704 1.94702 3.21704H14.0529C14.3291 3.21704 14.5529 2.99318 14.5529 2.71704C14.5529 2.4409 14.3291 2.21704 14.0529 2.21704H1.94702ZM4.60992 7.44526C4.41466 7.64052 4.41466 7.9571 4.60992 8.15236C4.80518 8.34763 5.12176 8.34763 5.31703 8.15236L7.49997 5.96942V13.283C7.49997 13.5591 7.72383 13.783 7.99997 13.783C8.27611 13.783 8.49997 13.5591 8.49997 13.283V5.96942L10.6829 8.15236C10.8782 8.34763 11.1948 8.34763 11.39 8.15236C11.5853 7.9571 11.5853 7.64052 11.39 7.44526L8.35352 4.40876C8.25975 4.31499 8.13258 4.26231 7.99997 4.26231C7.86736 4.26231 7.74018 4.31499 7.64642 4.40876L4.60992 7.44526Z" fill="black" fill-opacity="0.9"/>
</svg>
