<svg width="16" height="16" viewBox="0 0 16 16" fill="none" xmlns="http://www.w3.org/2000/svg">
<path fill-rule="evenodd" clip-rule="evenodd" d="M10.2554 4.95085C10.4053 4.79943 10.404 4.55521 10.2525 4.40538C10.1011 4.25555 9.85688 4.25685 9.70705 4.40828L8.43838 5.69049L8.43838 2.00016C8.43838 1.78713 8.26569 1.61444 8.05266 1.61444C7.83964 1.61444 7.66695 1.78713 7.66695 2.00016L7.66695 5.69049L6.39828 4.40828C6.24845 4.25685 6.00423 4.25555 5.8528 4.40538C5.70138 4.55521 5.70008 4.79943 5.84991 4.95085L7.77848 6.90002C7.85093 6.97324 7.94966 7.01444 8.05266 7.01444C8.15567 7.01444 8.2544 6.97324 8.32685 6.90002L10.2554 4.95085ZM5.80007 11.5948C5.64864 11.4449 5.64734 11.2007 5.79717 11.0493L7.72574 9.10014C7.79819 9.02691 7.89692 8.98571 7.99993 8.98571C8.10294 8.98571 8.20167 9.02691 8.27412 9.10014L10.2027 11.0493C10.3525 11.2007 10.3512 11.4449 10.1998 11.5948C10.0484 11.7446 9.80414 11.7433 9.65432 11.5919L8.38564 10.3097L8.38564 14C8.38564 14.213 8.21295 14.3857 7.99993 14.3857C7.78691 14.3857 7.61422 14.213 7.61422 14V10.3097L6.34554 11.5919C6.19572 11.7433 5.9515 11.7446 5.80007 11.5948ZM13.7763 8.40006C13.9972 8.40006 14.1763 8.22098 14.1763 8.00006C14.1763 7.77915 13.9972 7.60006 13.7763 7.60006L2.27628 7.60006C2.05537 7.60006 1.87628 7.77915 1.87628 8.00006C1.87628 8.22097 2.05537 8.40006 2.27628 8.40006L13.7763 8.40006Z" fill="black"/>
</svg>
