<svg width="16" height="16" viewBox="0 0 16 16" fill="none" xmlns="http://www.w3.org/2000/svg">
<path d="M1.00005 2.99945C0.751521 2.99945 0.550049 3.20092 0.550049 3.44945C0.550049 3.69798 0.751521 3.89945 1.00005 3.89945H15C15.2486 3.89945 15.45 3.69798 15.45 3.44945C15.45 3.20092 15.2486 2.99945 15 2.99945H1.00005Z" fill="black"/>
<path d="M1.00005 11.9995C0.751521 11.9995 0.550049 12.2009 0.550049 12.4495C0.550049 12.698 0.751521 12.8995 1.00005 12.8995H8.00005C8.24858 12.8995 8.45005 12.698 8.45005 12.4495C8.45005 12.2009 8.24858 11.9995 8.00005 11.9995H1.00005Z" fill="black"/>
<path d="M13.55 12.4495C13.55 12.2009 13.7515 11.9995 14 11.9995H15C15.2486 11.9995 15.45 12.2009 15.45 12.4495C15.45 12.698 15.2486 12.8995 15 12.8995H14C13.7515 12.8995 13.55 12.698 13.55 12.4495Z" fill="black"/>
<path fill-rule="evenodd" clip-rule="evenodd" d="M5.67925 4.53695C5.6234 4.39218 5.48416 4.29676 5.329 4.29692C5.17383 4.29708 5.03479 4.39279 4.97924 4.53767L2.42711 11.1937C2.35296 11.387 2.44961 11.6039 2.64299 11.6781C2.83637 11.7522 3.05324 11.6556 3.12739 11.4622L3.96758 9.27097H6.70174L7.54738 11.4629C7.62193 11.6561 7.839 11.7523 8.03223 11.6778C8.22545 11.6032 8.32166 11.3862 8.24712 11.1929L5.67925 4.53695ZM6.4558 8.63347L5.33046 5.71655L4.21201 8.63347H6.4558Z" fill="black"/>
<path fill-rule="evenodd" clip-rule="evenodd" d="M8.7845 8.95967C8.7845 7.42045 9.78372 6.23752 11.0963 6.23752C11.8234 6.23752 12.4839 6.5636 12.9231 7.07631V6.64789C12.9231 6.4615 13.0742 6.31039 13.2606 6.31039C13.447 6.31039 13.5981 6.4615 13.5981 6.64789V11.2959C13.5981 11.4823 13.447 11.6334 13.2606 11.6334C13.0742 11.6334 12.9231 11.4823 12.9231 11.2959V10.8639C12.4589 11.3982 11.765 11.6818 11.0963 11.6818C9.86372 11.6818 8.7845 10.5789 8.7845 8.95967ZM12.9231 7.95647V9.86825C12.6271 10.4408 11.9711 11.0011 11.2466 11.0011C10.3842 11.0011 9.6052 10.1945 9.6052 8.95953C9.6052 7.64454 10.4642 6.91795 11.2466 6.91795C11.9472 6.91795 12.6208 7.35764 12.9231 7.95647Z" fill="black"/>
</svg>
