<svg width="16" height="16" viewBox="0 0 16 16" fill="none" xmlns="http://www.w3.org/2000/svg">
<path fill-rule="evenodd" clip-rule="evenodd" d="M14.0529 13.783C14.3291 13.783 14.5529 13.5592 14.5529 13.283C14.5529 13.0069 14.3291 12.783 14.0529 12.783H1.94702C1.67088 12.783 1.44702 13.0069 1.44702 13.283C1.44702 13.5592 1.67088 13.783 1.94702 13.783H14.0529ZM11.39 8.5548C11.5853 8.35954 11.5853 8.04296 11.39 7.8477C11.1948 7.65243 10.8782 7.65243 10.6829 7.8477L8.49997 10.0306V2.71706C8.49997 2.44091 8.27611 2.21706 7.99997 2.21706C7.72383 2.21706 7.49997 2.44091 7.49997 2.71706V10.0306L5.31703 7.8477C5.12176 7.65243 4.80518 7.65243 4.60992 7.8477C4.41466 8.04296 4.41466 8.35954 4.60992 8.5548L7.64642 11.5913C7.74018 11.6851 7.86736 11.7377 7.99997 11.7377C8.13258 11.7377 8.25975 11.6851 8.35352 11.5913L11.39 8.5548Z" fill="black" fill-opacity="0.9"/>
</svg>
