<svg width="16" height="16" viewBox="0 0 16 16" fill="none" xmlns="http://www.w3.org/2000/svg">
<path d="M5.20408 14.6079C5.15781 14.6079 5.1203 14.5704 5.1203 14.5242L5.1203 13.6864C5.1203 13.6401 5.15781 13.6026 5.20408 13.6026L10.7682 13.6026C10.8145 13.6026 10.852 13.6401 10.852 13.6864V14.5242C10.852 14.5704 10.8145 14.6079 10.7682 14.6079H5.20408Z" fill="black"/>
<path d="M8.54656 14.5242C8.54656 14.5704 8.50905 14.608 8.46278 14.608H7.625C7.57873 14.608 7.54122 14.5704 7.54122 14.5242L7.54122 1.47587C7.54122 1.4296 7.57873 1.39209 7.625 1.39209L8.46278 1.39209C8.50905 1.39209 8.54656 1.4296 8.54656 1.47587L8.54656 14.5242Z" fill="black"/>
<path d="M14.2502 4.38576C14.2502 4.43202 14.2127 4.46953 14.1665 4.46953H13.3287C13.2824 4.46953 13.2449 4.43202 13.2449 4.38576V1.47587C13.2449 1.4296 13.2824 1.39209 13.3287 1.39209L14.1665 1.39209C14.2127 1.39209 14.2502 1.4296 14.2502 1.47587V4.38576Z" fill="black"/>
<path d="M2.75558 4.38576C2.75558 4.43202 2.71807 4.46953 2.6718 4.46953H1.83402C1.78775 4.46953 1.75024 4.43202 1.75024 4.38576L1.75024 1.47587C1.75024 1.4296 1.78775 1.39209 1.83402 1.39209L2.6718 1.39209C2.71807 1.39209 2.75558 1.4296 2.75558 1.47587L2.75558 4.38576Z" fill="black"/>
<path d="M1.83402 2.39735C1.78775 2.39735 1.75024 2.35984 1.75024 2.31357L1.75024 1.47587C1.75024 1.4296 1.78775 1.39209 1.83402 1.39209L14.1665 1.39209C14.2127 1.39209 14.2502 1.4296 14.2502 1.47587V2.31357C14.2502 2.35984 14.2127 2.39735 14.1665 2.39735L1.83402 2.39735Z" fill="black"/>
</svg>
