<svg width="16" height="16" viewBox="0 0 16 16" fill="none" xmlns="http://www.w3.org/2000/svg">
<path d="M1 1.54998C1 1.30145 1.20147 1.09998 1.45 1.09998H14.55C14.7985 1.09998 15 1.30145 15 1.54998C15 1.7985 14.7985 1.99998 14.55 1.99998H1.45C1.20147 1.99998 1 1.7985 1 1.54998Z" fill="black"/>
<path fill-rule="evenodd" clip-rule="evenodd" d="M5.32895 4.29691C5.48411 4.29675 5.62335 4.39217 5.6792 4.53693L8.24707 11.1929C8.32161 11.3862 8.2254 11.6032 8.03218 11.6778C7.83895 11.7523 7.62188 11.6561 7.54733 11.4629L6.70169 9.27096H3.96753L3.12734 11.4622C3.0532 11.6555 2.83632 11.7522 2.64294 11.6781C2.44957 11.6039 2.35291 11.387 2.42706 11.1937L4.97919 4.53766C5.03474 4.39278 5.17378 4.29707 5.32895 4.29691ZM5.33041 5.71654L6.45575 8.63346H4.21197L5.33041 5.71654Z" fill="black"/>
<path fill-rule="evenodd" clip-rule="evenodd" d="M11.0963 6.23751C9.78367 6.23751 8.78445 7.42043 8.78445 8.95966C8.78445 10.5789 9.86367 11.6818 11.0963 11.6818C11.765 11.6818 12.4589 11.3982 12.923 10.8639V11.2959C12.923 11.4823 13.0741 11.6334 13.2605 11.6334C13.4469 11.6334 13.598 11.4823 13.598 11.2959V6.64788C13.598 6.46149 13.4469 6.31038 13.2605 6.31038C13.0741 6.31038 12.923 6.46149 12.923 6.64788V7.0763C12.4839 6.56359 11.8233 6.23751 11.0963 6.23751ZM12.923 9.86823V7.95646C12.6208 7.35763 11.9472 6.91794 11.2465 6.91794C10.4642 6.91794 9.60515 7.64453 9.60515 8.95952C9.60515 10.1945 10.3842 11.0011 11.2465 11.0011C11.971 11.0011 12.627 10.4408 12.923 9.86823Z" fill="black"/>
<path d="M1.45 14.1C1.20147 14.1 1 14.3014 1 14.55C1 14.7985 1.20147 15 1.45 15H14.55C14.7985 15 15 14.7985 15 14.55C15 14.3014 14.7985 14.1 14.55 14.1H1.45Z" fill="black"/>
</svg>
