<svg width="16" height="16" viewBox="0 0 16 16" fill="none" xmlns="http://www.w3.org/2000/svg">
<path d="M3.5 2C2.67157 2 2 2.67157 2 3.5V13.5H3V3.5C3 3.22386 3.22386 3 3.5 3H12.5C12.7761 3 13 3.22386 13 3.5V8H14V3.5C14 2.67157 13.3284 2 12.5 2H3.5Z" fill="black" fill-opacity="0.9"/>
<path d="M7 13.4899C7.55228 13.4899 8 13.0422 8 12.4899C8 11.9376 7.55228 11.4899 7 11.4899C6.44772 11.4899 6 11.9376 6 12.4899C6 13.0422 6.44772 13.4899 7 13.4899Z" fill="black" fill-opacity="0.9"/>
<path d="M10.5 13.4899C11.0523 13.4899 11.5 13.0422 11.5 12.4899C11.5 11.9376 11.0523 11.4899 10.5 11.4899C9.94772 11.4899 9.5 11.9376 9.5 12.4899C9.5 13.0422 9.94772 13.4899 10.5 13.4899Z" fill="black" fill-opacity="0.9"/>
<path d="M15 12.4899C15 13.0422 14.5523 13.4899 14 13.4899C13.4477 13.4899 13 13.0422 13 12.4899C13 11.9376 13.4477 11.4899 14 11.4899C14.5523 11.4899 15 11.9376 15 12.4899Z" fill="black" fill-opacity="0.9"/>
</svg>
