<svg width="28" height="28" viewBox="0 0 28 28" fill="none" xmlns="http://www.w3.org/2000/svg">
<path d="M15.3748 7.82288C15.3748 8.58207 14.7593 9.19751 14.0001 9.19751C13.2409 9.19751 12.6255 8.58207 12.6255 7.82288C12.6255 7.06369 13.2409 6.44824 14.0001 6.44824C14.7593 6.44824 15.3748 7.06369 15.3748 7.82288Z" fill="black"/>
<path d="M15.3748 14C15.3748 14.7592 14.7593 15.3746 14.0001 15.3746C13.2409 15.3746 12.6255 14.7592 12.6255 14C12.6255 13.2408 13.2409 12.6254 14.0001 12.6254C14.7593 12.6254 15.3748 13.2408 15.3748 14Z" fill="black"/>
<path d="M15.3748 20.1866C15.3748 20.9458 14.7593 21.5613 14.0001 21.5613C13.2409 21.5613 12.6255 20.9458 12.6255 20.1866C12.6255 19.4275 13.2409 18.812 14.0001 18.812C14.7593 18.812 15.3748 19.4275 15.3748 20.1866Z" fill="black"/>
</svg>
