<svg width="16" height="16" viewBox="0 0 16 16" fill="none" xmlns="http://www.w3.org/2000/svg">
<path fill-rule="evenodd" clip-rule="evenodd" d="M13.2077 4.13802C13.4268 3.96994 13.4682 3.65608 13.3001 3.43697C13.132 3.21787 12.8182 3.1765 12.5991 3.34458L1.49563 11.862C1.32567 11.9924 1.25764 12.2166 1.32648 12.4194C1.39532 12.6223 1.58574 12.7587 1.79996 12.7587L14.2 12.7587C14.4761 12.7587 14.7 12.5349 14.7 12.2587C14.7 11.9826 14.4761 11.7587 14.2 11.7587L8.95011 11.7587C8.85894 10.4921 8.41804 9.32179 7.72387 8.34468L13.2077 4.13802ZM6.92983 8.95379L3.27326 11.7587L7.94706 11.7587C7.85929 10.7205 7.49584 9.76127 6.92983 8.95379Z" fill="black"/>
</svg>
