<svg width="16" height="16" viewBox="0 0 16 16" fill="none" xmlns="http://www.w3.org/2000/svg">
<path fill-rule="evenodd" clip-rule="evenodd" d="M9.58539 3.83264C9.4512 3.58504 9.375 3.30142 9.375 3C9.375 2.0335 10.1585 1.25 11.125 1.25C12.0915 1.25 12.875 2.0335 12.875 3C12.875 3.9665 12.0915 4.75 11.125 4.75C10.8237 4.75 10.5401 4.67384 10.2925 4.53971L8.78328 6.04897C8.807 6.04915 8.8307 6.04948 8.85436 6.04995C9.65975 6.06574 10.5539 6.24305 11.3716 6.46244C12.1939 6.68307 12.9628 6.95284 13.5243 7.16653C13.8057 7.27359 14.0363 7.36709 14.1973 7.43408C14.2778 7.4676 14.3409 7.49451 14.3843 7.51322L14.4343 7.53493L14.4476 7.5408L14.4513 7.54242L14.4524 7.54289C14.4525 7.54294 14.4529 7.54314 14.2536 7.99169L14.4524 7.54289C14.7047 7.65505 14.8189 7.95077 14.7067 8.20312C14.5946 8.45543 14.2992 8.56908 14.0469 8.45699L14.0439 8.45568L14.0331 8.45092L13.9883 8.43149C13.9485 8.41434 13.8893 8.38906 13.8129 8.35727C13.6601 8.29365 13.4391 8.20404 13.1687 8.10114C12.6267 7.89491 11.8917 7.63734 11.1125 7.42828C10.3286 7.21798 9.52352 7.06326 8.83476 7.04975C8.1351 7.03603 7.67255 7.17031 7.42797 7.40428L7.40406 7.42819C7.1701 7.67276 7.03582 8.13531 7.04954 8.83497C7.06305 9.52373 7.21776 10.3288 7.42807 11.1127C7.63712 11.8919 7.89469 12.6269 8.10093 13.1689C8.20383 13.4393 8.29344 13.6603 8.35705 13.8131C8.38885 13.8895 8.41412 13.9487 8.43127 13.9885L8.4507 14.0333L8.45547 14.0441L8.45655 14.0466C8.56864 14.2989 8.45522 14.5948 8.2029 14.707C7.95056 14.8191 7.65508 14.7055 7.54293 14.4531L7.99983 14.2501C7.54293 14.4531 7.54298 14.4532 7.54293 14.4531L7.54221 14.4515L7.54058 14.4478L7.53471 14.4345L7.513 14.3845C7.4943 14.3411 7.46738 14.278 7.43387 14.1975C7.36687 14.0366 7.27337 13.8059 7.16631 13.5246C6.95263 12.963 6.68285 12.1942 6.46222 11.3718C6.24284 10.5541 6.06552 9.65996 6.04973 8.85458C6.04927 8.83091 6.04894 8.80722 6.04876 8.78349L4.5397 10.2926C4.67383 10.5401 4.75 10.8237 4.75 11.125C4.75 12.0915 3.9665 12.875 3 12.875C2.0335 12.875 1.25 12.0915 1.25 11.125C1.25 10.1585 2.0335 9.37503 3 9.37503C3.30141 9.37503 3.58502 9.45123 3.83262 9.58541L6.69054 6.7275C6.69657 6.72129 6.70265 6.71512 6.70878 6.70899C6.71491 6.70286 6.72108 6.69678 6.72728 6.69075L9.58539 3.83264ZM10.375 3C10.375 2.58579 10.7108 2.25 11.125 2.25C11.5392 2.25 11.875 2.58579 11.875 3C11.875 3.41422 11.5392 3.75 11.125 3.75C10.9351 3.75 10.7617 3.67945 10.6296 3.56312C10.6195 3.55094 10.6088 3.53913 10.5974 3.52773C10.586 3.51632 10.5742 3.50557 10.562 3.49549C10.4456 3.36335 10.375 3.18992 10.375 3ZM3.52779 10.5973C3.51655 10.5861 3.50594 10.5744 3.49599 10.5624C3.36379 10.4458 3.19016 10.375 3 10.375C2.58579 10.375 2.25 10.7108 2.25 11.125C2.25 11.5392 2.58579 11.875 3 11.875C3.41422 11.875 3.75 11.5392 3.75 11.125C3.75 10.9349 3.67926 10.7613 3.56266 10.6291C3.55066 10.6192 3.53903 10.6086 3.52779 10.5973Z" fill="black" fill-opacity="0.9"/>
</svg>
