<svg width="16" height="16" viewBox="0 0 16 16" fill="none" xmlns="http://www.w3.org/2000/svg">
<path fill-rule="evenodd" clip-rule="evenodd" d="M14.5 2.5V7.5H15.5V8.5H0.5V7.5H1.5V2.5C1.5 2.22193 1.59713 1.98574 1.7914 1.79145C1.98573 1.59715 2.22193 1.5 2.5 1.5H13.5C13.7781 1.5 14.0143 1.59715 14.2086 1.79145C14.4029 1.98574 14.5 2.22193 14.5 2.5ZM13.5 7.5H2.5V2.5H13.5V7.5ZM14.5 14.5V13.5H13.5V14.5H14.5ZM12.5 13.5V14.5H11.5V13.5H12.5ZM10.5 14.5V13.5H9.5V14.5H10.5ZM8.5 13.5V14.5H7.5V13.5H8.5ZM6.5 14.5V13.5H5.5V14.5H6.5ZM4.5 13.5V14.5H3.5V13.5H4.5ZM2.5 14.5V13.5H1.5V14.5H2.5ZM14.5 9.5V10.5H13.5V9.5H14.5ZM2.5 10.5V9.5H1.5V10.5H2.5ZM14.5 11.5V12.5H13.5V11.5H14.5ZM2.5 12.5V11.5H1.5V12.5H2.5Z" fill="black"/>
</svg>
