<svg width="16" height="16" viewBox="0 0 16 16" fill="none" xmlns="http://www.w3.org/2000/svg">
<path fill-rule="evenodd" clip-rule="evenodd" d="M8 15.5H7V14.5H2.5C2.22 14.5 1.99 14.4 1.79 14.21C1.6 14.01 1.5 13.78 1.5 13.5V2.5C1.5 2.22 1.6 1.99 1.79 1.79C1.99 1.6 2.22 1.5 2.5 1.5H7V0.5H8V15.5ZM10.5 2.5H9.5V1.5H10.5V2.5ZM12.5 2.5H11.5V1.5H12.5V2.5ZM13.5 2.5H14.5V1.5H13.5V2.5ZM7 2.5H2.5V13.5H7V2.5ZM13.5 4.5H14.5V3.5H13.5V4.5ZM13.5 6.5H14.5V5.5H13.5V6.5ZM13.5 8.5H14.5V7.5H13.5V8.5ZM13.5 10.5H14.5V9.5H13.5V10.5ZM13.5 12.5H14.5V11.5H13.5V12.5ZM10.5 14.5H9.5V13.5H10.5V14.5ZM12.5 14.5H11.5V13.5H12.5V14.5ZM13.5 14.5H14.5V13.5H13.5V14.5Z" fill="black"/>
</svg>
