<svg width="16" height="16" viewBox="0 0 16 16" fill="none" xmlns="http://www.w3.org/2000/svg">
<path fill-rule="evenodd" clip-rule="evenodd" d="M7.30652 6.80053H2.30652C2.0304 6.80053 1.80657 7.02436 1.80657 7.30048V12.3005C1.80657 12.5766 2.0304 12.8004 2.30652 12.8004H7.30652C7.58263 12.8004 7.80647 12.5766 7.80647 12.3005V7.30048C7.80647 7.02436 7.58263 6.80053 7.30652 6.80053ZM2.30652 5.80048C1.47809 5.80048 0.806519 6.47205 0.806519 7.30048V12.3005C0.806519 13.1289 1.47809 13.8005 2.30652 13.8005H7.30652C8.13495 13.8005 8.80652 13.1289 8.80652 12.3005V7.30048C8.80652 6.47205 8.13495 5.80048 7.30652 5.80048H2.30652Z" fill="black"/>
<path d="M5.50561 2.19946L9.96562 2.19946C11.6225 2.19946 12.9656 3.54261 12.9656 5.19946L12.9656 9.65521" stroke="black" stroke-opacity="0.9" stroke-linecap="round" stroke-linejoin="round"/>
<path d="M15.1935 8.5401L12.9661 10.7679L10.7378 8.5401" stroke="black" stroke-opacity="0.9" stroke-linecap="round" stroke-linejoin="round"/>
</svg>
