<svg width="16" height="16" viewBox="0 0 16 16" fill="none" xmlns="http://www.w3.org/2000/svg">
<path d="M13.7146 4.5C13.7146 4.16734 13.651 3.84823 13.5236 3.54269C13.3959 3.23608 13.2141 2.96733 12.9782 2.73644C12.7474 2.50055 12.4786 2.31873 12.1719 2.19097C11.8664 2.06366 11.5473 2 11.2146 2C10.882 2 10.5629 2.06366 10.2573 2.19097C9.9507 2.31872 9.68193 2.50054 9.451 2.73642C9.21513 2.96731 9.03333 3.23607 8.9056 3.54269C8.77827 3.84823 8.7146 4.16733 8.7146 4.5V6.6001H4.2146C3.66231 6.6001 3.2146 7.04782 3.2146 7.6001V12.0001C3.2146 12.5524 3.66231 13.0001 4.2146 13.0001H10.2146C10.7669 13.0001 11.2146 12.5524 11.2146 12.0001V7.6001C11.2146 7.04782 10.7669 6.6001 10.2146 6.6001H9.7146V4.5C9.7146 4.08367 9.86087 3.73308 10.1534 3.44824L10.1582 3.44359L10.1628 3.43881C10.4477 3.14627 10.7983 3 11.2146 3C11.631 3 11.9816 3.14627 12.2664 3.43881L12.271 3.44359L12.2758 3.44824C12.5684 3.73308 12.7146 4.08367 12.7146 4.5V5H13.7146V4.5Z" fill="black" fill-opacity="0.9"/>
</svg>
